<svg width="40" height="40" viewBox="0 0 40 40" fill="none" xmlns="http://www.w3.org/2000/svg">
<rect width="40" height="40" rx="20" fill="black" fill-opacity="0.06"/>
<rect x="0.5" y="0.5" width="39" height="39" rx="19.5" stroke="black" stroke-opacity="0.04"/>
<path d="M15.3479 24.4278C15.7639 24.838 16.4846 24.8204 16.8655 24.4395L20.0002 21.3048L23.1233 24.4337C23.5276 24.838 24.2249 24.838 24.635 24.4219C25.051 24.0059 25.0569 23.3087 24.6526 22.9044L21.5295 19.7755L24.6526 16.6524C25.0569 16.2481 25.051 15.5508 24.635 15.1407C24.219 14.7247 23.5276 14.7188 23.1233 15.1231L20.0002 18.2462L16.8655 15.1173C16.4846 14.7364 15.7639 14.7188 15.3479 15.1348C14.9377 15.5508 14.9495 16.2657 15.3362 16.6465L18.471 19.7755L15.3362 22.9102C14.9495 23.2911 14.9319 24.0118 15.3479 24.4278Z" fill="#3C4242" fill-opacity="0.8"/>
</svg>
