<svg width="25" height="25" viewBox="0 0 25 25" fill="none" xmlns="http://www.w3.org/2000/svg">
<path d="M23.4498 10.0691C22.2498 5.11909 17.8248 1.44409 12.4998 1.44409H12.1248V10.0691H23.4498ZM6.8748 2.94409C4.2498 4.48159 2.2998 7.03159 1.5498 10.0691H6.8748V2.94409ZM1.5498 15.3191C2.2998 18.3566 4.2498 20.9066 6.8748 22.4441V15.3191H1.5498ZM12.1248 23.9441H12.4998C17.8248 23.9441 22.2498 20.2691 23.4498 15.3191H12.1248V23.9441Z" fill="#ED4C5C"/>
<path d="M23.45 10.0691H12.125V1.44409C10.2125 1.51909 8.4125 2.04409 6.875 2.94409V10.0691H1.55C1.3625 10.8941 1.25 11.7941 1.25 12.6941C1.25 13.5941 1.3625 14.4941 1.55 15.3191H6.875V22.4441C8.4125 23.3441 10.2125 23.8691 12.125 23.9441V15.3191H23.45C23.6375 14.4941 23.75 13.5941 23.75 12.6941C23.75 11.7941 23.6375 10.8941 23.45 10.0691Z" fill="white"/>
</svg>
