<svg width="25" height="25" viewBox="0 0 25 25" fill="none" xmlns="http://www.w3.org/2000/svg">
<g clip-path="url(#clip0_42_11164)">
<path d="M12.7998 23.9441C19.013 23.9441 24.0498 18.9073 24.0498 12.6941C24.0498 6.48089 19.013 1.44409 12.7998 1.44409C6.5866 1.44409 1.5498 6.48089 1.5498 12.6941C1.5498 18.9073 6.5866 23.9441 12.7998 23.9441Z" fill="#F5F5F5"/>
<path d="M9.57494 13.3316C10.6249 14.0441 12.0874 13.7441 12.7999 12.6941C13.5124 11.6441 14.9374 11.3441 16.0249 12.0566C17.0374 12.7316 17.3374 14.0441 16.7749 15.0566C18.0124 12.9566 17.4499 10.2191 15.3499 8.83159C13.2124 7.40659 10.3249 7.96909 8.89994 10.1066C8.86244 10.1816 8.82494 10.2566 8.78744 10.2941C8.26244 11.3816 8.59994 12.6566 9.57494 13.3316Z" fill="#ED4C5C"/>
<path d="M16.025 12.0565C14.975 11.344 13.5125 11.644 12.8 12.694C12.0875 13.744 10.6625 14.044 9.57498 13.3315C8.56248 12.6565 8.26248 11.344 8.82498 10.3315C7.54998 12.4315 8.14998 15.169 10.25 16.5565C12.3875 17.9815 15.275 17.419 16.7 15.2815C16.7375 15.2065 16.775 15.1315 16.8125 15.094C17.3375 14.0065 17 12.7315 16.025 12.0565Z" fill="#428BC1"/>
<path d="M3.7252 9.43169L6.3127 5.56919L6.0502 5.38169L5.7877 5.23169L3.2002 9.09419L3.4627 9.24419L3.7252 9.43169ZM4.4377 9.91919L4.7002 10.0692L7.2502 6.20669L7.0252 6.05669L6.7627 5.86919L4.1752 9.73169L4.4377 9.91919ZM7.7002 6.50669L5.1502 10.3692L5.4127 10.5567L5.6752 10.7067L8.22519 6.84419L7.9627 6.69419L7.7002 6.50669ZM18.9877 16.6317L19.2502 16.8192L20.4502 15.0192L20.1877 14.8317L19.9252 14.6817L18.7252 16.4817L18.9877 16.6317ZM21.8752 15.9567L20.6752 17.7567L20.9377 17.9442L21.2002 18.0942L22.4002 16.2942L22.1377 16.1442L21.8752 15.9567ZM20.2252 17.4567L21.4252 15.6567L21.1627 15.4692L20.9002 15.3192L19.7002 17.1192L19.9627 17.2692L20.2252 17.4567ZM18.8377 16.8942L18.5752 16.7442L17.3752 18.5442L17.6377 18.6942L17.9002 18.8817L19.1002 17.0817L18.8377 16.8942ZM19.7752 17.5317L19.5502 17.3817L18.3502 19.1817L18.5752 19.3317L18.8377 19.5192L20.0377 17.7192L19.7752 17.5317ZM20.4877 18.0192L19.2877 19.8192L19.5502 20.0067L19.8127 20.1567L21.0127 18.3567L20.7502 18.1692L20.4877 18.0192ZM3.4627 16.1442L3.2002 16.2942L5.7877 20.1567L6.0502 20.0067L6.3127 19.8192L3.7252 15.9567L3.4627 16.1442ZM5.8252 17.5317L5.5627 17.7192L6.7627 19.5192L7.0252 19.3317L7.2502 19.1817L6.0502 17.3817L5.8252 17.5317ZM5.4127 14.8317L5.1502 15.0192L7.7002 18.8817L7.9627 18.6942L8.22519 18.5442L5.6752 14.6817L5.4127 14.8317ZM4.1752 15.6567L5.3752 17.4567L5.6377 17.2692L5.9002 17.1192L4.7002 15.3192L4.4377 15.4692L4.1752 15.6567ZM20.7502 7.21919L21.0127 7.03169L19.8127 5.23169L19.5502 5.38169L19.2877 5.56919L20.4877 7.36919L20.7502 7.21919ZM18.8377 8.49419L19.1002 8.30669L17.9002 6.50669L17.6377 6.69419L17.3752 6.84419L18.5752 8.64419L18.8377 8.49419ZM20.6752 7.63169L21.8752 9.43169L22.1377 9.24419L22.4002 9.09419L21.2002 7.29419L20.9377 7.44419L20.6752 7.63169ZM21.1627 9.91919L21.4252 9.73169L18.8377 5.86919L18.5752 6.05669L18.3502 6.20669L20.9002 10.0692L21.1627 9.91919ZM20.1877 10.5567L20.4502 10.3692L19.2502 8.56919L18.9877 8.75669L18.7252 8.90669L19.9252 10.7067L20.1877 10.5567Z" fill="#3E4347"/>
</g>
<defs>
<clipPath id="clip0_42_11164">
<rect width="24" height="24" fill="white" transform="translate(0.799805 0.694092)"/>
</clipPath>
</defs>
</svg>
