<svg width="25" height="25" viewBox="0 0 25 25" fill="none" xmlns="http://www.w3.org/2000/svg">
<path d="M12.7002 23.9441C18.9134 23.9441 23.9502 18.9073 23.9502 12.6941C23.9502 6.48089 18.9134 1.44409 12.7002 1.44409C6.48699 1.44409 1.4502 6.48089 1.4502 12.6941C1.4502 18.9073 6.48699 23.9441 12.7002 23.9441Z" fill="#ED4C5C"/>
<path d="M16.1877 15.3191L16.2252 13.2941L14.2002 12.6941L16.2252 12.0941L16.1877 10.0691L17.4252 11.6816L19.4502 11.0816L18.2127 12.6941L19.4502 14.3066L17.4252 13.7066L16.1877 15.3191Z" fill="white"/>
<path d="M13.1502 17.1941C10.6752 17.1941 8.6877 15.1691 8.6877 12.6941C8.6877 10.2191 10.6752 8.19409 13.1502 8.19409C14.0877 8.19409 14.9502 8.49409 15.7002 8.98159C14.6877 7.81909 13.1877 7.06909 11.5002 7.06909C8.4252 7.06909 5.9502 9.58159 5.9502 12.6941C5.9502 15.8066 8.4252 18.3191 11.5002 18.3191C13.1877 18.3191 14.6877 17.5691 15.7002 16.4066C14.9877 16.8941 14.1252 17.1941 13.1502 17.1941Z" fill="white"/>
</svg>
