<svg width="25" height="25" viewBox="0 0 25 25" fill="none" xmlns="http://www.w3.org/2000/svg">
<path d="M1.1377 12.694C1.1377 17.6065 4.2877 21.769 8.6377 23.3065V2.08154C4.2877 3.61904 1.1377 7.78154 1.1377 12.694Z" fill="#75A843"/>
<path d="M23.6377 12.694C23.6377 7.78154 20.4877 3.61904 16.1377 2.08154V23.3065C20.5252 21.769 23.6377 17.6065 23.6377 12.694Z" fill="#ED4C5C"/>
<path d="M8.6377 23.3066C9.8002 23.7191 11.0752 23.9441 12.3877 23.9441C13.7002 23.9441 14.9752 23.7191 16.1377 23.3066V2.08159C14.9752 1.66909 13.7002 1.44409 12.3877 1.44409C11.0752 1.44409 9.8002 1.66909 8.6377 2.08159V23.3066Z" fill="white"/>
</svg>
