<svg width="32" height="32" viewBox="0 0 32 32" fill="none" xmlns="http://www.w3.org/2000/svg">
<g clip-path="url(#clip0_42_11177)" filter="url(#filter0_d_42_11177)">
<path d="M4.84961 12.694C4.84961 17.6065 7.99961 21.769 12.3496 23.3065V2.08154C7.99961 3.61904 4.84961 7.78154 4.84961 12.694Z" fill="#2A5F9E"/>
<path d="M27.3496 12.694C27.3496 7.78154 24.2371 3.61904 19.8496 2.08154V23.3065C24.2371 21.769 27.3496 17.6065 27.3496 12.694Z" fill="#C94747"/>
<path d="M12.3496 23.3066C13.5121 23.7191 14.7871 23.9441 16.0996 23.9441C17.4121 23.9441 18.6871 23.7191 19.8496 23.3066V2.08159C18.6871 1.66909 17.4121 1.44409 16.0996 1.44409C14.7871 1.44409 13.5121 1.66909 12.3496 2.08159V23.3066Z" fill="#FFCE31"/>
</g>
<defs>
<filter id="filter0_d_42_11177" x="0.0996094" y="0.694092" width="32" height="32" filterUnits="userSpaceOnUse" color-interpolation-filters="sRGB">
<feFlood flood-opacity="0" result="BackgroundImageFix"/>
<feColorMatrix in="SourceAlpha" type="matrix" values="0 0 0 0 0 0 0 0 0 0 0 0 0 0 0 0 0 0 127 0" result="hardAlpha"/>
<feOffset dy="4"/>
<feGaussianBlur stdDeviation="2"/>
<feComposite in2="hardAlpha" operator="out"/>
<feColorMatrix type="matrix" values="0 0 0 0 0 0 0 0 0 0 0 0 0 0 0 0 0 0 0.25 0"/>
<feBlend mode="normal" in2="BackgroundImageFix" result="effect1_dropShadow_42_11177"/>
<feBlend mode="normal" in="SourceGraphic" in2="effect1_dropShadow_42_11177" result="shape"/>
</filter>
<clipPath id="clip0_42_11177">
<rect width="24" height="24" fill="white" transform="translate(4.09961 0.694092)"/>
</clipPath>
</defs>
</svg>
