<svg width="24" height="25" viewBox="0 0 24 25" fill="none" xmlns="http://www.w3.org/2000/svg">
<path d="M11.9621 1.44409C7.04961 1.44409 2.88711 4.59409 1.34961 8.94409H22.5746C21.0371 4.59409 16.8746 1.44409 11.9621 1.44409Z" fill="#3E4347"/>
<path d="M11.9621 23.9441C16.8746 23.9441 21.0371 20.8316 22.5746 16.4441H1.34961C2.88711 20.8316 7.04961 23.9441 11.9621 23.9441Z" fill="#FFE62E"/>
<path d="M1.35039 8.94409C0.937891 10.1066 0.712891 11.3816 0.712891 12.6941C0.712891 14.0066 0.937891 15.2816 1.35039 16.4441H22.5754C22.9879 15.2816 23.2129 14.0066 23.2129 12.6941C23.2129 11.3816 22.9879 10.1066 22.5754 8.94409H1.35039Z" fill="#ED4C5C"/>
</svg>
