<svg width="25" height="25" viewBox="0 0 25 25" fill="none" xmlns="http://www.w3.org/2000/svg">
<path d="M1.0127 12.694C1.0127 17.6065 4.1627 21.769 8.5127 23.3065V2.08154C4.1627 3.61904 1.0127 7.78154 1.0127 12.694Z" fill="#428BC1"/>
<path d="M23.5127 12.694C23.5127 7.78154 20.4002 3.61904 16.0127 2.08154V23.3065C20.4002 21.769 23.5127 17.6065 23.5127 12.694Z" fill="#ED4C5C"/>
<path d="M8.5127 23.3066C9.6752 23.7191 10.9502 23.9441 12.2627 23.9441C13.5752 23.9441 14.8502 23.7191 16.0127 23.3066V2.08159C14.8502 1.66909 13.6127 1.44409 12.2627 1.44409C10.9127 1.44409 9.6752 1.66909 8.5127 2.08159V23.3066Z" fill="white"/>
</svg>
