<svg width="25" height="25" viewBox="0 0 25 25" fill="none" xmlns="http://www.w3.org/2000/svg">
<g clip-path="url(#clip0_42_11181)">
<path d="M0.950195 12.6941C0.950195 14.9066 1.5877 16.9691 2.6752 18.6941H21.6877C22.7752 16.9691 23.4127 14.9066 23.4127 12.6941C23.4127 10.4816 22.7752 8.41909 21.6877 6.69409H2.6752C1.5877 8.41909 0.950195 10.4816 0.950195 12.6941Z" fill="#FFCE31"/>
<path d="M21.7248 6.69409C19.7373 3.54409 16.2123 1.44409 12.1998 1.44409C8.1873 1.44409 4.6623 3.54409 2.6748 6.69409H21.7248ZM2.6748 18.6941C4.6623 21.8441 8.1873 23.9441 12.1998 23.9441C16.2123 23.9441 19.7373 21.8441 21.7248 18.6941H2.6748Z" fill="#ED4C5C"/>
<path d="M3.65039 11.4565H4.85039V12.1315H3.65039V11.4565ZM3.65039 16.4065H4.88789V17.044H3.65039V16.4065Z" fill="#C8B100"/>
<path d="M3.53809 15.3567C3.42559 15.4317 3.35059 15.5067 3.35059 15.5442C3.35059 15.5817 3.38809 15.6192 3.46309 15.6567C3.53809 15.6942 3.61309 15.7692 3.57559 15.8442C3.65059 15.7692 3.68809 15.6942 3.68809 15.6192C3.68809 15.5067 3.61309 15.3942 3.53809 15.3567Z" fill="#ED4C5C"/>
<path d="M3.83789 12.1316H4.70039V16.4066H3.83789V12.1316Z" fill="white"/>
<path d="M5.60043 13.7066C5.41293 13.6316 5.07543 13.5566 4.70043 13.5566C4.58793 13.5566 4.43793 13.5566 4.28793 13.5941C3.76293 13.6691 3.35043 13.8941 3.38793 14.0441L3.20043 13.6316C3.16293 13.4441 3.61293 13.2191 4.17543 13.1066C4.36293 13.0691 4.55043 13.0691 4.70043 13.0691C5.07543 13.0691 5.41293 13.1066 5.60043 13.1816V13.7066Z" fill="#ED4C5C"/>
<path d="M3.83828 14.2691C3.61328 14.2691 3.42578 14.1941 3.42578 14.0816C3.42578 14.0066 3.50078 13.8941 3.65078 13.8191H3.87578L3.83828 14.2691ZM4.70078 13.9316C4.85078 13.9691 4.96328 14.0066 5.03828 14.0441C5.07578 14.0816 4.92578 14.2316 4.70078 14.3441V13.9316Z" fill="#ED4C5C"/>
<path d="M3.27506 15.0942C3.23756 15.0192 3.50006 14.8692 3.83756 14.7567C3.98756 14.7192 4.10006 14.6442 4.28756 14.5692C4.73756 14.3817 5.11256 14.1192 5.03756 14.0442L5.11256 14.4942C5.15006 14.5692 4.85006 14.7942 4.40006 15.0192C4.25006 15.0942 3.98756 15.2067 3.83756 15.2442C3.57506 15.3192 3.35006 15.4692 3.35006 15.5067L3.27506 15.0942Z" fill="#ED4C5C"/>
<path d="M11.7123 11.4565H12.9123V12.1315H11.7123V11.4565ZM11.6748 16.4065H12.9123V17.044H11.6748V16.4065Z" fill="#C8B100"/>
<path d="M13.025 15.3567C13.1375 15.4317 13.2125 15.5067 13.2125 15.5442C13.2125 15.5817 13.175 15.6192 13.1 15.6567C13.025 15.7317 12.95 15.8442 12.9875 15.8817C12.9125 15.8067 12.875 15.7317 12.875 15.6567C12.875 15.5067 12.95 15.3942 13.025 15.3567Z" fill="#ED4C5C"/>
<path d="M11.8623 12.1316H12.7248V16.4066H11.8623V12.1316Z" fill="white"/>
<path d="M10.9629 13.7066C11.1504 13.6316 11.4879 13.5566 11.8629 13.5566C11.9754 13.5566 12.1254 13.5566 12.2754 13.5941C12.8004 13.6691 13.2129 13.8941 13.1754 14.0441L13.3629 13.5941C13.4004 13.4066 12.9504 13.1816 12.3879 13.0691H11.8629C11.4879 13.0691 11.1504 13.1066 10.9629 13.1816V13.7066Z" fill="#ED4C5C"/>
<path d="M12.7253 14.2691C12.9503 14.2691 13.1378 14.1941 13.1378 14.0816C13.1378 14.0066 13.0628 13.8941 12.9128 13.8191H12.6878L12.7253 14.2691ZM11.8628 13.9316C11.7128 13.9691 11.6003 14.0066 11.5253 14.0441C11.4878 14.0816 11.6378 14.2316 11.8628 14.3441V13.9316Z" fill="#ED4C5C"/>
<path d="M13.2875 15.0941C13.325 15.0191 13.0625 14.8691 12.725 14.7566C12.575 14.7191 12.4625 14.6441 12.275 14.5691C11.825 14.3816 11.45 14.1191 11.525 14.0441L11.45 14.4941C11.4125 14.5691 11.7125 14.7941 12.1625 15.0191C12.3125 15.0941 12.575 15.2066 12.725 15.2441C12.9875 15.3191 13.2125 15.5066 13.175 15.5441L13.2875 15.0941ZM8.2625 9.05664C8.975 9.05664 10.4375 9.20664 10.9625 9.73164C10.4 11.0816 9.5 10.5191 8.2625 10.5191C7.0625 10.5191 6.125 11.0816 5.5625 9.73164C6.0875 9.20664 7.5125 9.05664 8.2625 9.05664Z" fill="#ED4C5C"/>
<path d="M10.1 10.5566C9.65 10.2941 8.975 10.2566 8.2625 10.2566C7.55 10.2566 6.875 10.3316 6.425 10.5566L6.575 11.1941C6.9875 11.3066 7.5875 11.3816 8.2625 11.3816C8.9375 11.3816 9.5 11.3066 9.95 11.1941L10.1 10.5566ZM10.7375 8.94409C10.5875 8.83159 10.2875 8.71909 10.025 8.71909C9.9125 8.71909 9.8 8.71909 9.6875 8.75659C9.6875 8.75659 9.4625 8.45659 8.9375 8.45659C8.75 8.45659 8.6 8.49409 8.45 8.56909V8.53159C8.4125 8.45659 8.3375 8.38159 8.2625 8.38159C8.1875 8.38159 8.075 8.49409 8.075 8.56909V8.60659C7.925 8.53159 7.775 8.49409 7.5875 8.49409C7.0625 8.49409 6.8375 8.83159 6.8375 8.79409C6.725 8.75659 6.6125 8.75659 6.5 8.75659C4.775 8.75659 5.6375 9.91909 5.6375 9.91909L5.825 9.69409C5.4125 9.16909 5.7875 8.86909 6.5375 8.86909C6.65 8.86909 6.725 8.86909 6.8 8.90659C6.5375 9.28159 7.025 9.61909 7.025 9.61909L7.1375 9.43159C6.875 9.24409 6.8375 8.60659 7.5875 8.60659C7.775 8.60659 7.925 8.64409 8.075 8.75659C8.075 8.79409 8.0375 9.31909 8 9.39409L8.3 9.65659L8.6 9.39409C8.5625 9.28159 8.525 8.79409 8.525 8.75659C8.6375 8.68159 8.825 8.60659 9.0125 8.60659C9.8 8.60659 9.8 9.24409 9.4625 9.43159L9.575 9.61909C9.575 9.61909 9.9875 9.28159 9.8 8.90659C9.875 8.90659 9.9875 8.86909 10.0625 8.86909C10.9625 8.86909 11 9.54409 10.775 9.69409L10.925 9.91909C10.85 9.91909 11.2625 9.39409 10.7375 8.94409Z" fill="#C8B100"/>
<path d="M8.03809 8.23159C8.03809 8.11909 8.15059 8.00659 8.26309 8.00659C8.41309 8.00659 8.48809 8.11909 8.48809 8.23159C8.48809 8.34409 8.37559 8.45659 8.26309 8.45659C8.15059 8.45659 8.03809 8.34409 8.03809 8.23159Z" fill="#005BBF"/>
<path d="M8.18809 7.59399V7.70649H8.07559V7.81899H8.18809V8.19399H8.03809V8.30649H8.48809L8.52559 8.23149L8.48809 8.19399H8.33809V7.81899H8.45059V7.70649H8.33809V7.59399H8.18809Z" fill="#C8B100"/>
<path d="M8.26309 11.3066C7.66309 11.3066 7.13809 11.2316 6.72559 11.1191C7.13809 11.0066 7.66309 10.9316 8.26309 10.9316C8.86309 10.9316 9.38809 11.0066 9.80059 11.1191C9.42559 11.2316 8.86309 11.3066 8.26309 11.3066Z" fill="#ED4C5C"/>
<path d="M8.30059 17.7942C7.58809 17.7942 6.91309 17.6067 6.31309 17.3442C5.86309 17.1192 5.60059 16.7067 5.60059 16.2192V14.4192H11.0006V16.2192C11.0006 16.7067 10.7006 17.1567 10.2881 17.3442C9.68809 17.6442 9.01309 17.7942 8.30059 17.7942ZM8.26309 11.4192H10.9631V14.4192H8.26309V11.4192Z" fill="white"/>
<path d="M8.30059 16.2192C8.30059 16.9317 7.70059 17.4942 6.95059 17.4942C6.20059 17.4942 5.60059 16.9317 5.60059 16.2192V14.4192H8.30059V16.2192Z" fill="#ED4C5C"/>
<path d="M6.1625 17.269C6.2375 17.3065 6.35 17.3815 6.5 17.419V14.344H6.2L6.1625 17.269ZM5.5625 16.1815C5.5625 16.5565 5.7125 16.8565 5.8625 17.0065V14.344H5.5625V16.1815Z" fill="#C8B100"/>
<path d="M6.7627 17.494H7.0627V14.344H6.7627V17.494Z" fill="#C7B500"/>
<path d="M7.3623 17.419C7.4748 17.3815 7.6248 17.3065 7.6998 17.269V14.344H7.3998L7.3623 17.419Z" fill="#C8B100"/>
<path d="M5.5625 11.4192H8.2625V14.4192H5.5625V11.4192Z" fill="#ED4C5C"/>
<path d="M8 17.0066C8.15 16.8941 8.2625 16.6316 8.3 16.3316V14.3816H8V17.0066Z" fill="#C8B100"/>
<path d="M11.0006 14.4192V16.2192C11.0006 16.9317 10.4006 17.4942 9.65059 17.4942C8.90059 17.4942 8.30059 16.9317 8.30059 16.2192V14.4192H11.0006ZM10.0256 11.9442C10.1381 12.1692 10.1381 12.7317 9.80059 12.6192C9.87559 12.6567 9.91309 12.9192 10.0256 13.0692C10.2131 13.2942 10.4381 13.1067 10.4006 12.8442C10.3256 12.4317 10.3631 12.1692 10.4381 11.7567C10.4381 11.7942 10.6256 11.7942 10.7006 11.7192C10.6631 11.8317 10.6256 11.9817 10.7006 11.9817C10.6256 12.0942 10.4381 12.2817 10.4006 12.3942C10.3631 12.6567 10.7756 13.1442 10.3256 13.2567C10.0256 13.3317 10.2131 13.5567 10.3256 13.6692C10.3256 13.6692 10.1756 14.1567 10.2506 14.1192C9.95059 14.2317 10.0256 13.9692 10.0256 13.9692C10.1756 13.5192 9.76309 13.4817 9.80059 13.4067C9.42559 13.3692 9.83809 13.7442 9.50059 13.7442C9.42559 13.7442 9.27559 13.8192 9.27559 13.8192C8.86309 13.7817 9.08809 13.4067 9.23809 13.4442C9.35059 13.4817 9.46309 13.6692 9.46309 13.4067C9.46309 13.4067 9.27559 13.1067 9.76309 13.1067C9.57559 13.1067 9.46309 12.9567 9.38809 12.7692C9.31309 12.8067 9.20059 12.9942 8.78809 13.0317C8.78809 13.0317 8.67559 12.6192 8.78809 12.6942C8.93809 12.7692 9.01309 12.7692 9.16309 12.6192C9.08809 12.5067 8.63809 12.3567 8.71309 12.0942C8.71309 12.0192 8.93809 11.9067 8.93809 11.9067C8.90059 12.0942 9.01309 12.2817 9.23809 12.2817C9.53809 12.3192 9.42559 12.2067 9.46309 12.1317C9.50059 12.0567 9.72559 12.1692 9.65059 11.9817C9.65059 11.9442 9.38809 11.9067 9.46309 11.7942C9.61309 11.6067 9.83809 11.7567 10.0256 11.9442ZM8.30059 17.4192L8.22559 17.2317L8.30059 17.0067L8.37559 17.2317L8.30059 17.4192Z" fill="#ED4C5C"/>
<path d="M6.38809 12.0566V12.2441H6.46309V12.3941H6.27559V12.7691H6.38809V13.5941H6.16309V14.0066H7.70059V13.5941H7.51309V12.7691H7.58809V12.3941H7.40059V12.2441H7.51309V12.0566H7.13809V12.2441H7.21309V12.3941H7.02559V11.9441H7.13809V11.7566H6.72559V11.9441H6.83809V12.3941H6.65059V12.2441H6.72559V12.0566H6.38809ZM10.6256 16.6691V14.7941H8.67559V16.6691L9.57559 17.0816H9.68809L10.6256 16.6691ZM9.57559 14.9441V15.5816L8.93809 14.9441H9.57559ZM8.78809 14.9816L9.53809 15.7316L8.78809 16.4816V14.9816ZM8.86309 16.6316L9.57559 15.9191V16.9691L8.86309 16.6316ZM9.68809 16.9316V15.8816L10.4006 16.5941L9.68809 16.9316ZM10.4756 16.4816L9.72559 15.7316L10.4756 14.9816V16.4816ZM9.68809 14.9441H10.3256L9.68809 15.5816V14.9441Z" fill="#C8B100"/>
<path d="M7.40039 14.3815C7.40039 13.819 7.77539 13.4065 8.26289 13.4065C8.75039 13.4065 9.12539 13.8565 9.12539 14.3815C9.12539 14.9065 8.75039 15.3565 8.26289 15.3565C7.77539 15.3565 7.40039 14.944 7.40039 14.3815Z" fill="#ED4C5C"/>
<path d="M7.66309 14.3817C7.66309 13.9692 7.92559 13.6692 8.26309 13.6692C8.60059 13.6692 8.86309 14.0067 8.86309 14.3817C8.86309 14.7942 8.60059 15.0942 8.26309 15.0942C7.96309 15.1317 7.66309 14.7942 7.66309 14.3817Z" fill="#005BBF"/>
<path d="M8.00059 13.894L7.85059 14.3065L7.96309 14.344L7.88809 14.494H8.11309L8.03809 14.344L8.15059 14.3065L8.00059 13.894ZM8.56309 13.894L8.41309 14.3065L8.52559 14.344L8.45059 14.494H8.67559L8.63809 14.344L8.75059 14.3065L8.56309 13.894ZM8.30059 14.3815L8.11309 14.794L8.22559 14.8315L8.18809 14.9815H8.37559L8.33809 14.8315L8.45059 14.794L8.30059 14.3815Z" fill="#C8B100"/>
</g>
<defs>
<clipPath id="clip0_42_11181">
<rect width="24" height="24" fill="white" transform="translate(0.200195 0.694092)"/>
</clipPath>
</defs>
</svg>
