<svg width="25" height="25" viewBox="0 0 25 25" fill="none" xmlns="http://www.w3.org/2000/svg">
<path d="M23.6621 10.7441C22.7621 5.45659 18.1496 1.44409 12.5996 1.44409C7.04961 1.44409 2.43711 5.45659 1.53711 10.7441L12.5996 5.19409L23.6621 10.7441ZM1.53711 14.6441C2.43711 19.9316 7.04961 23.9441 12.5996 23.9441C18.1496 23.9441 22.7621 19.9316 23.6621 14.6441L12.5996 20.1941L1.53711 14.6441Z" fill="#699635"/>
<path d="M12.5996 5.19409L1.53711 10.7441C1.42461 11.3816 1.34961 12.0191 1.34961 12.6941C1.34961 13.3691 1.42461 14.0066 1.53711 14.6441L12.5996 20.1941L23.6621 14.6441C23.7746 14.0066 23.8496 13.3691 23.8496 12.6941C23.8496 12.0191 23.7746 11.3816 23.6621 10.7441L12.5996 5.19409Z" fill="#FFE62E"/>
<path d="M10.3496 11.344C9.14961 11.344 8.02461 11.6065 7.01211 12.0565C6.97461 12.2815 6.97461 12.469 6.97461 12.694C6.97461 15.8065 9.48711 18.319 12.5996 18.319C14.6996 18.319 16.5371 17.1565 17.5121 15.469C16.1246 13.0315 13.4246 11.344 10.3496 11.344Z" fill="#428BC1"/>
<path d="M18.1496 13.5941C18.1871 13.2941 18.2246 12.9941 18.2246 12.6941C18.2246 9.58159 15.7121 7.06909 12.5996 7.06909C10.3871 7.06909 8.47461 8.34409 7.53711 10.2191C8.43711 9.95659 9.37461 9.80659 10.3496 9.80659C13.5371 9.80659 16.3496 11.3066 18.1496 13.5941Z" fill="#428BC1"/>
<path d="M10.3492 9.80664C9.37422 9.80664 8.43672 9.95664 7.53672 10.2191C7.27422 10.7816 7.08672 11.3816 7.01172 12.0566C8.02422 11.6066 9.14922 11.3441 10.3492 11.3441C13.4242 11.3441 16.1242 12.9941 17.5117 15.4316C17.8492 14.8691 18.0367 14.2316 18.1492 13.5941C16.3492 11.3066 13.5367 9.80664 10.3492 9.80664Z" fill="white"/>
<path d="M8.84961 13.0691C9.05672 13.0691 9.22461 12.9012 9.22461 12.6941C9.22461 12.487 9.05672 12.3191 8.84961 12.3191C8.6425 12.3191 8.47461 12.487 8.47461 12.6941C8.47461 12.9012 8.6425 13.0691 8.84961 13.0691Z" fill="white"/>
<path d="M10.3496 15.3191C10.5567 15.3191 10.7246 15.1512 10.7246 14.9441C10.7246 14.737 10.5567 14.5691 10.3496 14.5691C10.1425 14.5691 9.97461 14.737 9.97461 14.9441C9.97461 15.1512 10.1425 15.3191 10.3496 15.3191Z" fill="white"/>
<path d="M12.5996 15.3191C12.8067 15.3191 12.9746 15.1512 12.9746 14.9441C12.9746 14.737 12.8067 14.5691 12.5996 14.5691C12.3925 14.5691 12.2246 14.737 12.2246 14.9441C12.2246 15.1512 12.3925 15.3191 12.5996 15.3191Z" fill="white"/>
<path d="M12.5996 16.8191C12.8067 16.8191 12.9746 16.6512 12.9746 16.4441C12.9746 16.237 12.8067 16.0691 12.5996 16.0691C12.3925 16.0691 12.2246 16.237 12.2246 16.4441C12.2246 16.6512 12.3925 16.8191 12.5996 16.8191Z" fill="white"/>
<path d="M15.5996 15.3191C15.8067 15.3191 15.9746 15.1512 15.9746 14.9441C15.9746 14.737 15.8067 14.5691 15.5996 14.5691C15.3925 14.5691 15.2246 14.737 15.2246 14.9441C15.2246 15.1512 15.3925 15.3191 15.5996 15.3191Z" fill="white"/>
<path d="M15.5996 16.8191C15.8067 16.8191 15.9746 16.6512 15.9746 16.4441C15.9746 16.237 15.8067 16.0691 15.5996 16.0691C15.3925 16.0691 15.2246 16.237 15.2246 16.4441C15.2246 16.6512 15.3925 16.8191 15.5996 16.8191Z" fill="white"/>
<path d="M14.0996 16.0691C14.3067 16.0691 14.4746 15.9012 14.4746 15.6941C14.4746 15.487 14.3067 15.3191 14.0996 15.3191C13.8925 15.3191 13.7246 15.487 13.7246 15.6941C13.7246 15.9012 13.8925 16.0691 14.0996 16.0691Z" fill="white"/>
<path d="M8.84961 14.5691C9.05672 14.5691 9.22461 14.4012 9.22461 14.1941C9.22461 13.987 9.05672 13.8191 8.84961 13.8191C8.6425 13.8191 8.47461 13.987 8.47461 14.1941C8.47461 14.4012 8.6425 14.5691 8.84961 14.5691Z" fill="white"/>
</svg>
