<svg width="24" height="24" viewBox="0 0 24 24" fill="none" xmlns="http://www.w3.org/2000/svg">
<g clip-path="url(#clip0_29_33014)">
<path d="M0.712891 12.0002C0.712891 16.9127 3.86289 21.0752 8.21289 22.6127V1.3877C3.86289 2.9252 0.712891 7.08769 0.712891 12.0002Z" fill="#428BC1"/>
<path d="M23.2129 12.0002C23.2129 7.08769 20.1004 2.9252 15.7129 1.3877V22.6127C20.1004 21.0752 23.2129 16.9127 23.2129 12.0002Z" fill="#ED4C5C"/>
<path d="M8.21289 22.6125C9.37539 23.025 10.6504 23.25 11.9629 23.25C13.2754 23.25 14.5504 23.025 15.7129 22.6125V1.3875C14.5504 0.975 13.3129 0.75 11.9629 0.75C10.6129 0.75 9.37539 0.975 8.21289 1.3875V22.6125Z" fill="white"/>
</g>
<defs>
<clipPath id="clip0_29_33014">
<rect width="24" height="24" fill="white"/>
</clipPath>
</defs>
</svg>
