<svg width="40" height="29" viewBox="0 0 40 29" fill="none" xmlns="http://www.w3.org/2000/svg">
<path d="M13.9971 14.1543C13.9971 14.585 14.1553 14.9453 14.5156 15.2969L21.1602 21.8096C21.4326 22.0732 21.749 22.2051 22.1357 22.2051C22.9092 22.2051 23.5508 21.5811 23.5508 20.8076C23.5508 20.4121 23.3838 20.0605 23.0938 19.7705L17.3018 14.1455L23.0938 8.5293C23.3838 8.24805 23.5508 7.8877 23.5508 7.50098C23.5508 6.73633 22.9092 6.10352 22.1357 6.10352C21.749 6.10352 21.4326 6.23535 21.1602 6.49902L14.5156 13.0117C14.1553 13.3545 14.0059 13.7148 13.9971 14.1543Z" fill="#0E76FD"/>
</svg>
