<svg width="24" height="25" viewBox="0 0 24 25" fill="none" xmlns="http://www.w3.org/2000/svg">
<path d="M12 16.8423C12.3418 16.8423 12.6289 16.7124 12.8955 16.439L17.9541 11.2642C18.1592 11.0591 18.2617 10.813 18.2617 10.5122C18.2617 9.90381 17.7764 9.41162 17.1748 9.41162C16.8809 9.41162 16.6006 9.53467 16.375 9.76025L12.0068 14.272L7.63184 9.76025C7.40625 9.53467 7.12598 9.41162 6.8252 9.41162C6.22363 9.41162 5.73828 9.90381 5.73828 10.5122C5.73828 10.8062 5.84082 11.0522 6.0459 11.2642L11.1045 16.439C11.3848 16.7192 11.665 16.8423 12 16.8423Z" fill="#25292E"/>
</svg>
