<svg width="16" height="17" viewBox="0 0 16 17" fill="none" xmlns="http://www.w3.org/2000/svg">
<path d="M12.6663 8.86068H4.75967L7.17968 11.7673C7.23571 11.8348 7.27791 11.9125 7.30388 11.9963C7.32985 12.08 7.33907 12.168 7.33102 12.2553C7.31477 12.4316 7.22915 12.5942 7.09301 12.7073C6.95686 12.8205 6.78134 12.8749 6.60506 12.8587C6.42877 12.8424 6.26617 12.7568 6.15301 12.6207L2.81967 8.62068C2.79725 8.58886 2.77719 8.55544 2.75967 8.52068C2.75967 8.48735 2.72634 8.46734 2.71301 8.43401C2.68279 8.35757 2.66697 8.2762 2.66634 8.19401C2.66697 8.11182 2.68279 8.03045 2.71301 7.95401C2.71301 7.92068 2.74634 7.90068 2.75967 7.86735C2.77719 7.83259 2.79725 7.79916 2.81967 7.76734L6.15301 3.76735C6.21569 3.69209 6.29418 3.63157 6.38291 3.59009C6.47163 3.54861 6.5684 3.52719 6.66634 3.52735C6.82211 3.52704 6.97307 3.58129 7.09301 3.68068C7.16051 3.73664 7.21632 3.80538 7.25722 3.88294C7.29812 3.96051 7.32332 4.04538 7.33137 4.1327C7.33942 4.22002 7.33016 4.30806 7.30413 4.3918C7.2781 4.47554 7.23581 4.55331 7.17968 4.62068L4.75967 7.52735H12.6663C12.8432 7.52735 13.0127 7.59758 13.1377 7.72261C13.2628 7.84763 13.333 8.0172 13.333 8.19401C13.333 8.37082 13.2628 8.54039 13.1377 8.66542C13.0127 8.79044 12.8432 8.86068 12.6663 8.86068Z" fill="#626D7D"/>
</svg>
