<svg width="16" height="17" viewBox="0 0 16 17" fill="none" xmlns="http://www.w3.org/2000/svg">
<path d="M3.33366 8.86068H11.2403L8.82032 11.7673C8.76429 11.8348 8.72209 11.9125 8.69612 11.9963C8.67015 12.08 8.66093 12.168 8.66898 12.2553C8.68523 12.4316 8.77085 12.5942 8.90699 12.7073C9.04314 12.8205 9.21866 12.8749 9.39494 12.8587C9.57123 12.8424 9.73383 12.7568 9.84699 12.6207L13.1803 8.62068C13.2028 8.58886 13.2228 8.55544 13.2403 8.52068C13.2403 8.48735 13.2737 8.46734 13.287 8.43401C13.3172 8.35757 13.333 8.2762 13.3337 8.19401C13.333 8.11182 13.3172 8.03045 13.287 7.95401C13.287 7.92068 13.2537 7.90068 13.2403 7.86735C13.2228 7.83259 13.2028 7.79916 13.1803 7.76734L9.84699 3.76735C9.78431 3.69209 9.70582 3.63157 9.61709 3.59009C9.52837 3.54861 9.4316 3.52719 9.33366 3.52735C9.17789 3.52704 9.02693 3.58129 8.90699 3.68068C8.83949 3.73664 8.78368 3.80538 8.74278 3.88294C8.70188 3.96051 8.67668 4.04538 8.66863 4.1327C8.66058 4.22002 8.66984 4.30806 8.69587 4.3918C8.7219 4.47554 8.76419 4.55331 8.82032 4.62068L11.2403 7.52735H3.33366C3.15685 7.52735 2.98728 7.59758 2.86225 7.72261C2.73723 7.84763 2.66699 8.0172 2.66699 8.19401C2.66699 8.37082 2.73723 8.54039 2.86225 8.66542C2.98728 8.79044 3.15685 8.86068 3.33366 8.86068Z" fill="#626D7D"/>
</svg>
