<svg width="169" height="16" viewBox="0 0 169 16" fill="none" xmlns="http://www.w3.org/2000/svg">
<path d="M81.6235 15H95.4609C97.2202 15 98.0844 14.1358 98.0844 12.4074V2.59259C98.0844 0.864204 97.2202 0 95.4609 0H81.6235C79.8745 0 79 0.864204 79 2.59259V12.4074C79 14.1358 79.8745 15 81.6235 15ZM81.644 13.5082C80.9033 13.5082 80.4815 13.1173 80.4815 12.3354V2.66461C80.4815 1.89301 80.9033 1.49177 81.644 1.49177H85.2243V13.5082H81.644ZM95.4403 1.49177C96.1811 1.49177 96.6029 1.89301 96.6029 2.66461V12.3354C96.6029 13.1173 96.1811 13.5082 95.4403 13.5082H86.6749V1.49177H95.4403ZM83.6708 4.47532C83.9486 4.47532 84.1852 4.2284 84.1852 3.9609C84.1852 3.69341 83.9486 3.46708 83.6708 3.46708H82.0556C81.7881 3.46708 81.5514 3.69341 81.5514 3.9609C81.5514 4.2284 81.7881 4.47532 82.0556 4.47532H83.6708ZM83.6708 6.53293C83.9486 6.53293 84.1852 6.29629 84.1852 6.01853C84.1852 5.75102 83.9486 5.52469 83.6708 5.52469H82.0556C81.7881 5.52469 81.5514 5.75102 81.5514 6.01853C81.5514 6.29629 81.7881 6.53293 82.0556 6.53293H83.6708ZM83.6708 8.59054C83.9486 8.59054 84.1852 8.35392 84.1852 8.08642C84.1852 7.81893 83.9486 7.5926 83.6708 7.5926H82.0556C81.7881 7.5926 81.5514 7.81893 81.5514 8.08642C81.5514 8.35392 81.7881 8.59054 82.0556 8.59054H83.6708Z" fill="#767676"/>
<path d="M133.5 1.5L127 8L133.5 14.5" stroke="#737373" stroke-width="1.5" stroke-linecap="round" stroke-linejoin="round"/>
<path d="M161 14.5L167.5 8L161 1.5" stroke="#BFBFBF" stroke-width="1.5" stroke-linecap="round" stroke-linejoin="round"/>
<path d="M11.5 8C11.5 11.0376 9.03757 13.5 6 13.5C2.96243 13.5 0.5 11.0376 0.5 8C0.5 4.96243 2.96243 2.5 6 2.5C9.03757 2.5 11.5 4.96243 11.5 8Z" fill="#FF5F57" stroke="#E14640"/>
<path d="M31.5 8C31.5 11.0376 29.0376 13.5 26 13.5C22.9624 13.5 20.5 11.0376 20.5 8C20.5 4.96243 22.9624 2.5 26 2.5C29.0376 2.5 31.5 4.96243 31.5 8Z" fill="#FFBD2E" stroke="#DFA123"/>
<path d="M51.5 8C51.5 11.0376 49.0376 13.5 46 13.5C42.9624 13.5 40.5 11.0376 40.5 8C40.5 4.96243 42.9624 2.5 46 2.5C49.0376 2.5 51.5 4.96243 51.5 8Z" fill="#28CA42" stroke="#1DAD2C"/>
</svg>
