<svg width="150" height="130" viewBox="0 0 150 130" fill="none" xmlns="http://www.w3.org/2000/svg">
<path d="M109.263 44.2198C109.171 44.1015 109.035 44.0332 108.885 44.0286C104.341 43.9148 98.3221 44.0969 94.3384 44.2198C94.1973 44.2244 94.0743 44.2836 93.9878 44.3792C93.8786 44.4611 93.8057 44.584 93.7875 44.7206C93.4369 47.6299 92.8678 50.5619 92.0984 53.4302C92.0574 53.5759 92.0893 53.7306 92.1804 53.8536C92.276 53.9765 92.4171 54.0493 92.5674 54.0493L106.649 54.2041H106.654C106.809 54.2041 106.941 54.1358 107.032 54.0175C107.127 53.9537 107.205 53.8581 107.232 53.7307L109.344 44.6341C109.385 44.4884 109.354 44.3382 109.263 44.2198ZM94.7072 45.1896C98.7364 45.0666 104.072 44.9073 108.256 44.9984L106.344 53.2253L93.2047 53.0796C93.8695 50.4936 94.3703 47.8439 94.7072 45.1896Z" fill="#151921"/>
<path d="M99.9063 46.9743C98.7408 47.0882 97.5708 47.1246 96.4052 47.0745C96.1594 47.0654 95.95 47.2885 95.95 47.5298C95.95 47.7847 96.1594 47.976 96.4052 47.9851C97.5753 48.0306 98.7454 47.9987 99.9063 47.8849C100.152 47.8621 100.362 47.6937 100.362 47.4296C100.362 47.202 100.152 46.9516 99.9063 46.9743Z" fill="#343A46"/>
<path d="M104.864 49.9745C101.901 49.9335 98.9367 49.9927 95.9774 50.152C95.3946 50.1839 95.39 51.0945 95.9774 51.0626C98.9367 50.9033 101.901 50.8441 104.864 50.8851C105.447 50.8942 105.452 49.9836 104.864 49.9745Z" fill="#343A46"/>
<path d="M130.92 31.4539C123.317 31.2627 113.406 31.1671 105.802 31.3992C105.661 31.4038 105.552 31.463 105.479 31.5449C105.374 31.6178 105.297 31.7271 105.274 31.8818C104.66 36.981 103.635 42.4535 102.306 47.4115C102.228 47.6983 102.447 47.9851 102.743 47.9897C110.856 48.0807 118.969 48.1718 127.082 48.2629C127.269 48.2629 127.387 48.1718 127.455 48.0443C127.569 47.9988 127.665 47.9123 127.701 47.7529C128.921 42.5127 130.137 37.2724 131.357 32.0321C131.426 31.7407 131.225 31.463 130.92 31.4539ZM126.864 47.3477C119.019 47.2612 111.175 47.1747 103.335 47.0837C104.573 42.3624 105.529 37.1677 106.135 32.3007C113.501 32.0867 123.044 32.1778 130.351 32.3508C129.186 37.3543 128.025 42.3533 126.864 47.3477Z" fill="#151921"/>
<path d="M126.864 47.3476C119.019 47.2611 111.175 47.1746 103.335 47.0835C104.573 42.3622 105.529 37.1675 106.135 32.3005C113.501 32.0865 123.044 32.1776 130.351 32.3506C129.186 37.3541 128.025 42.3531 126.864 47.3476Z" fill="#343A46"/>
<path d="M88.7429 96.4906C88.3923 95.9625 87.9097 95.5072 87.4909 95.0337C87.0174 94.501 86.5439 93.9683 86.075 93.4357L84.659 91.8376C84.5589 91.7238 84.4587 91.6145 84.3586 91.5007C84.2857 91.4188 84.2083 91.3322 84.1355 91.2503C84.1173 91.2184 84.1036 91.2002 84.0899 91.1866C84.2038 91.0727 84.3312 90.9817 84.4041 90.8132C84.5316 90.531 84.4906 90.2396 84.3267 90.0347C84.7729 89.6295 85.169 89.1606 85.4876 88.6233C85.7836 88.1316 85.2873 87.4305 84.7182 87.6217C83.061 88.1726 81.381 88.3957 79.6373 88.3684C77.8845 88.3411 76.1589 88.2363 74.4152 88.4549C72.7671 88.6597 71.1463 89.0467 69.5938 89.6432C68.5421 90.0484 67.4084 90.4854 66.5434 91.2321C66.3112 90.8997 66.0471 90.5992 65.7512 90.3215C65.7421 90.1212 65.6693 89.9163 65.4963 89.7342C62.6963 86.7749 59.5002 83.7791 55.5393 82.5726C55.5438 82.345 55.4755 82.1083 55.3071 81.9261C54.5741 81.1066 53.3175 79.9457 52.1155 80.1733C51.073 80.3691 50.6769 81.3844 50.1078 82.1492C49.6297 82.7912 50.4219 83.72 51.1367 83.4878C51.1731 83.4741 51.2141 83.4695 51.2505 83.4559C51.337 83.6061 51.4417 83.7518 51.5874 83.8838C51.765 84.0432 51.9562 84.1115 52.1429 84.1206C52.152 84.1252 52.1565 84.1343 52.1656 84.1388C52.1155 84.1707 52.07 84.2117 52.0199 84.2617C49.8346 86.7339 47.8632 89.3927 46.1559 92.2155C45.3136 93.5995 44.4031 95.102 44.098 96.7137C44.0252 97.1007 44.0115 97.5241 44.0707 97.9247C44.0252 98.1842 44.0207 98.4528 44.0798 98.7306C44.3576 100.033 45.4548 100.556 46.6294 100.734C46.8616 100.866 47.0938 100.993 47.3214 101.112C48.5689 101.754 49.8983 102.173 51.2733 102.386C49.7891 103.679 48.3686 105.041 47.0118 106.466C46.5065 106.921 45.9966 107.376 45.4867 107.832C45.0632 108.21 45.3819 109.052 45.9693 108.997C50.1852 108.615 54.4193 108.455 58.6488 108.528C60.0101 108.551 62.2228 108.974 62.9877 107.458C63.1516 107.135 63.1743 106.794 63.2426 106.443C63.2608 106.338 63.2654 106.143 63.3473 106.065C63.4657 105.956 63.8208 105.965 63.9711 105.947C65.0046 105.806 66.0745 105.81 67.108 105.951C67.3493 105.983 67.5769 105.929 67.7408 105.783C69.0566 105.769 70.3769 105.751 71.6926 105.737C72.0933 105.778 72.4985 105.792 72.8991 105.765C72.9765 105.76 73.0448 105.742 73.1086 105.719C73.5502 105.715 73.9873 105.71 74.4289 105.705C74.7977 106.152 75.4851 105.915 75.6035 105.369C75.7628 105.105 75.772 104.74 75.5716 104.526C75.5261 104.312 75.4624 104.098 75.385 103.889C75.2438 103.497 74.9798 103.015 75.0526 102.587C75.0708 102.478 75.1072 102.386 75.1482 102.3C75.4806 102.118 75.8038 101.922 76.118 101.717C76.5505 101.663 77.024 101.74 77.3609 101.863C78.4445 102.268 79.4415 103.069 80.3293 103.793C81.1852 104.494 81.9547 105.373 82.9199 105.929C83.7986 106.434 84.8548 106.561 85.6925 105.901C86.4802 105.282 86.7579 104.249 87.0766 103.347L88.365 99.7276C88.7201 98.7169 89.4122 97.4968 88.7429 96.4906Z" fill="#FFBF24"/>
<path d="M47.6492 55.1558C47.9543 54.6413 48.2684 54.1314 48.5962 53.626C49.2655 52.5971 49.9848 51.6046 50.7451 50.6394C51.337 49.8927 52.3022 48.8273 53.3175 49.6286C54.1916 50.3161 53.6134 51.5181 53.3721 52.374C53.0762 53.4302 52.8212 54.573 53.0898 55.6611C53.2628 56.3668 53.6225 57.0179 54.1279 57.5369C54.4784 57.6097 54.8244 57.6826 55.175 57.7554C55.48 57.8192 55.6713 58.106 55.694 58.3974C55.7532 59.1076 55.134 59.6357 54.7106 60.132C54.3282 60.5782 53.9685 61.0608 53.5269 61.4432C53.0807 61.8302 52.5571 62.1125 51.9562 62.1079C51.3279 62.1033 50.736 61.8074 50.2079 61.4933C49.179 60.8741 48.232 60.0273 47.5718 59.0211C47.3078 58.6204 47.1985 58.2107 47.1939 57.8055C47.0391 57.4959 46.939 57.1727 46.9481 56.8312C46.9708 56.2166 47.3487 55.6611 47.6492 55.1558Z" fill="#5EDC10"/>
<path d="M47.1894 54.9962C47.6584 54.1266 48.1956 53.2934 48.7829 52.5013C49.3884 51.6863 50.0623 50.9214 50.7862 50.2157C51.3735 49.6421 52.1065 48.7998 52.9169 48.5767C53.6317 48.3764 54.2418 48.8226 54.4102 49.5146C54.6151 50.3614 54.3055 51.3585 54.0824 52.1689C53.7683 53.3071 53.0808 54.4954 53.5634 55.6746C53.9458 56.6033 54.8109 57.2225 55.8034 57.3045C56.4317 57.3591 56.2404 58.3197 55.6167 58.2697C53.8912 58.124 52.407 56.5669 52.4024 54.8186C52.3979 53.685 52.9806 52.6014 53.2401 51.5133C53.3585 51.0079 53.5634 50.3842 53.4814 49.8606C53.3676 49.1276 52.6528 49.847 52.3614 50.0974C50.6723 51.5406 49.2428 53.3071 48.1683 55.2512C47.8951 55.7474 47.5719 56.2801 47.4763 56.8446C47.367 57.4911 47.7176 58.0329 48.0863 58.5337C48.7556 59.4352 51.3006 61.6205 52.3114 62.1031C52.8805 62.3763 52.4479 63.255 51.8743 62.9818C50.3764 62.2625 46.8798 59.3259 46.5202 57.5958C46.329 56.6671 46.7615 55.7975 47.1894 54.9962Z" fill="#151921"/>
<path d="M101.336 71.177C101.332 70.5761 101.318 69.9797 101.286 69.3787C101.222 68.154 101.104 66.9293 100.931 65.7182C100.794 64.7758 100.498 63.3644 99.2145 63.5465C98.1128 63.7013 98.008 65.0307 97.785 65.8912C97.5072 66.952 97.1567 68.0675 96.3736 68.8733C95.8682 69.3969 95.2308 69.7793 94.5342 69.9706C94.1973 69.8567 93.8559 69.7475 93.519 69.6336C93.223 69.5335 92.9135 69.6883 92.745 69.9296C92.3352 70.5123 92.6039 71.2818 92.7222 71.9237C92.8269 72.4974 92.8998 73.0983 93.0865 73.6538C93.2731 74.2138 93.5873 74.7191 94.1108 75.0196C94.6572 75.3292 95.3173 75.3747 95.932 75.3702C97.1339 75.352 98.3768 75.097 99.4558 74.5598C99.8884 74.3458 100.189 74.0499 100.398 73.6993C100.69 73.5126 100.94 73.2804 101.099 72.98C101.386 72.4336 101.336 71.7644 101.336 71.177Z" fill="#5EDC10"/>
<path d="M101.81 71.2725C101.842 70.2846 101.801 69.2966 101.687 68.3132C101.573 67.307 101.377 66.3054 101.104 65.3266C100.885 64.5344 100.676 63.4417 100.084 62.8362C99.5651 62.3035 98.8139 62.3809 98.3222 62.8954C97.7212 63.5237 97.4845 64.5435 97.2705 65.3539C96.97 66.4921 96.9654 67.8716 95.9547 68.6456C95.158 69.2556 94.0972 69.3558 93.2003 68.9278C92.6312 68.6592 92.3125 69.588 92.877 69.8566C94.4432 70.5987 96.5056 69.9978 97.3934 68.4908C97.9671 67.5119 98.008 66.2827 98.3313 65.2128C98.4815 64.7165 98.6227 64.0745 98.955 63.6648C99.424 63.0866 99.6789 64.07 99.8064 64.4297C100.539 66.5285 100.89 68.773 100.84 70.9903C100.826 71.5548 100.84 72.1786 100.64 72.7158C100.407 73.3304 99.8337 73.6218 99.2601 73.8676C98.2266 74.3093 94.9303 74.9193 93.8149 74.8283C93.1866 74.7782 93.1183 75.7571 93.7512 75.8071C95.4084 75.9392 99.9066 75.1606 101.086 73.8449C101.709 73.1483 101.778 72.174 101.81 71.2725Z" fill="#151921"/>
<path d="M57.6018 32.405C57.5927 32.4596 57.5927 32.5142 57.5836 32.5689C57.4333 32.5598 57.2785 32.6098 57.1465 32.7419C56.8688 33.0196 56.6229 33.3155 56.418 33.6297C56.0675 34.0121 55.7715 34.4446 55.512 34.8999C55.0841 35.642 54.4512 36.6072 54.5559 37.5041C54.6106 37.9548 54.8382 38.36 55.0568 38.747C55.3345 39.2387 55.6259 39.7304 55.9218 40.213C56.1813 40.6365 56.4454 41.0553 56.7185 41.4696C56.6502 41.5789 56.6229 41.72 56.6958 41.8657C57.365 43.1951 58.2073 44.4062 59.1953 45.5171C59.3637 45.7037 59.6915 45.5945 59.7871 45.3941C60.42 44.0465 61.1848 42.7717 62.0817 41.5789C62.1728 41.456 62.2183 41.2511 62.1091 41.1191C61.8131 40.7639 61.5126 40.3997 61.2167 40.0264C60.98 39.6166 60.7387 39.2114 60.5019 38.8017C59.4912 37.0625 58.5169 35.2414 58.3348 33.2063C58.3302 33.1516 58.3166 33.1015 58.2984 33.0515C58.312 32.883 58.3257 32.7146 58.353 32.5461C58.4304 32.0681 57.6792 31.9178 57.6018 32.405Z" fill="#252B36"/>
<path d="M76.5186 21.9155C75.0663 21.5786 73.6412 22.6075 72.4894 23.3314C70.9687 24.2921 69.4663 25.2846 68.0094 26.3408C66.8576 27.174 65.7467 28.1028 64.9363 29.2774C64.1942 29.8419 63.5522 30.4611 63.2563 31.399C62.9103 32.4826 63.1743 33.6526 63.3883 34.7362C63.6387 35.9973 63.9938 37.2357 64.44 38.4467C64.4992 38.6106 64.6312 38.6835 64.7678 38.688C64.9955 39.2799 65.8833 39.0159 65.8605 38.4331C68.747 36.4617 71.72 34.6178 74.7794 32.9242C75.5443 32.5008 76.3183 32.0819 77.0968 31.6767C77.7524 31.3353 78.581 31.0439 78.9862 30.3837C79.3687 29.76 79.2139 28.9541 79.1319 28.2667C79.0363 27.4472 78.8815 26.6277 78.6812 25.8264C78.4763 25.016 78.2214 24.2192 77.9072 23.4407C77.6204 22.7441 77.3108 22.1022 76.5186 21.9155Z" fill="#343A46"/>
<path d="M66.9897 25.0706C64.2034 27.0783 61.5491 29.2682 58.9859 31.5538C58.781 31.5447 58.5579 31.6812 58.5488 31.9453C58.5078 33.2064 59.0587 34.3446 59.5686 35.4646C60.1832 36.8077 60.5702 38.2418 61.2031 39.5713C61.3442 39.8672 61.4945 40.154 61.6629 40.4363C61.8177 40.6867 61.9953 41.0464 62.2366 41.2194C62.7556 41.5973 63.1562 40.846 63.4294 40.5091C63.657 40.2314 63.8847 39.9491 64.1078 39.6714C64.2899 39.4483 64.5631 39.1979 64.6131 38.8974C64.6587 38.6197 64.5084 38.3557 64.4083 38.1098C64.2626 37.7592 64.1214 37.4041 63.9848 37.049C63.4795 35.7332 63.0014 34.3492 62.9058 32.9333C62.8603 32.2731 62.9149 31.5947 63.2109 30.9892C63.5159 30.3655 64.0304 29.8556 64.5221 29.3775C65.6102 28.3213 66.8531 27.4335 67.9458 26.3818C68.3009 26.0403 68.5331 25.5395 68.2326 25.0888C67.9003 24.5925 67.3949 24.7792 66.9897 25.0706Z" fill="#89A1AE"/>
<path d="M76.0771 21.3602C75.0072 21.5241 73.9281 22.1842 72.9994 22.7033C70.9096 23.8733 68.9109 25.2528 67.0443 26.7416C66.1292 27.4701 65.2323 28.2349 64.4082 29.0635C63.698 29.7783 63.0742 30.5978 62.8648 31.604C62.6281 32.7058 62.8238 33.8759 63.0105 34.9685C63.229 36.2615 63.8482 38.1874 64.258 39.4713C64.2853 39.4576 64.3172 39.4394 64.3445 39.4303C64.4355 39.3939 64.522 39.3529 64.6085 39.3165C64.7224 39.2573 64.8362 39.1936 64.9409 39.1207C64.3399 37.2404 63.5432 34.6498 63.5204 32.7331C63.5113 31.7543 63.8072 30.912 64.431 30.1608C65.0684 29.3913 65.8469 28.7266 66.6072 28.0801C68.2371 26.6915 69.9991 25.4532 71.8065 24.3059C72.7262 23.7231 73.6641 23.1722 74.6475 22.6987C75.0846 22.4893 75.5489 22.2525 76.0224 22.1387C76.6325 21.993 76.9922 22.2753 77.238 22.8216C77.6842 23.8142 77.9619 24.9205 78.2169 25.9767C78.4992 27.1468 78.7905 28.8314 78.9089 30.0287C78.9544 30.5159 79.7193 30.4931 79.6692 30.006C79.4462 27.7159 78.8771 24.8886 78.0257 22.7488C77.6797 21.8929 77.0878 21.2099 76.0771 21.3602Z" fill="#151921"/>
<path d="M64.2124 39.6033L64.1669 39.5077C63.7571 38.2284 63.138 36.298 62.9149 34.9913C62.7328 33.9305 62.5324 32.724 62.7737 31.5904C62.9604 30.7162 63.4567 29.8967 64.3444 29.0089C65.0638 28.285 65.8833 27.5657 66.9896 26.6779C68.9519 25.1071 70.9642 23.7459 72.9584 22.6304L73.2497 22.4665C74.1148 21.9794 75.0936 21.4239 76.0679 21.2737C76.9785 21.1325 77.6796 21.6379 78.1122 22.726C78.8907 24.6792 79.5053 27.4018 79.7603 30.0105C79.7876 30.3065 79.5736 30.4658 79.3642 30.484C79.1183 30.5068 78.8497 30.3656 78.8178 30.0515C78.704 28.8951 78.4217 27.2333 78.1258 26.0132C77.8617 24.9159 77.5886 23.8506 77.1515 22.8717C76.9011 22.3117 76.5596 22.1159 76.0406 22.2389C75.6263 22.3345 75.2211 22.5348 74.825 22.726L74.6839 22.7943C73.828 23.2041 72.9265 23.714 71.852 24.3969C69.826 25.6808 68.1324 26.9101 66.6664 28.1621C65.9516 28.7722 65.1457 29.4596 64.5038 30.2336C63.8937 30.9666 63.6023 31.7907 63.616 32.7468C63.6388 34.75 64.5448 37.5819 65.0319 39.107L65.0547 39.1753L64.9955 39.2118C64.8771 39.2892 64.7633 39.3529 64.654 39.4075L64.6176 39.4212C64.5402 39.4576 64.4583 39.494 64.3763 39.5259C64.3536 39.535 64.3308 39.5487 64.308 39.5578L64.2124 39.6033ZM76.0907 21.4512C75.1483 21.5924 74.1831 22.1387 73.3363 22.6213L73.0449 22.7852C71.0553 23.8961 69.0566 25.2528 67.0989 26.819C65.9971 27.6977 65.1867 28.4125 64.4674 29.1364C63.6069 30.0014 63.1243 30.7936 62.9467 31.6313C62.7145 32.7286 62.9149 33.9168 63.0924 34.964C63.3064 36.2251 63.8983 38.0827 64.308 39.3575C64.3854 39.3256 64.4628 39.2937 64.5357 39.2573L64.5675 39.2436C64.6495 39.2027 64.736 39.1526 64.8316 39.0934C64.3353 37.5454 63.4521 34.75 63.4293 32.7468C63.4202 31.7451 63.7207 30.8847 64.3581 30.1152C65.0092 29.3322 65.8241 28.6356 66.5435 28.0209C68.0186 26.7644 69.7213 25.526 71.7519 24.2376C72.8354 23.5501 73.7415 23.0402 74.6019 22.6259L74.7431 22.5576C75.1437 22.3618 75.5626 22.1615 75.9951 22.0613C76.5961 21.9156 77.0286 22.1615 77.3154 22.7989C77.757 23.7868 78.0348 24.8613 78.2988 25.9676C78.5948 27.1969 78.8816 28.8678 78.9954 30.0287C79.0136 30.2291 79.1912 30.311 79.3414 30.3019C79.4643 30.2882 79.5918 30.2108 79.5736 30.0242C79.3186 27.4336 78.7086 24.7293 77.9346 22.7898C77.5385 21.779 76.9102 21.3329 76.0907 21.4512Z" fill="#151921"/>
<path d="M67.8046 24.242C67.536 24.2329 67.3129 24.3421 67.0898 24.4787C66.6891 24.72 66.2976 24.9886 65.9106 25.2527C64.4264 26.2452 62.9786 27.3015 61.5763 28.4078C60.8843 28.9541 60.2059 29.5141 59.5321 30.0832C58.9812 30.5522 58.3666 31.0257 58.1344 31.745C57.9432 32.3369 58.0388 32.9743 58.1981 33.5616C58.4167 34.3674 58.7217 35.1642 59.0313 35.9382C59.7324 37.6955 61.03 40.3225 62.0407 41.9661C62.0544 41.9342 62.0726 41.9023 62.0863 41.8705C62.1591 41.7293 62.2456 41.5973 62.3367 41.4653C62.3913 41.397 62.4596 41.3469 62.5324 41.315C61.5854 39.7352 60.3744 37.2812 59.7279 35.6422C59.4137 34.85 59.0996 34.0396 58.8947 33.2156C58.8037 32.8423 58.7354 32.4325 58.8401 32.0546C58.9539 31.6449 59.2544 31.3444 59.564 31.0666C60.9936 29.7828 62.5279 28.599 64.0804 27.4654C64.8407 26.9099 65.6147 26.3727 66.3932 25.8491C66.6026 25.708 66.8121 25.5714 67.0215 25.4348C67.1945 25.321 67.413 25.1207 67.6088 25.0569C67.9867 24.9386 68.1825 25.3028 68.3509 25.5942C68.6013 26.0176 69.2478 25.6124 68.9974 25.189C68.7334 24.7519 68.36 24.2647 67.8046 24.242Z" fill="#151921"/>
<path d="M62.0452 42.1527L61.9587 42.0116C60.9707 40.4045 59.6732 37.8094 58.9402 35.9746C58.5896 35.0959 58.3119 34.3538 58.107 33.5889C57.975 33.1109 57.8293 32.3961 58.0433 31.7222C58.2618 31.0393 58.8082 30.5795 59.3363 30.1333L59.4683 30.0195C60.1421 29.4458 60.8342 28.8813 61.5125 28.3395C62.9102 27.2332 64.3717 26.1724 65.8559 25.1799L66.079 25.0296C66.3931 24.8202 66.7118 24.6017 67.0396 24.4059C67.2491 24.2784 67.4949 24.1464 67.8045 24.1555C68.4282 24.1782 68.8289 24.7337 69.0747 25.1434C69.1612 25.2891 69.1658 25.4576 69.0884 25.6033C69.0019 25.7581 68.8289 25.8628 68.6559 25.8673C68.492 25.8719 68.36 25.7899 68.2734 25.6442L68.2461 25.5987C68.0504 25.2709 67.9047 25.0615 67.6315 25.1434C67.5086 25.1844 67.3674 25.2891 67.24 25.3847C67.1808 25.4303 67.117 25.4758 67.0624 25.5122C66.853 25.6488 66.6435 25.7854 66.4341 25.9265C65.6601 26.441 64.8816 26.9873 64.1213 27.5382C62.2364 28.9132 60.8433 30.0195 59.6095 31.1304C59.3181 31.3944 59.0221 31.6858 58.9129 32.0728C58.8127 32.4507 58.8901 32.865 58.9675 33.1882C59.1769 34.0305 59.5047 34.8682 59.7961 35.6058C60.4472 37.2585 61.6537 39.6897 62.5961 41.2649L62.6462 41.3514L62.5551 41.3924C62.4868 41.4243 62.4322 41.4653 62.3912 41.5199C62.3138 41.6337 62.2273 41.7657 62.1499 41.9114L62.0452 42.1527ZM67.7681 24.333C67.5496 24.333 67.3538 24.4241 67.1352 24.5561C66.812 24.7519 66.4887 24.9659 66.1792 25.1753L65.9561 25.3255C64.4764 26.3135 63.0195 27.3743 61.6263 28.4761C60.948 29.0133 60.2605 29.5779 59.5867 30.1515L59.4501 30.2653C58.9447 30.6933 58.4166 31.1349 58.2163 31.7723C58.016 32.4006 58.1571 33.079 58.28 33.5343C58.4849 34.2946 58.7626 35.0276 59.1086 35.9017C59.8143 37.6773 61.0527 40.1677 62.027 41.7748C62.0998 41.6428 62.1772 41.5199 62.2546 41.4061C62.2956 41.3514 62.3457 41.3105 62.4003 41.274C61.4579 39.6897 60.2787 37.2994 59.6368 35.6695C59.3454 34.9274 59.0085 34.0852 58.7991 33.2292C58.7126 32.8878 58.6306 32.4416 58.7444 32.0227C58.8628 31.5857 59.1815 31.2761 59.4911 30.9938C60.7294 29.8784 62.1272 28.7675 64.0166 27.388C64.7814 26.8325 65.56 26.2862 66.334 25.7717C66.5434 25.6306 66.7528 25.494 66.9622 25.3574C67.0169 25.321 67.0715 25.28 67.1307 25.239C67.2673 25.1343 67.4221 25.0205 67.5769 24.9704C68.0048 24.8293 68.2325 25.2208 68.4009 25.5031L68.4282 25.5441C68.4965 25.6579 68.5921 25.6807 68.6513 25.6761C68.7606 25.6761 68.8744 25.6033 68.9291 25.5077C68.9655 25.4485 68.9882 25.3483 68.9199 25.2299C68.6969 24.8521 68.3372 24.3512 67.8 24.3285C67.7908 24.333 67.7772 24.333 67.7681 24.333Z" fill="#151921"/>
<path d="M58.289 31.3628C57.0871 32.0458 56.0991 33.2022 55.3115 34.3267C54.5739 35.383 54.278 36.5212 54.5238 37.8005C54.7788 39.1527 55.4526 40.4685 56.0809 41.6795C56.8185 43.1 58.157 45.1806 59.1222 46.46C59.4181 46.847 60.0646 46.4463 59.7687 46.0548C58.9127 44.9257 57.6607 43.0089 56.9869 41.766C56.3677 40.6233 55.7577 39.4168 55.3934 38.1647C55.0429 36.9537 55.184 35.861 55.8988 34.8093C56.6181 33.7576 57.5742 32.6467 58.6897 32.0139C59.1176 31.768 58.7124 31.1215 58.289 31.3628Z" fill="#151921"/>
<path d="M59.4319 46.7056C59.2817 46.7056 59.1451 46.6373 59.0495 46.5099C58.0433 45.185 56.7048 43.0816 55.9991 41.7157C55.389 40.5366 54.697 39.2026 54.4329 37.8094C54.1916 36.5437 54.4557 35.3873 55.2388 34.2673C56.2404 32.8332 57.2238 31.8544 58.2436 31.2761C58.5122 31.1213 58.7808 31.2625 58.8992 31.4674C59.0085 31.6586 58.9994 31.9272 58.7353 32.0774C57.8065 32.6056 56.8504 33.5617 55.9718 34.8455C55.2888 35.8426 55.1295 36.9171 55.48 38.1236C55.8443 39.3801 56.4544 40.5912 57.0644 41.7066C57.72 42.9131 58.963 44.8299 59.8371 45.9863C59.9373 46.1138 59.96 46.2594 59.9008 46.396C59.8371 46.5508 59.6777 46.6646 59.4956 46.6874C59.4774 46.7011 59.4547 46.7056 59.4319 46.7056ZM58.3347 31.44C57.3376 32.0046 56.377 32.9652 55.389 34.3766C54.6378 35.4511 54.3828 36.5665 54.615 37.7776C54.8745 39.1434 55.5574 40.4637 56.163 41.6338C56.8641 42.9905 58.1981 45.0803 59.1951 46.4006C59.2862 46.5235 59.4091 46.5281 59.4729 46.519C59.5867 46.5053 59.696 46.4279 59.7369 46.3368C59.7688 46.2594 59.7551 46.1866 59.696 46.1092C58.8173 44.9482 57.5652 43.0178 56.9051 41.8068C56.295 40.6823 55.6758 39.4621 55.307 38.1873C54.9428 36.9262 55.1113 35.8016 55.8261 34.759C56.7321 33.4342 57.6791 32.4826 58.6488 31.9317C58.8173 31.8361 58.8036 31.6768 58.7444 31.5675C58.667 31.4355 58.5077 31.3444 58.3347 31.44Z" fill="#151921"/>
<path d="M58.8764 30.0879C58.6989 30.0014 58.4985 30.0151 58.3437 30.1243C56.9961 31.0895 56.6865 31.6632 56.6046 31.9363C56.5408 32.1503 56.6319 32.3734 56.8322 32.4781C56.9961 32.5646 57.2101 32.5419 57.3831 32.5009C57.6654 32.4326 57.9021 32.2414 58.1161 32.0502C58.3255 31.8635 58.5168 31.6495 58.6852 31.4264C58.7808 31.2989 58.8719 31.1669 58.9538 31.0303C59.0449 30.8801 59.145 30.7162 59.145 30.5341C59.145 30.3474 59.0449 30.1698 58.8764 30.0879Z" fill="#151921"/>
<path d="M57.1053 32.6284C56.9824 32.6284 56.8777 32.6056 56.7867 32.5556C56.5545 32.4326 56.4406 32.1595 56.518 31.9091C56.6683 31.4082 57.2647 30.7845 58.2891 30.047C58.4666 29.9195 58.7034 29.9013 58.9128 30.006C59.1131 30.1016 59.2361 30.3065 59.2315 30.5341C59.2315 30.7435 59.1222 30.9211 59.0266 31.0804C58.9492 31.2079 58.8582 31.34 58.7535 31.4856C58.5805 31.7178 58.3847 31.9318 58.1753 32.123C57.9522 32.3234 57.7063 32.5191 57.4058 32.592C57.3011 32.6147 57.201 32.6284 57.1053 32.6284ZM58.6351 30.1244C58.5486 30.1244 58.4666 30.1471 58.3983 30.1972C57.1645 31.0804 56.7912 31.645 56.6956 31.9637C56.6455 32.1367 56.7184 32.3143 56.8777 32.3962C57.0234 32.4736 57.2237 32.4463 57.3649 32.4099C57.6289 32.3461 57.852 32.164 58.0569 31.9819C58.2618 31.7998 58.4484 31.5949 58.6123 31.3718C58.717 31.2307 58.8035 31.1032 58.8764 30.9848C58.9629 30.8437 59.0539 30.6935 59.0539 30.5341C59.0539 30.3748 58.972 30.2382 58.8354 30.1744C58.7717 30.138 58.7034 30.1244 58.6351 30.1244Z" fill="#151921"/>
<path d="M62.2821 41.0965C62.0772 41.0055 61.8814 41.1147 61.7813 41.2923C60.8889 42.8493 60.0512 44.4337 59.2772 46.05C59.0632 46.4916 59.7644 46.7966 59.9738 46.355C60.7523 44.7388 61.5855 43.1544 62.4778 41.5973C62.5825 41.4198 62.4551 41.1694 62.2821 41.0965Z" fill="#151921"/>
<path d="M59.6369 46.6601C59.5595 46.6601 59.4821 46.6419 59.4093 46.61C59.2135 46.5144 59.0587 46.2867 59.1907 46.009C59.9647 44.3973 60.8115 42.7947 61.6993 41.2468C61.8359 41.0055 62.0863 40.9144 62.3185 41.01C62.4369 41.0647 62.5416 41.1785 62.5826 41.3105C62.619 41.4289 62.6099 41.5427 62.5553 41.6383C61.6675 43.1817 60.8252 44.7797 60.0512 46.3914C59.9647 46.5781 59.7963 46.6601 59.6369 46.6601ZM62.1319 41.1557C62.0089 41.1557 61.9133 41.2468 61.8587 41.3378C60.9709 42.8858 60.1286 44.4838 59.3546 46.0864C59.2681 46.2594 59.3728 46.3869 59.4867 46.4415C59.6187 46.5053 59.8008 46.4916 59.8873 46.3095C60.6659 44.6978 61.5081 43.0952 62.3959 41.5472C62.4369 41.479 62.4187 41.4061 62.405 41.3651C62.3777 41.2786 62.314 41.2058 62.2411 41.1739C62.2047 41.1603 62.1683 41.1557 62.1319 41.1557Z" fill="#151921"/>
<path d="M79.0865 30.0832C76.0953 31.7586 72.9493 33.1245 70.0264 34.9137C67.1946 36.6483 64.5403 38.6607 62.0954 40.9098C61.7403 41.2376 62.191 41.8522 62.5507 41.5199C64.9955 39.2708 67.6498 37.2539 70.4817 35.5238C73.4046 33.7345 76.5551 32.3642 79.5418 30.6933C79.9697 30.452 79.5099 29.8464 79.0865 30.0832Z" fill="#151921"/>
<path d="M62.3275 41.7065C62.2911 41.7065 62.2501 41.702 62.2137 41.6883C62.0544 41.6382 61.9269 41.4925 61.8859 41.3104C61.8449 41.1329 61.8996 40.9644 62.0316 40.8415C64.4947 38.5742 67.1672 36.5527 69.9763 34.8318C71.679 33.7892 73.4865 32.8741 75.2302 31.9908C76.4868 31.3534 77.7889 30.6978 79.0409 29.9967C79.2002 29.9056 79.3824 29.9102 79.5463 30.0058C79.7056 30.1014 79.8058 30.2653 79.8058 30.4292C79.8058 30.5703 79.7284 30.6887 79.5918 30.7661C78.3352 31.4673 77.0331 32.1274 75.772 32.7648C74.0283 33.648 72.2253 34.5586 70.5317 35.5966C67.7317 37.3085 65.0683 39.3208 62.6144 41.5836C62.5233 41.6655 62.4277 41.7065 62.3275 41.7065ZM79.2822 30.1196C79.2367 30.1196 79.182 30.1287 79.1274 30.1606C77.8754 30.8617 76.5733 31.5219 75.3121 32.1593C73.5684 33.0425 71.7655 33.9531 70.0673 34.9911C67.2673 36.703 64.6039 38.7199 62.15 40.9781C62.0362 41.0828 62.0407 41.2057 62.0589 41.274C62.0862 41.3878 62.1682 41.488 62.2638 41.5199C62.3366 41.5426 62.414 41.5244 62.4869 41.4561C64.95 39.1888 67.6225 37.1674 70.4315 35.4464C72.1343 34.4038 73.9372 33.4933 75.6855 32.61C76.942 31.9726 78.2442 31.317 79.4962 30.6159C79.5781 30.5703 79.6191 30.5112 79.6191 30.4338C79.6191 30.3382 79.5508 30.2289 79.4506 30.1697C79.4142 30.1424 79.355 30.1196 79.2822 30.1196Z" fill="#151921"/>
<path d="M78.9634 30.1697C77.5748 32.9378 75.1937 35.0412 72.8945 37.0445C70.4133 39.207 67.7999 41.2285 64.9863 42.9449C63.361 43.9374 61.1893 45.1712 59.4319 45.9133C58.9811 46.1046 59.2589 46.8148 59.7096 46.6236C61.5444 45.845 63.7844 44.5657 65.4826 43.5277C66.6936 42.7856 67.8682 41.9888 69.011 41.1511C71.6653 39.1934 74.2513 37.0399 76.5596 34.677C77.7843 33.4204 78.8724 32.0455 79.66 30.4748C79.8785 30.0377 79.182 29.7326 78.9634 30.1697Z" fill="#151921"/>
<path d="M59.564 46.7512C59.3773 46.7512 59.2225 46.6237 59.1542 46.4643C59.0586 46.2412 59.1133 45.9544 59.3955 45.836C61.3624 45.0029 63.7116 43.6188 64.9363 42.8722C67.4768 41.3196 70.0582 39.3938 72.8309 36.9808C75.0026 35.0868 77.4702 32.9425 78.877 30.1334C79.0182 29.8557 79.3186 29.8192 79.5372 29.9285C79.7284 30.0241 79.8741 30.2518 79.7421 30.5204C79.0273 31.9454 78.0074 33.3295 76.6234 34.7454C74.4836 36.9353 72.0114 39.0569 69.0657 41.2286C67.8865 42.0982 66.6982 42.8995 65.5327 43.6097C64.2443 44.3973 61.7767 45.8497 59.7507 46.7147C59.6824 46.7375 59.6232 46.7512 59.564 46.7512ZM79.0409 30.2108C77.6159 33.0517 75.1392 35.2098 72.9493 37.1129C70.172 39.5349 67.5815 41.4653 65.0319 43.0224C63.8027 43.7736 61.4443 45.1577 59.4684 45.9999C59.2863 46.0773 59.2635 46.2549 59.3227 46.3915C59.3728 46.5098 59.4957 46.6191 59.6778 46.5417C61.6947 45.6858 64.1532 44.238 65.4371 43.4504C66.5981 42.7401 67.7818 41.9388 68.9564 41.0783C71.8976 38.9158 74.3606 36.7987 76.4914 34.6134C77.8617 33.2111 78.8679 31.8452 79.5782 30.4339C79.6647 30.2654 79.5645 30.1379 79.4552 30.0833C79.3186 30.015 79.132 30.0332 79.0409 30.2108Z" fill="#151921"/>
<path d="M40.2509 55.3832C37.542 52.3601 34.9605 49.2233 32.5202 45.9771C32.1742 45.5127 31.382 45.968 31.7326 46.4369C34.2184 49.7423 36.8454 52.9429 39.609 56.0252C40.0005 56.4622 40.6424 55.8203 40.2509 55.3832Z" fill="#343A46"/>
<path d="M12.3605 54.1129C8.47237 50.7165 4.91662 46.9605 1.74787 42.8812C1.38819 42.4213 0.632429 42.9312 0.996654 43.3956C4.21094 47.5341 7.81676 51.3539 11.7641 54.8004C12.2057 55.1829 12.8066 54.4954 12.3605 54.1129Z" fill="#343A46"/>
<path d="M14.2043 61.4067C11.2359 58.37 8.26746 55.3333 5.29903 52.3011C4.88927 51.8822 4.29286 52.5697 4.70261 52.9886C7.67104 56.0253 10.6395 59.062 13.6079 62.0942C14.0131 62.5131 14.6095 61.8256 14.2043 61.4067Z" fill="#343A46"/>
<path d="M15.3198 74.4142C12.1238 71.2318 9.09159 67.89 6.23242 64.4026C5.85909 63.9473 5.2217 64.5983 5.59047 65.0445C8.44964 68.532 11.4864 71.8737 14.6779 75.0561C15.0922 75.475 15.7387 74.8285 15.3198 74.4142Z" fill="#343A46"/>
<path d="M26.5698 96.7273C24.1249 94.4509 21.5936 92.2746 18.9757 90.2031C18.5159 89.8389 18.0014 90.5901 18.4567 90.9543C21.0154 92.9758 23.4921 95.1019 25.8778 97.3237C26.3057 97.7152 26.9978 97.1279 26.5698 96.7273Z" fill="#343A46"/>
<path d="M93.5599 70.6124C93.7556 70.4622 93.874 70.2118 93.8148 69.9068C93.4369 67.9855 92.7859 66.1416 91.8935 64.4024C91.8389 64.2931 91.766 64.2157 91.6841 64.1611C91.889 63.9972 92.0073 63.724 91.9345 63.4418C91.7205 62.604 90.9875 61.9712 90.3319 61.4567C89.6353 60.915 88.8705 60.5006 88.0555 60.1592C87.0175 59.7312 85.9293 59.4489 84.8321 59.2395C84.8959 59.1576 84.9505 59.0711 84.996 58.9755C85.5332 57.8919 84.222 57.6233 83.4708 57.5049C81.7544 57.2408 80.0289 57.2135 78.3125 57.4138C78.3262 57.2909 78.3125 57.1589 78.2396 57.0223C77.584 55.7293 76.241 55.0691 74.9798 54.5C74.3242 54.2041 73.655 53.9218 72.9903 53.6487C72.1161 53.1387 71.2056 52.7108 70.2039 52.5651C70.1948 52.5605 70.1903 52.5605 70.1812 52.556V52.5605C70.122 52.5514 70.0628 52.5378 69.9991 52.5332C69.99 52.5332 69.9854 52.5332 69.9763 52.5332C69.4254 52.169 68.6787 53.0249 69.1704 53.6441C69.2296 53.7215 69.2888 53.7989 69.3435 53.8763C69.2023 53.8581 69.0566 53.8399 68.9155 53.8217C67.3129 53.0614 65.4781 53.2981 63.6889 53.1843C63.2381 53.1296 62.7829 53.075 62.3321 53.0204C61.5718 52.9293 61.3988 54.2132 62.15 54.3635C62.2684 54.3862 62.3913 54.4044 62.5097 54.4226C62.191 54.45 61.8723 54.4727 61.5536 54.5046C61.326 54.5319 61.1484 54.623 61.03 54.7641C59.1269 55.1056 57.3422 55.9524 55.8899 57.2272C54.8837 57.8919 54.0506 58.7888 53.4633 59.8541C53.3221 60.1091 53.3676 60.3868 53.5133 60.5917C48.6236 63.5783 42.8188 64.9943 37.0868 64.58C36.9821 64.5709 36.8956 64.5845 36.8182 64.6118C34.2868 63.7741 31.7008 62.8681 29.3789 61.5523C26.7929 59.3124 24.2069 57.0724 21.6163 54.8324C21.3113 54.5683 20.7468 54.5501 20.5419 54.969C20.3233 55.4197 20.3051 55.8477 20.3962 56.2847C20.3916 56.2984 20.3825 56.3075 20.3825 56.3212C19.9227 58.2789 20.3461 60.3641 20.7149 62.3036C20.8333 62.9273 20.9698 63.551 21.1155 64.1657C21.0563 64.1611 20.9926 64.1611 20.9289 64.1748C20.2232 64.3068 20.0957 65.0261 20.0456 65.6271C19.9773 66.4102 19.9864 67.1978 20.0593 67.9764C20.2095 69.5425 20.5874 71.0723 21.152 72.5383C21.9305 74.5552 23.0186 76.4173 24.2342 78.1929C22.4358 77.7467 20.856 76.5539 19.3991 75.4475C18.7435 74.9513 18.1016 75.9711 18.5705 76.522C18.7116 76.6859 18.8619 76.8361 19.0121 76.9909C18.9575 77.1139 18.9347 77.255 18.9666 77.4143C19.6632 81.1249 21.1747 84.6897 23.3965 87.7447C23.9246 88.4731 24.4846 89.1879 25.1493 89.7934C25.8004 90.3853 26.5379 90.8497 27.3074 91.264C27.3574 91.3505 27.4303 91.4279 27.5304 91.4871C29.0556 92.384 30.6537 93.1443 32.3018 93.7908C33.226 94.2461 34.1639 94.6695 35.1473 95.0019C37.8972 95.9261 40.9385 96.008 43.8022 96.3222C44.0981 96.354 44.3849 96.0854 44.4623 95.8214C44.8766 94.3599 45.4184 92.944 46.0649 91.5781C46.115 91.5372 46.1605 91.4962 46.2015 91.437C47.8132 89.2835 49.4249 87.1346 51.0321 84.9811C51.196 84.7671 51.1413 84.3255 50.9273 84.1525C50.5768 83.8793 50.249 83.5788 49.9758 83.2328C49.8529 83.0826 49.7436 82.9187 49.6434 82.7502C49.6525 82.7684 49.4021 82.3541 49.393 82.3906C49.4204 82.2585 50.2353 81.9763 50.3355 81.9262C50.6815 81.7486 51.0184 81.5528 51.3416 81.3389C52.1839 80.7834 52.9351 80.1142 53.5998 79.372C54.9156 81.5847 57.2603 82.9915 59.3091 84.4621C61.9224 86.3333 64.4537 88.3229 66.6527 90.6767C67.0443 91.0955 67.5861 90.8315 67.7545 90.4172C69.4664 89.4884 71.4651 89.2607 73.3727 89.024C75.4442 88.769 77.5203 88.5733 79.5827 88.2728C81.6406 87.9723 83.6894 87.5534 85.6562 86.866C85.8747 86.7886 86.4484 86.4744 86.5349 86.7658C86.6396 87.1118 86.1115 87.6172 85.9385 87.8676C85.6061 88.3456 85.3876 88.9284 85.4604 89.4929C84.8822 89.8344 84.3632 90.3443 84.2038 90.9817C83.9671 91.9469 84.8731 92.4841 85.7199 92.2474C86.5986 92.0015 87.4136 91.1456 88.0464 90.5264C88.8204 89.7616 89.5079 88.9193 90.1817 88.0634C90.8464 87.2211 91.5339 86.3788 92.0574 85.4409C92.6038 84.4666 92.927 83.4013 93.1638 82.3177C93.6327 80.187 93.965 78.0108 94.0379 75.83C94.0925 74.0953 93.9559 72.3243 93.5599 70.6124Z" fill="#DF7FFF"/>
<path d="M49.8985 86.3242C49.8029 85.5047 49.557 84.7034 49.2292 83.9476C48.9788 83.3694 48.7239 82.6911 48.3323 82.2085C47.3899 81.0475 48.6237 80.0641 49.3886 79.2673C49.9076 78.7256 50.7954 77.5555 49.9941 76.9682C49.1063 76.3171 47.6175 76.4674 46.6159 76.6495C45.7327 76.8088 45.2728 75.7344 46.0149 75.2199C46.707 74.7373 47.4673 74.364 48.1866 73.9269C48.4416 73.7721 48.7057 73.6127 48.9561 73.4306C46.9892 73.376 44.9997 73.895 43.042 73.4079C42.3408 73.2349 42.3363 72.3471 42.8553 71.9783C44.1938 71.0268 45.6234 70.2118 46.9665 69.2648C48.1274 68.4453 49.2748 67.4983 50.0169 66.2691C50.3082 65.7865 50.5951 65.1992 50.6178 64.6665C50.6087 64.6619 50.586 64.6528 50.5268 64.6392C50.3401 64.6027 50.1944 64.5936 49.9804 64.5982C48.5326 64.6255 47.1031 65.0398 45.678 65.2356C44.7219 65.3676 43.775 65.3949 42.8189 65.2401C41.8992 65.0944 41.0205 64.7393 40.0872 64.7166C39.9597 64.712 39.8504 64.6847 39.7548 64.6392C38.867 64.6619 37.9792 64.6483 37.0914 64.5845C36.9867 64.5754 36.9002 64.5891 36.8228 64.6164C34.2915 63.7787 31.7055 62.8727 29.3835 61.5569C26.7975 59.3169 24.2115 57.0769 21.621 54.837C21.3159 54.5729 20.7514 54.5547 20.5465 54.9735C20.328 55.4243 20.3098 55.8522 20.4008 56.2893C20.3963 56.303 20.3872 56.3121 20.3872 56.3257C19.9273 58.2834 20.3507 60.3686 20.7195 62.3081C20.8379 62.9319 20.9745 63.5556 21.1202 64.1702C21.061 64.1657 20.9972 64.1657 20.9335 64.1793C20.2278 64.3114 20.1003 65.0307 20.0503 65.6317C19.982 66.4148 19.9911 67.2024 20.0639 67.9809C20.2142 69.5471 20.592 71.0768 21.1566 72.5428C21.9351 74.5597 23.0232 76.4218 24.2388 78.1974C22.4405 77.7513 20.8607 76.5584 19.4038 75.4521C18.7482 74.9558 18.1062 75.9757 18.5752 76.5265C18.7163 76.6904 18.8665 76.8407 19.0168 76.9955C18.9621 77.1184 18.9394 77.2596 18.9712 77.4189C19.6678 81.1294 21.1794 84.6943 23.4011 87.7492C23.9293 88.4777 24.4893 89.1925 25.154 89.798C25.805 90.3899 26.5426 90.8542 27.312 91.2686C27.3621 91.3551 27.4349 91.4324 27.5351 91.4916C29.0603 92.3885 30.6583 93.1489 32.3064 93.7954C33.2307 94.2506 34.1685 94.674 35.1519 95.0064C37.9018 95.9306 40.9431 96.0126 43.8068 96.3267C44.1028 96.3586 44.3896 96.09 44.467 95.8259C44.8813 94.3645 45.4231 92.9485 46.0696 91.5827C46.1197 91.5417 46.1652 91.5007 46.2062 91.4416C47.4491 89.7798 48.692 88.118 49.9349 86.4562C49.9167 86.4244 49.9076 86.3743 49.8985 86.3242Z" fill="#9E5AED"/>
<path d="M74.1102 99.1449C73.3772 97.7017 72.0933 96.6363 70.5955 96.1264C70.9369 95.7121 70.7685 94.9563 70.1174 94.9836C68.6878 95.0474 67.7727 96.1719 67.1217 97.3374C66.548 98.3618 65.9926 99.4135 65.5464 100.506C65.3187 100.638 65.0957 100.77 64.868 100.898C64.4446 101.144 64.4036 101.845 64.868 102.077C64.909 102.1 64.95 102.122 64.9955 102.145C64.9727 102.651 65.5327 102.91 65.9652 102.728C67.0761 103.497 67.9912 104.504 68.6605 105.701C69.002 106.316 69.908 106.011 69.9353 105.355C69.9808 104.126 69.7805 102.91 69.3616 101.767C69.5802 101.908 69.7805 102.063 69.9353 102.154L71.6745 103.206C72.2709 103.566 72.931 102.855 72.6078 102.273C72.1616 101.462 71.6608 100.688 71.119 99.9416C71.8657 99.9325 72.6078 99.9917 73.3453 100.147C73.9372 100.269 74.3879 99.6867 74.1102 99.1449Z" fill="#DF7FFF"/>
<path d="M69.3572 102.637C69.2525 102.487 69.1296 102.373 68.9475 102.323C68.7836 102.277 68.565 102.3 68.4193 102.391C68.2828 102.482 68.1689 102.628 68.1143 102.792C67.9595 102.81 67.8093 102.874 67.7091 102.983C67.4405 103.274 67.4587 103.657 67.7091 103.948C67.741 103.985 67.7728 104.021 67.8002 104.057C67.8502 104.126 67.9003 104.194 67.9458 104.267C68.0415 104.408 68.128 104.558 68.2054 104.708C68.2463 104.786 68.2828 104.863 68.3192 104.945C68.3328 104.982 68.3465 105.018 68.3602 105.055C68.4239 105.223 68.474 105.391 68.5149 105.564C68.5832 105.842 68.8837 106.079 69.1751 106.065C69.4801 106.052 69.7488 105.86 69.8353 105.564C70.1175 104.59 69.9491 103.466 69.3572 102.637Z" fill="#DF7FFF"/>
<path d="M72.5486 101.845C72.1343 101.435 71.7155 101.025 71.3012 100.615C71.1737 100.492 70.9961 100.415 70.8186 100.415C70.6501 100.415 70.4498 100.488 70.336 100.615C70.2176 100.747 70.1265 100.916 70.1356 101.098C70.1447 101.28 70.2039 101.453 70.336 101.581L71.5834 102.81C71.7109 102.933 71.8885 103.01 72.066 103.01C72.2345 103.01 72.4348 102.937 72.5486 102.81C72.667 102.678 72.7581 102.509 72.749 102.327C72.7398 102.145 72.6807 101.972 72.5486 101.845Z" fill="#DF7FFF"/>
<path d="M74.1056 99.4091C74.0054 98.7672 73.6549 98.148 73.1814 97.7064C72.9219 97.4605 72.6259 97.2602 72.2981 97.1236C71.9794 96.987 71.5924 97.119 71.424 97.4241C71.3147 97.6153 71.3102 97.8429 71.3876 98.0478C71.3102 98.1025 71.2419 98.1753 71.2009 98.2527C71.1189 98.4121 71.0734 98.6033 71.1326 98.7808C71.1781 98.922 71.2646 99.0722 71.3967 99.1542C71.3785 99.2179 71.3648 99.2771 71.3694 99.3408C71.3785 99.5184 71.4331 99.7005 71.5697 99.8234C71.6972 99.9418 71.8747 100.037 72.0523 100.024C72.2936 100.001 72.5349 99.9828 72.7716 99.96C72.8809 100.037 72.9993 100.106 73.1085 100.188C73.1632 100.21 73.2178 100.233 73.2724 100.256C73.3316 100.265 73.3954 100.274 73.4545 100.279C73.6048 100.279 73.7505 100.224 73.8688 100.133C73.9645 100.06 74.0328 99.9737 74.0783 99.8599C74.1375 99.7051 74.1329 99.573 74.1056 99.4091Z" fill="#DF7FFF"/>
<path d="M71.0825 95.3341C71.0506 95.2202 70.9914 95.1155 70.9049 95.0336L70.7684 94.9289C70.6636 94.8651 70.5453 94.8378 70.4223 94.8333C70.3085 94.8333 70.1993 94.8515 70.0854 94.8697C70.0308 94.8788 69.9762 94.8924 69.9215 94.9107C69.8669 94.9289 69.8168 94.9516 69.7667 94.9698C69.7167 94.9926 69.6666 95.0108 69.6165 95.0381C69.5664 95.0655 69.5163 95.0928 69.4708 95.1292C69.3934 95.1702 69.3251 95.2294 69.2796 95.3067C69.2204 95.375 69.1794 95.4479 69.1567 95.5389C69.1293 95.63 69.1248 95.7211 69.143 95.8121C69.1476 95.9032 69.1749 95.9897 69.225 96.0671C69.2614 96.1126 69.2978 96.1581 69.3297 96.2037C69.4162 96.2902 69.5163 96.3448 69.6302 96.3812C69.6893 96.3903 69.7531 96.3994 69.8123 96.404C69.9352 96.404 70.049 96.3721 70.1583 96.3129C70.1993 96.281 70.2448 96.2628 70.2903 96.2355C70.3267 96.2219 70.3677 96.2128 70.4041 96.2037C70.4087 96.2037 70.4132 96.2037 70.4178 96.2037C70.5134 96.2082 70.5999 96.1854 70.6818 96.1445C70.7684 96.1171 70.8412 96.0716 70.9004 96.0033C70.9687 95.9396 71.0142 95.8668 71.0415 95.7848C71.0825 95.7029 71.1053 95.6163 71.1007 95.5207C71.0962 95.457 71.0916 95.3933 71.0825 95.3341Z" fill="#DF7FFF"/>
<path d="M73.8281 47.4934C73.1907 46.4189 72.5488 45.3444 71.9114 44.27C71.7839 44.0606 71.5016 43.9832 71.2876 44.1061C71.0782 44.229 70.9963 44.5158 71.1237 44.7298C71.7611 45.8043 72.4031 46.8787 73.0405 47.9532C73.1679 48.1626 73.4502 48.24 73.6642 48.1171C73.8782 47.9942 73.9556 47.7074 73.8281 47.4934Z" fill="#343A46"/>
<path d="M79.651 53.1569C77.8754 50.061 76.2728 46.865 74.8524 43.5915C74.6202 43.0543 73.8371 43.5186 74.0647 44.0513C75.4852 47.3293 77.0878 50.5209 78.8634 53.6168C79.1548 54.1221 79.9424 53.6623 79.651 53.1569Z" fill="#343A46"/>
<path d="M77.0469 42.0847C76.5325 41.0011 76.018 39.9221 75.5081 38.8385C75.4034 38.6154 75.0847 38.5608 74.8843 38.6746C74.6567 38.8067 74.6157 39.0753 74.7204 39.2984C75.2349 40.3819 75.7494 41.4609 76.2593 42.5445C76.364 42.7676 76.6827 42.8222 76.883 42.7084C77.1107 42.5764 77.1562 42.3078 77.0469 42.0847Z" fill="#343A46"/>
<path d="M43.7977 52.9976C42.8234 51.8639 41.8491 50.7257 40.8793 49.592C40.72 49.4054 40.4013 49.4281 40.2374 49.592C40.0507 49.7787 40.078 50.0473 40.2374 50.234L43.1557 53.6395C43.3151 53.8262 43.6338 53.8034 43.7977 53.6395C43.9843 53.4574 43.9616 53.1842 43.7977 52.9976Z" fill="#343A46"/>
<path d="M142.211 59.1441C134.294 59.0576 126.377 58.9666 118.459 58.8801C119.734 54.0222 120.672 49.087 121.273 44.1016C121.341 43.5234 120.431 43.528 120.362 44.1016C119.748 49.2008 118.764 54.2498 117.435 59.2079C117.358 59.4947 117.576 59.7815 117.872 59.7861C125.985 59.8771 134.098 59.9682 142.207 60.0592C142.799 60.0638 142.799 59.1532 142.211 59.1441Z" fill="#151921"/>
<path d="M146.045 43.2502C138.441 43.059 128.53 43.3503 120.927 43.5825C120.344 43.6008 120.34 44.5113 120.927 44.4931C128.339 44.2655 138.059 43.9741 145.471 44.1516C144.296 49.2053 143.122 54.2543 141.947 59.308C141.815 59.8771 142.694 60.1229 142.826 59.5493C144.046 54.309 145.262 49.0687 146.482 43.8284C146.555 43.5325 146.35 43.2547 146.045 43.2502Z" fill="#151921"/>
<path d="M146.395 64.735C141.815 64.6849 137.235 64.6348 132.65 64.5802C133.388 61.7711 133.93 58.912 134.28 56.03C134.321 55.6931 133.793 55.6977 133.752 56.03C133.397 58.9802 132.828 61.9032 132.059 64.7714C132.013 64.9399 132.141 65.1038 132.314 65.1038C137.008 65.1584 141.701 65.2085 146.395 65.2586C146.732 65.2677 146.732 64.7395 146.395 64.735Z" fill="#151921"/>
<path d="M146.4 65.4908H146.395L132.313 65.336C132.163 65.336 132.018 65.2632 131.926 65.1402C131.835 65.0173 131.804 64.8625 131.84 64.7168C132.609 61.8486 133.178 58.9166 133.529 56.0073C133.552 55.8252 133.666 55.675 133.834 55.6021C134.007 55.5293 134.203 55.5475 134.339 55.6522C134.467 55.7478 134.526 55.898 134.508 56.0665C134.171 58.8619 133.643 61.6528 132.946 64.3663L146.4 64.5165C146.577 64.5165 146.728 64.6076 146.814 64.7578C146.905 64.9172 146.901 65.1175 146.81 65.2723C146.719 65.4089 146.573 65.4908 146.4 65.4908ZM134.053 56.0028C134.048 56.0028 134.025 56.0073 134.007 56.0164C133.989 56.0255 133.984 56.0392 133.98 56.0574C133.625 58.9894 133.051 61.9396 132.277 64.8307L132.313 64.8762L146.395 65.031C146.418 65.0219 146.423 64.9946 146.414 64.9718L146.391 64.9581L132.354 64.8033L132.427 64.5211C133.16 61.7438 133.707 58.8756 134.053 56.0028Z" fill="#151921"/>
<path d="M148.613 55.5336C144.215 55.4198 138.478 55.5928 134.08 55.7248C133.743 55.7339 133.739 56.262 134.08 56.2529C138.369 56.1209 143.996 55.9524 148.285 56.0526C147.606 58.9755 146.928 61.8984 146.245 64.8213C146.168 65.1491 146.678 65.2903 146.755 64.9625C147.461 61.9303 148.166 58.8981 148.868 55.8659C148.909 55.6975 148.79 55.5381 148.613 55.5336Z" fill="#151921"/>
<path d="M146.518 65.3813C146.386 65.3813 146.259 65.3313 146.159 65.2402C146.031 65.1218 145.981 64.9488 146.022 64.7713L147.998 56.2757C143.691 56.1847 138.155 56.3531 134.085 56.4806C133.811 56.476 133.607 56.2894 133.597 56.0116C133.588 55.7248 133.793 55.5063 134.071 55.4972C138.055 55.3742 144.069 55.1921 148.617 55.306C148.767 55.3105 148.904 55.3788 148.995 55.4972C149.086 55.6155 149.123 55.7703 149.086 55.9206L146.974 65.0171C146.933 65.1856 146.819 65.313 146.659 65.3586C146.619 65.3768 146.568 65.3813 146.518 65.3813ZM145.335 55.7977C146.364 55.7977 147.356 55.8068 148.285 55.8295L148.563 55.8341L146.459 64.876C146.486 64.9261 146.514 64.9306 146.523 64.9261L148.64 55.8159L148.604 55.7612C144.073 55.6474 138.059 55.8295 134.085 55.9525C134.048 55.9889 134.053 56.0162 134.057 56.0253C137.34 55.9251 141.565 55.7977 145.335 55.7977Z" fill="#151921"/>
<path d="M134.449 56.4715C138.478 56.3486 143.818 56.1938 147.998 56.2803L146.086 64.5072L132.942 64.3615C133.606 61.7755 134.107 59.1258 134.449 56.4715Z" fill="#343A46"/>
<path d="M139.129 45.8408C136.538 45.9455 133.948 46.0047 131.353 46.0138C130.766 46.0183 130.766 46.9289 131.353 46.9243C133.943 46.9152 136.538 46.856 139.129 46.7513C139.716 46.7286 139.716 45.818 139.129 45.8408Z" fill="#343A46"/>
<path d="M137.422 50.1751C132.577 50.1933 127.738 50.2115 122.894 50.2342C122.306 50.2388 122.306 51.1494 122.894 51.1448C127.738 51.1266 132.577 51.1084 137.422 51.0856C138.009 51.0811 138.009 50.1705 137.422 50.1751Z" fill="#343A46"/>
<path d="M125.889 52.2508C124.751 52.1552 123.608 52.1689 122.47 52.2964C122.224 52.3237 122.015 52.4876 122.015 52.7517C122.015 52.9747 122.224 53.2342 122.47 53.2069C123.604 53.0795 124.751 53.0612 125.889 53.1614C126.135 53.1842 126.345 52.9383 126.345 52.7061C126.345 52.4421 126.135 52.2736 125.889 52.2508Z" fill="#343A46"/>
<path d="M111.826 52.0506C110.847 59.6401 109.868 67.2297 108.889 74.8238C108.607 77.0046 108.329 79.1808 108.047 81.3616C107.974 81.9398 108.885 81.9353 108.957 81.3616C109.936 73.7721 110.915 66.1825 111.894 58.5884C112.176 56.4076 112.454 54.2314 112.736 52.0506C112.814 51.4724 111.903 51.4769 111.826 52.0506Z" fill="#343A46"/>
<path d="M127.237 67.1114C123.258 71.901 119.402 76.7907 115.682 81.7851C115.332 82.2541 116.083 82.7731 116.429 82.3042C120.148 77.3143 124.005 72.42 127.984 67.6305C128.362 67.1752 127.61 66.6607 127.237 67.1114Z" fill="#343A46"/>
<path d="M88.4287 80.2279C87.6547 82.0946 86.2798 83.7381 84.5861 84.7944C82.7104 85.9645 80.5387 86.3241 78.3943 86.2968C73.7322 86.2422 68.9427 84.9355 64.9043 82.6181C61.2575 80.5284 58.0842 77.2367 57.5288 72.7932C57.2465 70.5304 57.7792 68.2358 59.1496 66.3874C59.8006 65.5087 60.6019 64.7666 61.4988 64.1793C62.4686 63.5464 63.5886 63.0456 64.7131 62.818C65.7375 62.6222 70.5453 61.9347 74.9524 65.0671C74.8295 65.3266 74.9296 65.6999 75.2893 65.7181C79.1501 65.9093 83.1383 66.8654 86.0704 69.547C86.0795 69.5561 86.0795 69.5652 86.0886 69.5743C88.9295 72.1922 89.963 76.5265 88.4287 80.2279Z" fill="white"/>
<path d="M86.7034 79.7045C85.9522 81.5757 84.6637 83.2466 83.1112 84.3438C81.3903 85.5594 79.428 85.9828 77.5022 86.0238C73.3136 86.1103 69.0476 84.963 65.4919 82.7959C62.2821 80.8382 59.5322 77.6739 59.168 73.2896C58.9813 71.0542 59.5322 68.7641 60.8207 66.8929C61.4307 66.0051 62.1774 65.2402 63.0015 64.6347C63.8938 63.9791 64.9136 63.4464 65.9335 63.1869C66.8577 62.9638 71.2011 62.1307 75.0619 65.0991C74.9435 65.3586 75.0209 65.7274 75.3441 65.7365C78.8043 65.8048 82.36 66.6334 84.9142 69.1966C84.9233 69.2057 84.9233 69.2148 84.9324 69.2239C87.4045 71.728 88.1967 75.9894 86.7034 79.7045Z" fill="#FCFA9C"/>
<path d="M89.4487 77.6374C89.772 74.241 88.1421 71.0085 85.5424 68.8869C84.1037 67.7123 82.4374 66.9656 80.6937 66.3692C79.8013 66.0642 78.909 65.7728 77.9711 65.6453C76.9695 65.5087 75.9588 65.5497 74.9526 65.6134C74.3744 65.6498 74.3425 66.5604 74.9298 66.524C75.8313 66.4648 76.7418 66.4193 77.6388 66.5149C78.4947 66.6059 79.3142 66.8609 80.1291 67.1341C81.7818 67.6895 83.3707 68.3497 84.7593 69.4196C87.2816 71.3591 88.8432 74.4049 88.5336 77.6146C88.479 78.1974 89.3895 78.2202 89.4487 77.6374Z" fill="white"/>
<path d="M75.2165 64.9806C74.0601 64.0746 72.6988 63.5601 71.2965 63.164C69.8214 62.7452 68.2871 62.4811 66.7528 62.4902C64.135 62.5084 61.4807 63.4281 59.7051 65.4086C59.3135 65.8456 59.9691 66.4785 60.3607 66.0414C61.9906 64.2248 64.3854 63.419 66.7802 63.4008C68.1323 63.3917 69.4754 63.6148 70.7775 63.9653C72.1161 64.325 73.4773 64.7712 74.5791 65.6362C75.0435 65.9913 75.6809 65.3403 75.2165 64.9806Z" fill="white"/>
<path d="M63.3929 54.9509C63.4339 54.6003 63.229 54.318 62.8967 54.2042C61.3487 53.6806 59.605 54.3408 58.2528 55.1056C56.9325 55.8523 55.8125 56.8995 54.9383 58.1333C54.7244 58.4338 54.8837 58.8936 55.1796 59.0666C55.2616 59.1121 55.3435 59.1394 55.4255 59.1531C55.5848 59.235 55.7715 59.2624 55.9354 59.2168C56.2086 59.144 56.3634 58.9346 56.4089 58.6887C56.4317 58.6568 56.4817 58.5703 56.4863 58.5612C56.5364 58.4884 56.5865 58.4155 56.6411 58.3473C56.7094 58.2562 56.7868 58.1651 56.8642 58.0786C57.0736 57.8373 57.3012 57.6051 57.5425 57.3912C58.016 56.9677 58.5442 56.6172 59.1042 56.3304C60.2242 55.7567 61.4671 55.4926 62.7191 55.5473C63.0651 55.5655 63.3565 55.2741 63.3929 54.9509Z" fill="#DF7FFF"/>
<path d="M69.8306 53.3207C67.2309 52.5194 64.4628 52.4284 61.8085 53.0293C60.9526 53.2206 61.3123 54.5409 62.1682 54.3451C64.5903 53.7988 67.1034 53.9126 69.4754 54.641C70.3177 54.896 70.6683 53.5757 69.8306 53.3207Z" fill="#DF7FFF"/>
<path d="M78.0165 56.5352C77.0604 55.4835 75.8039 54.8006 74.5063 54.2543C73.013 53.6214 71.4787 53.1069 69.9034 52.7063C69.052 52.4923 68.6969 53.8081 69.5483 54.0266C71.0006 54.3954 72.4302 54.8552 73.8143 55.4334C75.0026 55.9342 76.1635 56.5307 77.0422 57.5004C77.6386 58.1469 78.6038 57.1863 78.0165 56.5352Z" fill="#E7BCFA"/>
<path d="M91.4656 61.6708C89.3213 59.968 86.708 59.1941 84.1037 58.4838C83.2569 58.2516 82.9018 59.5719 83.7486 59.8041C86.0888 60.4415 88.5564 61.0971 90.4913 62.636C90.7782 62.8636 91.1743 62.9228 91.4565 62.6405C91.6978 62.4038 91.7525 61.903 91.4656 61.6708Z" fill="#E7BCFA"/>
<path d="M94.2246 70.3074C93.874 67.0567 92.4171 63.9926 90.0724 61.7117C89.4396 61.0971 88.4698 62.0577 89.1027 62.6723C91.1833 64.6983 92.5491 67.4255 92.8587 70.321C92.8997 70.6853 93.1501 70.9994 93.5462 70.9994C93.8877 70.9949 94.2656 70.6762 94.2246 70.3074Z" fill="#E7BCFA"/>
<path d="M92.9086 70.107C92.6491 69.2693 91.3334 69.6244 91.5929 70.4667C92.7539 74.2319 92.4943 78.2383 91.256 81.9489C90.6004 83.9157 89.6716 85.7869 88.5744 87.5443C87.5272 89.2197 86.3207 90.7768 84.791 92.0379C84.1126 92.5979 85.0778 93.5631 85.7516 93.0077C87.3633 91.6737 88.6472 89.9983 89.749 88.2318C90.91 86.3697 91.8752 84.3801 92.5717 82.2949C93.8829 78.384 94.1334 74.0862 92.9086 70.107Z" fill="#E7BCFA"/>
<path d="M87.1357 85.0313C84.5543 86.989 81.3946 87.5125 78.2395 87.6036C78.3397 87.2121 78.0802 86.7522 77.593 86.7386C75.0708 86.6612 68.2325 88.2865 66.639 90.7769C66.1655 91.519 70.2129 89.8481 70.9687 89.3929C72.3345 88.5642 73.9645 88.4504 75.5215 88.2273C75.4896 88.5916 75.7446 88.9694 76.1908 88.9785C80.2064 89.0423 84.5042 88.7281 87.8232 86.215C88.5107 85.6914 87.8369 84.5031 87.1357 85.0313Z" fill="#DF7FFF"/>
<path d="M59.3319 83.1054C57.488 81.9399 55.5667 80.7425 54.2919 78.9351C53.8594 79.3949 53.3905 79.8046 52.8896 80.1734C53.09 80.3646 53.2994 80.5559 53.5088 80.7425C53.8366 81.0294 53.8412 81.0885 54.0779 80.8199C55.2161 82.0264 56.5956 82.9871 58.0025 83.884C59.9966 85.1496 62.965 86.7204 64.3354 88.7054C64.8317 89.4247 67.1217 92.0381 67.0626 91.1594C66.7757 87.0345 61.3397 84.3711 59.3319 83.1054Z" fill="#DF7FFF"/>
<path d="M86.298 96.3087C86.9172 96.896 87.5228 97.4969 88.1192 98.1025C88.3058 98.2937 88.4925 98.4895 88.6792 98.6852C88.8613 98.2299 89.0571 97.7792 89.271 97.3421C88.7384 96.7958 88.2011 96.2495 87.6548 95.7168C86.248 94.3601 84.7911 93.058 83.2886 91.8105C82.6148 91.255 81.1261 91.2596 81.8044 91.8196C83.1657 92.9532 85.0096 95.084 86.298 96.3087Z" fill="#FFBF24"/>
<path d="M84.8593 89.2562C85.2691 88.9056 85.6106 88.4731 85.8473 87.9768C86.0977 87.4533 85.3146 86.9889 85.0597 87.517C84.5953 88.4913 83.7485 89.115 82.6831 89.288C82.1914 89.3654 82.3098 90.0302 82.6877 90.1667C82.8015 90.2077 82.9199 90.2441 83.0337 90.2715C82.2597 90.4035 81.3901 90.2532 80.6753 90.1076C79.4233 89.8526 78.1713 89.6204 76.9056 89.4702C74.4015 89.1788 71.8201 89.2607 69.4435 90.1667C68.9018 90.3716 69.134 91.2549 69.6848 91.0454C72.3209 90.0438 75.1664 90.0939 77.9163 90.5173C80.2246 90.8724 83.4707 92.211 85.2099 89.9437C85.4057 89.6841 85.1553 89.2881 84.8593 89.2562Z" fill="#FFBF24"/>
<path d="M84.1948 107.426C84.1675 107.322 84.0855 107.208 83.9854 107.153C83.8807 107.099 83.7532 107.071 83.6348 107.108C83.5164 107.144 83.4345 107.212 83.3616 107.317C83.1477 107.627 82.9291 107.941 82.7151 108.25C82.6514 108.341 82.6377 108.496 82.6696 108.601C82.7015 108.706 82.7789 108.82 82.879 108.874C82.9838 108.929 83.1112 108.956 83.2296 108.92C83.348 108.883 83.4299 108.81 83.5028 108.71C83.7168 108.401 83.9353 108.087 84.1493 107.777C84.213 107.686 84.2267 107.531 84.1948 107.426Z" fill="#FFBF24"/>
<path d="M65.8697 90.0757C63.8027 87.7811 60.7979 86.866 57.9341 86.0146C55.726 85.359 52.2067 84.4621 51.2643 82.0673C51.369 82.1675 51.4737 82.2677 51.583 82.3633C52.0291 82.7457 52.6165 82.172 52.2295 81.7213C52.0246 81.4846 51.8698 81.216 51.7605 80.9382C51.2597 81.2478 50.7453 81.5346 50.2217 81.8124C50.8454 84.4075 53.8457 85.6823 56.2177 86.4426C59.3819 87.4579 62.8921 88.1362 65.2141 90.7131C65.6147 91.1502 66.2612 90.5082 65.8697 90.0757Z" fill="#FFBF24"/>
<path d="M51.0731 83.6516C50.8955 83.6106 50.7271 83.5605 50.5677 83.4877C50.5723 83.4422 50.5723 83.3966 50.5768 83.3511C50.6725 82.5407 49.7437 82.3267 49.1746 82.6136C48.6738 82.5407 48.1092 82.5999 47.6539 82.5953C48.9788 81.8578 50.1352 80.8744 50.9046 79.4949C51.2598 78.8575 51.7241 77.9651 51.369 77.2503C51.0139 76.5401 50.2718 76.4263 49.5525 76.399C48.6191 76.3671 47.6858 76.3398 46.7525 76.3125L47.6357 75.7206C48.5144 75.1378 49.7482 74.5824 50.0396 73.4806C50.1853 72.9297 49.7619 72.306 49.1609 72.3288C47.8315 72.3788 46.5021 72.4335 45.1681 72.4836C44.558 72.5063 43.9434 72.5291 43.3333 72.5564C44.64 71.5639 46.0969 70.7717 47.4308 69.8156C49.1837 68.559 50.7271 67.0293 51.4373 64.9487C51.665 64.2839 50.9547 63.6465 50.3173 63.8287C46.2881 64.976 42.1086 65.3356 37.9428 64.9122C37.4511 64.8621 37.0322 65.3675 37.0322 65.8228C37.0322 66.3555 37.4511 66.6833 37.9428 66.7334C41.5714 67.0976 45.2455 66.8654 48.8058 66.0823C48.0364 67.1112 46.9801 67.9444 45.9239 68.6501C44.1301 69.8475 42.2179 70.8855 40.6972 72.4426C40.3649 72.7795 40.3285 73.3941 40.6972 73.731C41.7307 74.6689 43.224 74.3821 44.4988 74.332C45.1863 74.3047 45.8692 74.2774 46.5567 74.25C46.4201 74.3411 46.279 74.4322 46.1424 74.5278C45.2273 75.1378 44.3122 75.7479 43.4016 76.3534C42.6549 76.8497 42.9327 78.0243 43.8614 78.0516C44.9587 78.0835 46.0604 78.1154 47.1577 78.1473C47.6904 78.1609 48.2185 78.1791 48.7512 78.1928C49.0152 78.2019 49.2838 78.2064 49.5479 78.2155H49.5525C49.3749 78.6481 49.0243 79.0897 48.783 79.3765C48.3278 79.9183 47.786 80.3827 47.1941 80.7606C45.8146 81.6438 44.2348 82.1036 42.6641 82.518C41.6579 82.782 41.8855 84.2844 42.9054 84.3072C43.9525 84.33 44.9951 84.3527 46.0422 84.3755C46.5658 84.3846 47.0894 84.3983 47.6084 84.4074C47.8315 84.4119 48.0546 84.4165 48.2822 84.421C48.4325 84.4256 48.5827 84.4256 48.7284 84.4301C48.7466 84.4347 48.7512 84.4347 48.7648 84.4347C48.7876 84.6122 48.8195 84.7853 48.865 84.9583C45.8829 87.7719 44.0845 91.5234 42.5093 95.2567C42.5093 95.2567 42.5093 95.2613 42.5047 95.2613C42.4728 95.3341 42.441 95.407 42.4136 95.4798C42.0176 96.4222 43.6657 97.1279 44.08 96.1809C45.8601 92.088 48.3551 88.3501 51.4783 85.1586C51.9336 84.7033 51.756 83.8064 51.0731 83.6516Z" fill="#9E5AED"/>
<path d="M56.8733 57.7417C55.1296 59.4535 53.3631 61.1745 51.1322 62.2399C48.874 63.3143 46.2971 63.7468 43.8568 64.2112C43.8477 64.2112 43.8022 64.5846 43.7885 64.5846C41.6077 64.6028 39.8185 65.0125 37.6695 64.6802C35.9349 64.4116 33.8588 63.1322 32.238 62.4584C30.6218 61.7846 29.133 60.8467 27.7125 59.8314C26.0098 58.6158 24.3708 57.3137 22.709 56.0435C22.577 55.9433 22.3675 55.9069 22.1672 55.9251C22.108 55.7976 22.0625 55.6702 22.0306 55.5381C21.7666 54.3954 19.909 54.2497 20.1731 55.3924C20.3324 56.0799 20.8378 57.2682 21.2521 57.8282C21.7028 58.4383 22.1718 59.0301 22.668 59.6038C23.5968 60.6782 24.6166 61.6753 25.7093 62.5859C27.9538 64.4571 30.467 65.9732 33.1941 67.0385C36.0533 68.1585 39.2038 68.7504 42.2724 68.4453C45.3911 68.1357 48.2184 66.8519 50.9046 65.2993C53.7637 63.6421 56.4044 61.5888 58.3074 58.8526C58.9039 57.9784 57.5926 57.0314 56.8733 57.7417Z" fill="#DF7FFF"/>
<path d="M70.6366 54.327C67.7228 53.0249 64.422 52.8337 61.4035 53.9173C60.8662 54.1085 60.6705 54.6139 60.7979 55.0418C58.3895 55.5335 56.1814 56.8948 54.6699 58.9208C54.3739 59.3169 54.6061 59.9361 54.9977 60.1683C55.4621 60.4415 55.9492 60.2366 56.2451 59.8405C58.1072 57.341 61.5082 56.1436 64.5312 56.8402C65.6877 57.1088 66.102 55.4926 65.0138 55.0828C64.982 55.0691 64.9456 55.06 64.9137 55.0464C66.5481 54.9462 68.2008 55.2148 69.7169 55.8932C70.1676 56.0935 70.6958 56.0252 70.9644 55.5654C71.1875 55.183 71.0873 54.5274 70.6366 54.327Z" fill="#DF7FFF"/>
<path d="M77.7753 56.6033C75.5672 54.9233 73.0222 53.6986 70.336 52.9929C69.2023 52.6924 68.7197 54.4498 69.8534 54.7503C72.3984 55.4196 74.7613 56.5851 76.8556 58.1786C77.2472 58.4745 77.8755 58.2423 78.1031 57.8508C78.3763 57.3818 78.1714 56.9038 77.7753 56.6033Z" fill="#DF7FFF"/>
<path d="M67.5451 94.6194C63.9711 93.7271 60.3061 93.2445 56.6229 93.1762C55.7442 93.158 55.7442 94.5238 56.6229 94.542C60.1877 94.6058 63.7207 95.0747 67.1809 95.9352C68.0322 96.1492 68.3964 94.8334 67.5451 94.6194Z" fill="#FFBF24"/>
<path d="M66.3159 96.7775C65.9744 96.6637 65.633 96.5498 65.2915 96.436C65.1823 96.3996 65.0366 96.4269 64.941 96.4815C64.8453 96.5362 64.7543 96.6454 64.7315 96.7547C64.6723 97.0051 64.8089 97.2328 65.0502 97.3147C65.3917 97.4285 65.7331 97.5423 66.0746 97.6562C66.1839 97.6926 66.3296 97.6653 66.4252 97.6106C66.5208 97.556 66.6118 97.4467 66.6346 97.3375C66.6892 97.0871 66.5572 96.8594 66.3159 96.7775Z" fill="#FFBF24"/>
<path d="M65.519 98.5259C65.4598 98.4348 65.3597 98.3347 65.2459 98.3164C64.9454 98.2755 64.654 98.1935 64.3763 98.0751C64.4036 98.0842 64.4264 98.0979 64.4537 98.107C64.4036 98.0751 64.3444 98.0569 64.2852 98.0524C64.226 98.0387 64.1623 98.0433 64.1031 98.0615C63.9984 98.0888 63.8846 98.1707 63.8299 98.2709C63.7753 98.3756 63.748 98.5031 63.7844 98.6215C63.8163 98.7262 63.8891 98.8491 63.9938 98.8946C64.3171 99.0358 64.6494 99.145 65 99.1906C65.0592 99.2088 65.1229 99.2133 65.1821 99.1997C65.2413 99.1951 65.3005 99.1769 65.3506 99.145C65.4462 99.0904 65.5372 98.9811 65.56 98.8719C65.5919 98.7581 65.5828 98.626 65.519 98.5259Z" fill="#FFBF24"/>
<path d="M63.7707 102.104C63.7025 102 63.616 101.936 63.4976 101.895C63.1106 101.758 62.7236 101.622 62.3366 101.485C62.2319 101.449 62.0817 101.476 61.986 101.531C61.8904 101.585 61.7994 101.695 61.7766 101.804C61.7493 101.922 61.7538 102.05 61.8221 102.154C61.8904 102.259 61.9769 102.323 62.0953 102.364C62.4823 102.5 62.8693 102.637 63.2563 102.774C63.361 102.81 63.5112 102.783 63.6068 102.728C63.7025 102.673 63.7935 102.564 63.8163 102.455C63.8436 102.341 63.8345 102.209 63.7707 102.104Z" fill="#FFBF24"/>
<path d="M65.1912 94.1458C63.9437 97.4876 62.2228 100.634 60.0966 103.502C59.746 103.971 60.5382 104.426 60.8842 103.962C63.0605 101.03 64.7951 97.8063 66.0699 94.3917C66.2748 93.8408 65.3961 93.604 65.1912 94.1458Z" fill="#FF9501"/>
<path d="M84.0718 105.173C83.4116 104.572 82.7424 103.98 82.0685 103.393C81.0259 102.323 80.0516 101.175 78.8725 100.256C78.5811 100.028 78.1895 99.9735 77.9073 100.256C77.7161 100.447 77.6478 100.802 77.7752 101.057C77.7206 101.285 77.7661 101.544 77.9482 101.694C79.1411 102.66 80.302 103.661 81.4539 104.672C81.9638 105.182 82.492 105.664 83.0656 106.106C83.0747 106.115 83.0884 106.124 83.0975 106.138C83.143 106.174 83.1885 106.211 83.2341 106.247C83.5027 106.448 83.9306 106.32 84.1173 106.07C84.3222 105.81 84.3267 105.405 84.0718 105.173Z" fill="#FF9501"/>
<path d="M61.6764 104.189C58.4484 104.235 55.2433 103.857 52.1155 103.056C51.988 103.024 51.8651 103.033 51.7558 103.069C51.6465 103.015 51.5373 102.96 51.428 102.906C50.6495 102.496 49.962 103.675 50.7405 104.085C53.9275 105.76 57.333 106.98 60.866 107.677C61.3349 107.768 61.6809 107.481 61.731 107.017C61.7993 106.388 61.986 105.783 62.2728 105.218C62.4913 104.768 62.2182 104.18 61.6764 104.189Z" fill="#FF9501"/>
<path d="M52.9944 85.0539C52.0383 84.89 51.3781 85.4363 50.6952 86.0418C50.0897 86.5836 49.5251 87.1664 49.0016 87.7856C47.8861 89.0968 46.9346 90.5446 46.106 92.0515C45.2865 93.5403 44.3941 95.152 43.9252 96.7956C43.4972 98.298 43.7613 100.105 45.2318 100.925C45.6552 101.162 46.0513 100.911 46.197 100.565C46.6159 100.401 47.1349 100.902 46.7115 100.506C45.7554 99.6229 45.6279 97.2144 46.0468 96.0899C46.5203 94.8105 47.2851 93.5995 48.0181 92.4567C49.4978 90.1485 51.2825 88.0542 53.2994 86.1921C53.65 85.8688 53.5043 85.1404 52.9944 85.0539Z" fill="#FF9501"/>
<path d="M65.8926 92.5071C65.0867 90.0759 62.5644 89.2746 60.3381 88.6463C57.5882 87.8723 55.0113 86.6749 52.4572 85.4138C52.2523 85.3136 52.0566 85.3728 51.9291 85.5003C51.8335 85.5686 51.7743 85.6688 51.7743 85.7962C51.7561 85.9146 51.7925 86.0284 51.8927 86.1195C52.3798 87.0437 53.6592 87.5354 54.5652 87.9178C55.717 88.405 56.9144 88.7556 58.1118 89.1198C59.3046 89.484 60.5066 89.8528 61.6266 90.4128C62.9378 91.0638 64.0396 91.9972 65.1368 92.9533C65.4509 93.2264 66.0428 92.9669 65.8926 92.5071Z" fill="#FF9501"/>
<path d="M84.1264 92.0744C84.0354 92.088 83.9489 92.0972 83.8578 92.1063C83.7895 91.9469 83.6484 91.8103 83.4572 91.7876C81.3492 91.569 79.2458 91.2822 77.1561 90.9271C76.9421 90.8907 76.7782 90.9908 76.6826 91.132C76.1044 90.959 75.5125 90.8269 74.8842 90.7632C73.3044 90.5993 71.6699 90.6949 70.0992 90.9271C68.5922 91.1502 67.1672 91.6191 65.9561 92.557C65.4918 92.9167 66.1428 93.5541 66.5981 93.1989C67.8683 92.2155 69.4982 91.8695 71.0644 91.7147C72.7626 91.5508 74.5427 91.4825 76.2136 91.9014C78.8588 92.5615 81.9957 95.1202 84.5771 92.8302C84.9414 92.5069 84.5316 92.0061 84.1264 92.0744Z" fill="#FF9501"/>
<path d="M75.7265 81.0565C75.7128 80.9654 75.6764 80.8881 75.6218 80.8198C75.5808 80.7424 75.5216 80.6786 75.4442 80.6285C75.3896 80.6012 75.3349 80.5739 75.2803 80.5466C75.1619 80.5056 75.0436 80.4965 74.9252 80.5193L74.7613 80.5739C74.652 80.6285 74.5655 80.7014 74.4972 80.8015C74.4745 80.8289 74.4562 80.8562 74.4335 80.8835C74.3789 80.9609 74.3424 81.0428 74.3333 81.1385C74.306 81.225 74.306 81.316 74.3242 81.4071C74.3379 81.4981 74.3743 81.5755 74.4289 81.6438C74.4699 81.7212 74.5291 81.785 74.6065 81.835C74.6611 81.8623 74.7158 81.8897 74.7704 81.917C74.8888 81.958 75.0071 81.9671 75.1255 81.9443L75.2894 81.8897C75.3987 81.835 75.4852 81.7622 75.5535 81.662C75.5762 81.6347 75.5945 81.6074 75.6172 81.5801C75.6719 81.5027 75.7083 81.4207 75.7174 81.3251C75.7493 81.2386 75.7492 81.1476 75.7265 81.0565Z" fill="white"/>
<path d="M77.0377 80.6377C76.7827 80.3372 76.373 80.3463 76.0725 80.5603C75.8904 80.6923 75.6946 80.8107 75.4943 80.9154C75.1938 80.9837 74.8979 81.1067 74.6201 81.1977C74.4562 81.2478 74.2923 81.3024 74.1284 81.3525C74.1148 81.2979 74.1011 81.2387 74.092 81.1795C74.1876 80.9382 74.2878 80.7014 74.4062 80.4738C74.6247 80.0504 74.5063 79.6498 74.0692 79.4403C73.9782 79.3993 73.8871 79.3766 73.8006 79.3675C73.664 79.026 73.1951 78.8621 72.8719 79.026L72.0478 79.4494C71.9977 79.4767 71.934 79.5041 71.8702 79.5314C71.7063 79.0852 71.6517 78.6072 71.6836 78.1291C71.7154 77.6192 71.2875 77.3733 70.8959 77.4416C70.8823 77.3415 70.8686 77.2368 70.855 77.1366C70.814 76.7678 70.3951 76.5311 70.0537 76.5994C69.6667 76.6768 69.4755 77.0319 69.5164 77.4007C69.6348 78.4797 69.8078 79.5541 70.0537 80.6104C70.2585 81.5118 70.5681 82.4224 71.3193 83.0143C72.107 83.638 73.2588 83.6426 74.1967 83.4149C75.0936 83.2009 75.9268 82.7502 76.5915 82.1128C76.7144 81.9944 76.7827 81.8533 76.8055 81.7076C76.8601 81.6712 76.9148 81.6348 76.9694 81.5938C77.2608 81.3844 77.2608 80.9018 77.0377 80.6377Z" fill="#E3636E"/>
<path d="M69.8125 80.8928C70.0492 81.7988 70.4135 82.6821 71.1738 83.2785C72.007 83.9341 73.1861 83.9887 74.206 83.793C73.1907 82.3179 71.5107 81.4801 69.8125 80.8928Z" fill="#FFADD2"/>
<path d="M72.7626 79.0806C72.799 78.9941 72.8082 78.903 72.7945 78.8119C72.7945 78.7209 72.7763 78.6389 72.7353 78.557C72.6989 78.475 72.6443 78.4068 72.576 78.3521C72.5122 78.2838 72.4348 78.2383 72.3483 78.211C72.2891 78.1973 72.2299 78.1882 72.1708 78.1746C72.0524 78.1655 71.9386 78.1882 71.8293 78.2428C71.7792 78.2747 71.7337 78.3066 71.6836 78.3385C71.588 78.4204 71.5243 78.516 71.4833 78.6344C71.456 78.7482 71.4241 78.862 71.3968 78.9758C71.3604 79.0624 71.3513 79.1534 71.3649 79.2445C71.3649 79.3355 71.3831 79.4175 71.4241 79.4994C71.4605 79.5814 71.5152 79.6497 71.5835 79.7043C71.6472 79.7726 71.7246 79.8181 71.8111 79.8454C71.8703 79.8591 71.9295 79.8682 71.9887 79.8819C72.107 79.891 72.2208 79.8682 72.3301 79.8136L72.4758 79.718C72.5714 79.636 72.6351 79.5404 72.6761 79.422C72.7034 79.3082 72.7353 79.1944 72.7626 79.0806Z" fill="white"/>
<path d="M68.2553 69.5699C68.2553 69.2375 68.1461 68.9143 67.8729 68.7048C67.6088 68.5 67.2492 68.4772 66.9578 68.6366C66.4524 68.9143 66.07 69.4652 65.8196 69.9751C65.7832 70.0525 65.7558 70.1299 65.7285 70.2073C65.4736 70.6398 65.255 71.1269 65.2596 71.6278C65.2641 71.9829 65.3598 72.3471 65.7149 72.511C66.0017 72.643 66.3067 72.5656 66.5662 72.4063C66.8121 72.256 67.0124 72.0375 67.2082 71.8281C67.3949 71.6232 67.5633 71.4047 67.7045 71.1634C67.9822 70.6944 68.2508 70.1253 68.2553 69.5699Z" fill="#151921"/>
<path d="M85.2282 75.7164C85.2282 75.384 85.119 75.0608 84.8458 74.8513C84.5817 74.6465 84.2221 74.6237 83.9307 74.783C83.4253 75.0608 83.0429 75.6117 82.7925 76.1216C82.7561 76.199 82.7287 76.2764 82.7014 76.3538C82.4465 76.7863 82.2279 77.2734 82.2325 77.7742C82.237 78.1294 82.3327 78.4936 82.6878 78.6575C82.9746 78.7895 83.2796 78.7121 83.5391 78.5528C83.785 78.4025 83.9853 78.184 84.1811 77.9746C84.3678 77.7697 84.5362 77.5511 84.6774 77.3099C84.9551 76.8409 85.2237 76.2718 85.2282 75.7164Z" fill="#151921"/>
<path d="M77.3473 75.2246C77.3245 75.1244 77.2653 75.0288 77.1834 74.9605C77.2653 74.8148 77.279 74.6327 77.2107 74.4779C77.147 74.3368 77.0468 74.2457 76.9375 74.141C76.5414 73.7813 76.027 73.5673 75.4988 73.4899H75.4943C75.4624 73.4763 75.4305 73.4581 75.3987 73.4444C75.1528 73.3443 74.8523 73.2077 74.5974 73.3397C74.5018 73.3898 74.4335 73.4581 74.3879 73.5309C74.3151 73.5446 74.2468 73.5719 74.1967 73.6174C74.001 73.7904 73.9873 74.0499 74.133 74.2594C74.4608 74.7283 74.9388 75.0424 75.4351 75.302C75.8858 75.5387 76.4549 75.8847 76.9785 75.7481C77.2061 75.6889 77.4019 75.475 77.3473 75.2246Z" fill="white"/>
<path d="M76.5597 73.4398C75.7902 73.0665 74.9207 73.2167 74.1285 73.4307C73.8735 73.499 73.6868 73.7357 73.7415 74.0089C73.7916 74.2548 74.0602 74.4642 74.3197 74.3959C74.6293 74.3139 74.9434 74.2365 75.2621 74.2001C75.5034 74.1728 75.813 74.2001 76.0406 74.2821C76.0725 74.2957 76.1089 74.3094 76.1408 74.323C76.1499 74.3276 76.1681 74.3367 76.1772 74.3413C76.2364 74.3731 76.2911 74.4141 76.3502 74.4505C76.3639 74.4596 76.3776 74.4733 76.3912 74.4824C76.4094 74.5006 76.4322 74.5234 76.4504 74.5461C76.4686 74.5689 76.4914 74.5917 76.5096 74.6144C76.5141 74.619 76.5278 74.6372 76.5369 74.6554C76.546 74.6736 76.5733 74.7237 76.5733 74.7237C76.587 74.751 76.5961 74.7783 76.6097 74.8056C76.6143 74.8102 76.6143 74.8147 76.6143 74.8193C76.6188 74.8466 76.628 74.8739 76.6325 74.9013C76.6371 74.9195 76.6371 74.9422 76.6416 74.9604C76.6416 74.9695 76.6416 74.9969 76.6416 75.0151C76.6416 75.0424 76.6325 75.0743 76.6325 75.1016C76.6325 75.1061 76.628 75.1152 76.6234 75.1243C76.5551 75.3702 76.6598 75.6707 76.9239 75.7481C77.1652 75.8209 77.4748 75.7117 77.5476 75.4476C77.7889 74.6099 77.3154 73.804 76.5597 73.4398Z" fill="#151921"/>
<path d="M67.0077 68.5957C66.3384 68.368 65.6692 68.1404 64.9999 67.9173C64.7586 67.8353 64.4536 67.9628 64.3762 68.2178C64.2988 68.4727 64.4171 68.755 64.6767 68.8415C65.3459 69.0691 66.0152 69.2968 66.6844 69.5199C66.9257 69.6018 67.2308 69.4743 67.3082 69.2194C67.3856 68.969 67.2672 68.6867 67.0077 68.5957Z" fill="#151921"/>
<path d="M66.7801 70.1209C66.7847 69.8295 66.5935 69.6519 66.3248 69.5973C65.5827 69.4516 64.8361 69.3059 64.094 69.1602C63.9801 69.1375 63.8254 69.2057 63.7434 69.2786C63.6523 69.356 63.5749 69.4971 63.5704 69.6201C63.5658 69.9114 63.7571 70.089 64.0257 70.1436C64.7678 70.2893 65.5144 70.435 66.2565 70.5807C66.3704 70.6035 66.5252 70.5352 66.6071 70.4623C66.7027 70.3804 66.7801 70.2438 66.7801 70.1209Z" fill="#151921"/>
<path d="M84.9505 75.1927C85.6153 75.4294 86.28 75.6661 86.9447 75.9029C87.186 75.9894 87.3453 76.2808 87.2452 76.5266C87.145 76.7725 86.8809 76.9227 86.6214 76.8271C85.9567 76.5904 85.292 76.3536 84.6273 76.1169C84.386 76.0304 84.2266 75.739 84.3268 75.4931C84.427 75.2518 84.691 75.1016 84.9505 75.1927Z" fill="#151921"/>
<path d="M84.1856 76.5266C84.3631 76.2944 84.6226 76.2762 84.8685 76.3991C85.5423 76.7451 86.2161 77.0957 86.8899 77.4417C86.9901 77.4918 87.072 77.6466 87.0948 77.7513C87.1176 77.8697 87.0902 78.0245 87.0174 78.1246C86.8398 78.3568 86.5803 78.375 86.3345 78.2521C85.6607 77.9061 84.9868 77.5555 84.313 77.2095C84.2129 77.1594 84.1309 77.0046 84.1082 76.8999C84.0854 76.7815 84.1127 76.6267 84.1856 76.5266Z" fill="#151921"/>
<path d="M77.9074 80.4647C75.6082 80.0322 71.8248 77.6101 70.6092 75.6205C70.3042 75.1197 69.5757 75.666 69.8808 76.1668C71.2193 78.3613 75.2576 80.8972 77.7753 81.3707C78.3535 81.4754 78.4856 80.574 77.9074 80.4647Z" fill="#151921"/>
<path d="M70.0625 75.7708C70.058 75.7708 70.058 75.7753 70.0535 75.7753C69.9948 75.8068 70.0354 75.7933 70.0625 75.7708Z" fill="#151921"/>
<path d="M71.3194 74.9194C71.2829 74.6963 71.0599 74.4641 70.8094 74.5233C70.4179 74.6143 70.04 74.7464 69.6849 74.9421C69.3025 75.1516 68.9656 75.402 68.6514 75.707C68.574 75.7844 68.5421 75.9437 68.5558 76.0485C68.5695 76.1577 68.6332 76.2807 68.7243 76.3489C68.8199 76.4172 68.9428 76.4673 69.0657 76.4446C69.1887 76.4218 69.2752 76.3626 69.3662 76.2761C69.3389 76.3034 69.3025 76.3398 69.3526 76.2898C69.3708 76.2761 69.3844 76.2579 69.4026 76.2442C69.4345 76.2169 69.4664 76.1896 69.4982 76.1623C69.562 76.1076 69.6257 76.0576 69.694 76.0075C69.7623 75.9574 69.8351 75.9073 69.908 75.8618C69.9444 75.839 69.9763 75.8163 70.0127 75.7981C70.0309 75.789 70.0582 75.7799 70.0719 75.7616C70.0673 75.7616 70.0673 75.7662 70.0628 75.7662C70.2085 75.6888 70.3587 75.616 70.5135 75.5568C70.5909 75.5249 70.6683 75.4976 70.7457 75.4748C70.7912 75.4612 70.8322 75.4475 70.8777 75.4338C70.8914 75.4293 70.9096 75.4247 70.9233 75.4247C71.0416 75.3974 71.1418 75.3564 71.2238 75.2563C71.2921 75.1743 71.3376 75.0332 71.3194 74.9194Z" fill="#151921"/>
<path d="M70.1313 67.8761C70.0083 67.7031 69.8399 67.5483 69.6805 67.4026C69.3937 67.134 69.0796 66.8882 68.7426 66.6787C68.5287 66.5421 68.2646 66.3327 67.996 66.3646C67.7729 66.3919 67.5953 66.5604 67.5589 66.7834C67.527 66.9564 67.5953 67.1295 67.7001 67.2615C67.9322 67.562 68.1872 67.8579 68.4695 68.1174C68.7791 68.4771 69.1752 68.7639 69.6304 68.9233C69.8808 69.0098 70.0994 68.9233 70.2314 68.6956C70.3908 68.4316 70.2952 68.1037 70.1313 67.8761Z" fill="#151921"/>
<path d="M87.2861 73.4034C87.1086 73.2896 86.89 73.2122 86.6897 73.1394C86.3209 72.9982 85.9385 72.8981 85.5469 72.8298C85.2965 72.7842 84.9733 72.6932 84.7365 72.8252C84.5408 72.9345 84.4452 73.1621 84.4907 73.3761C84.5271 73.5446 84.6591 73.6811 84.8048 73.7631C85.1372 73.9543 85.4832 74.1273 85.8429 74.2594C86.2663 74.4733 86.7443 74.5872 87.2224 74.5598C87.4864 74.5462 87.6549 74.3823 87.6913 74.1182C87.7368 73.8177 87.5229 73.5537 87.2861 73.4034Z" fill="#151921"/>
<path d="M73.4227 78.5573C73.2542 78.3752 72.9765 78.3433 72.7808 78.5072C72.5121 78.7349 72.2299 78.9488 71.9476 79.1583C71.8838 79.2038 71.8156 79.2493 71.7518 79.2949C71.8565 78.9534 71.9567 78.6074 72.0614 78.2659C72.1297 78.0383 72.025 77.7606 71.7791 77.6877C71.5515 77.6194 71.2738 77.7241 71.2009 77.97C71.1053 78.2887 71.0097 78.6028 70.9141 78.9215C70.8686 79.0809 70.8185 79.2402 70.773 79.3996C70.732 79.5453 70.6774 79.6955 70.6819 79.8457C70.6865 80.0734 70.7684 80.2919 70.9687 80.4194C71.1827 80.5605 71.4468 80.5423 71.6699 80.4331C71.8338 80.3511 71.984 80.2373 72.1343 80.1371C72.2663 80.0506 72.3938 79.9596 72.5258 79.8685C72.8172 79.6591 73.0994 79.4405 73.3772 79.2083C73.5593 79.0444 73.5912 78.7349 73.4227 78.5573Z" fill="#151921"/>
<path d="M76.6917 80.4238C76.6507 80.4193 76.6052 80.4056 76.5642 80.4011C76.5232 80.3919 76.4777 80.3874 76.4367 80.3737C76.4049 80.3646 76.3776 80.351 76.3502 80.3373C76.2728 80.3009 76.1909 80.2645 76.118 80.2144C76.0634 80.178 76.0088 80.137 75.9587 80.0915C75.7538 80.3054 75.5398 80.5103 75.3122 80.697C75.1847 80.8017 75.0527 80.9019 74.9161 80.9929C74.948 80.9155 74.9798 80.8336 75.0163 80.7562C75.039 80.7106 75.0618 80.6606 75.0846 80.615C75.0891 80.6059 75.0891 80.6014 75.0937 80.5968C75.0982 80.5923 75.0982 80.5877 75.1028 80.5832C75.1529 80.4921 75.2029 80.3965 75.253 80.3054C75.3668 80.1006 75.3577 79.8092 75.1346 79.6726C74.9434 79.5542 74.6247 79.5679 74.5018 79.791C74.3151 80.1233 74.1467 80.4648 74.001 80.8199C73.9327 80.9838 73.869 81.1477 73.8143 81.3162C73.7415 81.5256 73.7051 81.7441 73.8143 81.949C73.9509 82.1994 74.2468 82.3178 74.5246 82.2449C74.6976 82.1994 74.8524 82.1084 75.0072 82.0173C75.3031 81.8397 75.5899 81.6485 75.8585 81.4345C76.1454 81.2069 76.4094 80.9565 76.6553 80.6879C76.7281 80.6059 76.7782 80.5285 76.7964 80.4238C76.76 80.4284 76.7281 80.4284 76.6917 80.4238Z" fill="#151921"/>
<path d="M77.4246 80.7105C76.5323 81.4799 75.5625 82.1491 74.5063 82.6727C73.5183 83.1644 72.3573 83.5241 71.4149 82.741C70.5135 81.9989 70.2722 80.7196 70.1583 79.6178C70.04 78.4523 70.1447 77.264 70.4315 76.1349C70.5726 75.5703 69.7167 75.2653 69.571 75.8344C69.2296 77.182 69.1203 78.5661 69.2796 79.9501C69.4299 81.2568 69.826 82.6317 70.8959 83.4877C71.9749 84.3527 73.318 84.1933 74.5108 83.6743C75.7856 83.1189 76.9693 82.3085 78.0165 81.4025C78.4627 81.0155 77.8708 80.3235 77.4246 80.7105Z" fill="#151921"/>
<path d="M86.7489 68.9735C86.3391 68.5956 85.6789 69.1921 86.0887 69.5699C88.9296 72.1878 89.9586 76.5221 88.4243 80.2235C87.6503 82.0902 86.2754 83.7337 84.5817 84.79C82.706 85.9601 80.5343 86.3197 78.3899 86.2924C73.7278 86.2378 68.9383 84.9311 64.8999 82.6138C61.2531 80.524 58.0798 77.2323 57.5244 72.7888C57.2421 70.526 57.7748 68.2314 59.1452 66.383C59.7962 65.5043 60.5975 64.7622 61.4944 64.1749C62.4733 63.5375 63.6069 63.0321 64.7451 62.8045C65.296 62.6952 65.123 61.8211 64.5721 61.9303C63.2837 62.1898 62.0225 62.768 60.9481 63.4965C58.5442 65.1219 56.846 67.7716 56.6092 70.8038C56.2405 75.5523 59.0723 79.6954 62.6918 82.2632C66.8303 85.1998 72.0114 86.775 77.0377 87.1256C79.3278 87.2849 81.7134 87.1392 83.8624 86.1695C85.7973 85.2908 87.4591 83.7474 88.5518 81.8853C91.0239 77.6967 90.2272 72.1833 86.7489 68.9735Z" fill="#151921"/>
<path d="M86.7534 68.9689C83.6302 66.1052 79.478 65.0261 75.3441 64.8258C74.7841 64.7985 74.7249 65.6908 75.2849 65.7182C79.1548 65.9094 83.1521 66.87 86.0887 69.5653C86.4985 69.9386 87.1677 69.3468 86.7534 68.9689Z" fill="#151921"/>
<path d="M64.2945 62.8499C64.1579 62.8044 64.0532 62.686 64.0213 62.5312C63.9758 62.2945 64.126 62.0577 64.3537 61.9985C64.6132 61.9348 70.8278 60.446 76.2638 64.9578C76.4414 65.1035 76.4687 65.3812 76.3185 65.577C76.1728 65.7728 75.9087 65.8092 75.7312 65.659C70.6092 61.4067 64.5722 62.8408 64.513 62.8544C64.4356 62.8772 64.3628 62.8727 64.2945 62.8499Z" fill="#151921"/>
<path d="M86.025 86.4925C83.48 87.9539 80.1428 88.0131 76.9012 88.0678C75.1211 88.0996 73.4411 88.127 71.9842 88.4001C70.1403 88.7416 67.8866 90.1074 66.9305 90.7266C66.4343 89.7751 65.0411 87.6944 61.5901 85.591C58.5716 83.7517 55.635 81.7029 53.4861 79.6997C53.2493 79.9 53.0035 80.0958 52.7485 80.2779C54.9339 82.3449 57.9251 84.4255 61.1166 86.3696C65.3917 88.9738 66.2977 91.5233 66.3023 91.5461C66.3478 91.6827 66.4525 91.792 66.5891 91.8375C66.5982 91.842 66.6073 91.842 66.6164 91.8466C66.7439 91.883 66.885 91.8557 66.9943 91.7783C67.0262 91.7601 69.9855 89.6977 72.1435 89.297C73.5276 89.0421 75.1711 89.0102 76.9149 88.9783C80.0973 88.9237 83.6485 88.8554 86.4075 87.3166C86.2754 87.0434 86.1525 86.7657 86.025 86.4925Z" fill="#151921"/>
<path d="M86.5349 86.6111C86.4802 86.3698 86.2071 86.2287 85.9749 86.2924C85.729 86.3607 85.6015 86.6111 85.6562 86.8524C85.77 87.3304 85.5879 88.1226 85.301 88.5415C84.9824 89.015 84.5134 89.3838 84.0809 89.7434C83.8897 89.8982 83.917 90.2215 84.0763 90.3854C84.263 90.572 84.5316 90.5447 84.7183 90.3899C85.2464 89.9529 85.7791 89.4976 86.1479 88.9103C86.5166 88.3184 86.6942 87.2986 86.5349 86.6111Z" fill="#151921"/>
<path d="M85.9432 89.3791C85.9477 88.7918 85.0371 88.8009 85.0326 89.3882C85.0235 90.2259 84.1266 90.6539 83.4255 90.8405C82.6924 91.0363 81.923 91.0363 81.1718 90.968C79.5692 90.8223 77.9939 90.4217 76.3959 90.2122C74.8024 90.0074 73.1907 89.8981 71.5836 90.0119C69.8854 90.1348 68.2691 90.5674 66.6438 91.0682C66.0838 91.2412 66.3205 92.1199 66.8851 91.9469C68.7335 91.3778 70.5547 90.9225 72.4942 90.8815C74.3198 90.8405 76.1364 91.0545 77.9302 91.3596C79.5373 91.6327 81.19 92.0652 82.8336 91.874C84.2085 91.7101 85.9295 90.9953 85.9432 89.3791Z" fill="#151921"/>
<path d="M66.9806 91.1365C65.378 90.1531 63.7344 89.2289 62.0317 88.4276C60.4063 87.6627 58.7264 87.0526 57.0418 86.438C55.3482 85.8234 53.6363 85.1723 52.1293 84.1707C51.2643 83.597 50.2126 82.4679 50.2718 81.3889C50.0532 81.5437 49.8347 81.694 49.6025 81.826C49.5433 81.8579 49.4841 81.8806 49.4204 81.8988C49.5115 82.559 49.8074 83.21 50.2354 83.7291C51.4191 85.1586 53.3449 85.9599 55.0204 86.6383C56.9599 87.4259 58.9677 88.036 60.8798 88.8965C62.8284 89.7706 64.6996 90.8087 66.5162 91.9196C67.0216 92.2292 67.4814 91.4415 66.9806 91.1365Z" fill="#151921"/>
<path d="M90.9192 97.8429C90.2408 97.1144 89.526 96.4178 88.8203 95.7212C87.327 94.2461 85.7972 92.812 84.2402 91.4097C83.8031 91.0182 82.7332 91.3597 83.1703 91.7512C84.568 93.0078 86.3663 94.5876 87.714 95.9034C88.3878 96.559 89.0525 97.2237 89.7081 97.8975C90.0086 98.2025 90.4047 98.5212 90.6141 98.9037C90.8281 99.2952 90.7917 99.7505 90.7188 100.178C90.5549 101.148 90.1179 102.059 89.7035 102.942C89.3211 103.752 88.9159 104.549 88.4788 105.328C88.6291 105.332 88.7793 105.369 88.9159 105.464C89.0935 105.341 89.3029 105.291 89.5169 105.332C90.4138 103.675 91.5156 101.781 91.6704 99.878C91.7296 99.063 91.47 98.4347 90.9192 97.8429Z" fill="#151921"/>
<path d="M69.5983 53.881C69.2159 53.6306 69.1658 53.2163 69.3024 52.8839C66.5843 52.1919 62.7736 51.6638 60.3151 52.9203C60.1148 53.0251 59.9873 53.2982 60.0465 53.5122C58.4894 53.8719 56.9187 55.0329 55.6257 56.4124C54.7243 57.373 52.7392 60.5873 52.1929 61.5661C52.1565 61.6299 52.1383 61.6936 52.1292 61.7573C52.4979 61.5024 52.8667 61.252 53.2446 61.0061C53.4222 60.8923 53.5952 60.7739 53.7682 60.6556C54.615 59.3261 55.7486 57.6735 56.4133 57.027C57.9659 55.5109 59.8917 54.2907 61.681 54.186C62.1089 54.1587 62.2592 53.4667 61.8266 53.321L61.7811 53.3073C63.9209 52.6335 67.2946 53.2846 69.4526 53.8537C69.5163 53.8719 69.5892 53.8946 69.6575 53.9129C69.6302 53.9038 69.6119 53.8901 69.5983 53.881Z" fill="#151921"/>
<path d="M94.3247 74.5962C94.3065 73.6811 94.2382 72.7933 94.0743 71.9829C94.3338 72.0239 94.6343 71.7917 94.6206 71.514C94.5113 68.6366 93.6964 65.823 92.2531 63.3417C92.4808 63.4236 92.7039 63.501 92.927 63.5966C93.3822 63.7924 93.8557 63.2597 93.4642 62.8727C91.124 60.5417 88.1602 58.9118 84.9823 58.0923C84.6727 58.3381 84.354 58.5703 84.0308 58.8025C86.6168 59.3534 89.0753 60.4689 91.1787 62.0897C90.8691 62.117 90.6232 62.4903 90.819 62.7771C92.3123 64.9716 93.2502 67.4756 93.578 70.0935C93.5689 70.0844 93.5598 70.0707 93.5507 70.0616C93.2457 69.6837 92.6857 70.1163 92.7995 70.5169C93.1865 71.9055 93.3322 73.3852 93.3595 74.8694C93.6827 74.7601 94.0014 74.6691 94.3247 74.5962Z" fill="#151921"/>
<path d="M78.3535 57.2909C78.3763 57.209 78.4082 57.1361 78.4628 57.0678C78.5584 56.9586 78.6586 56.8539 78.7724 56.7628C78.8361 56.7127 78.9044 56.6672 78.9773 56.6262C77.7708 55.3059 76.2182 54.3999 74.6111 53.6441C73.6641 53.198 70.2267 51.6819 68.7562 51.9687C68.4557 52.0279 68.3237 52.3511 68.442 52.6197C68.6788 53.1706 69.0339 53.6123 69.4892 53.9901C69.9399 54.3635 70.4453 53.6077 69.9991 53.2344C69.8489 53.1114 69.7214 52.9703 69.6076 52.8201C70.3542 52.8656 73.482 54.1131 74.3106 54.5001C75.8039 55.2012 77.2426 56.0571 78.3535 57.2909Z" fill="#151921"/>
<path d="M85.811 93.4357C85.7245 93.413 85.6426 93.3629 85.5834 93.29C85.4195 93.0988 85.4423 92.812 85.6335 92.6481C85.679 92.6117 90.1772 88.7372 91.9164 83.5971C93.915 77.6876 93.3095 72.98 93.305 72.9299C93.2685 72.6795 93.4461 72.4518 93.6965 72.4154C93.9469 72.3835 94.1746 72.5565 94.211 72.8024C94.2383 73.0027 94.8575 77.7604 92.7859 83.8839C90.9648 89.2654 86.4211 93.1717 86.2299 93.3356C86.107 93.4403 85.9522 93.4722 85.811 93.4357Z" fill="#151921"/>
<path d="M88.0965 108.346H62.7009L63.6115 106.297H88.0965V108.346Z" fill="#343A46"/>
<path d="M62.496 109.029C62.4414 109.029 62.3822 109.02 62.3276 108.997C62.0954 108.902 61.9816 108.637 62.0726 108.405L63.056 105.947C63.1243 105.774 63.2928 105.66 63.4795 105.66H85.943C86.1934 105.66 86.3983 105.865 86.3983 106.115C86.3983 106.366 86.1934 106.57 85.943 106.57H63.789L62.9195 108.742C62.8466 108.92 62.6782 109.029 62.496 109.029Z" fill="#151921"/>
<path d="M55.9171 58.0559C52.3204 62.117 46.8479 63.8425 41.594 64.3707C38.6665 64.6666 35.2883 63.8653 32.6067 62.5677C30.3667 61.4842 28.8871 60.5099 27.0022 58.9118C24.9034 57.1271 22.8091 55.3015 20.3688 53.9948C20.0683 53.8354 19.6813 54.0312 19.6858 54.3863C19.7131 58.8663 21.7346 63.2279 25.1583 66.1235C25.6045 66.5014 26.251 65.8594 25.8003 65.4815C22.7544 62.9092 20.8696 59.1531 20.6192 55.1876C24.8214 57.678 27.5303 61.0289 31.9192 63.2461C34.5735 64.5846 37.9016 65.5726 40.8427 65.3495C43.6291 65.1401 46.4245 64.6074 49.0515 63.6331C51.8924 62.5768 54.533 60.9834 56.5545 58.7024C56.9506 58.2608 56.3086 57.6143 55.9171 58.0559Z" fill="#151921"/>
<path d="M28.1177 75.3566C22.5542 70.7583 19.7041 63.2643 20.6966 56.1346C20.7786 55.5564 19.868 55.5245 19.7861 56.0982C18.9757 61.8985 20.6557 67.9127 24.1886 72.5657C25.1903 73.886 26.3512 75.0698 27.626 76.126C28.0813 76.4993 28.5639 75.7254 28.1177 75.3566Z" fill="#151921"/>
<path d="M44.5216 95.9353C44.6719 95.867 44.8267 95.8123 44.9769 95.7577C40.9522 95.9307 36.9002 95.4936 33.1123 94.0686C28.3273 92.2702 24.0977 88.9603 21.7712 84.3438C21.0747 82.9597 20.5283 81.5028 20.0548 80.0232C19.809 79.2492 19.5813 78.4707 19.3673 77.6876C19.208 77.1048 19.0077 76.4037 19.1898 75.8118C20.5966 77.1504 22.2037 78.2521 23.9657 79.0808C24.4028 79.2856 24.7488 78.7621 24.5211 78.3978C22.0125 74.4005 19.0714 69.4561 20.8971 64.6483C20.7969 64.2659 20.7286 63.8789 20.6649 63.4874C20.6649 63.4828 20.6649 63.4828 20.6649 63.4783C20.5192 63.4828 20.3735 63.5557 20.2916 63.7287C18.1199 68.4682 20.3917 73.3306 22.8867 77.4782C21.5982 76.7133 20.419 75.7891 19.3582 74.7146C19.1852 74.537 18.8574 74.6053 18.7163 74.7783C17.8103 75.8983 18.3293 77.3735 18.6799 78.6073C19.0851 80.0368 19.5358 81.4573 20.0912 82.8368C21.152 85.4638 22.6499 87.8404 24.6668 89.8299C28.6961 93.8091 34.2141 95.9444 39.7867 96.5226C41.2345 96.6728 42.6914 96.7183 44.1437 96.691C44.0891 96.3951 44.1893 96.0809 44.5216 95.9353Z" fill="#151921"/>
<path d="M68.4101 94.0777C64.349 93.2764 60.2242 92.8575 56.0856 92.8302C55.4983 92.8257 55.4983 93.7362 56.0856 93.7408C59.9555 93.7681 63.8118 94.1414 67.6134 94.8562C66.2885 97.5606 64.8726 100.215 63.3519 102.815C63.2017 103.074 63.056 103.452 62.8284 103.666C62.5688 103.912 62.1136 103.789 61.7903 103.766C60.9298 103.702 60.0694 103.62 59.2134 103.52C57.6473 103.338 56.0902 103.088 54.5422 102.774C53.0262 102.469 51.5237 102.104 50.035 101.685C48.5508 101.267 47.0256 100.83 45.6552 100.11C45.0952 99.8142 44.476 99.4273 44.3121 98.7671C44.1345 98.0432 44.4532 97.21 44.6763 96.5226C45.127 95.1157 45.7462 93.7681 46.4701 92.4797C47.2486 91.0911 48.141 89.7707 49.088 88.4914C50.0623 87.1711 51.0776 85.8098 52.4297 84.8491C52.1748 84.6625 51.9153 84.4804 51.6603 84.2937C50.5358 85.1678 49.6434 86.2651 48.7829 87.3987C47.7995 88.6917 46.8662 90.0211 46.0376 91.4234C45.2272 92.7893 44.5261 94.2234 43.9934 95.7213C43.5244 97.0507 42.9053 98.7261 43.9388 99.9508C44.8539 101.03 46.4838 101.522 47.7722 101.95C49.4659 102.514 51.1959 102.974 52.9351 103.365C54.6196 103.743 56.3178 104.048 58.0297 104.285C58.8538 104.399 59.6778 104.495 60.5064 104.572C61.2622 104.645 62.3184 104.913 63.0423 104.617C63.7071 104.344 64.0303 103.479 64.3627 102.906C64.8771 102.018 65.3825 101.125 65.8742 100.229C66.8576 98.4302 67.7955 96.6045 68.6878 94.7606C68.8016 94.5057 68.7197 94.1414 68.4101 94.0777Z" fill="#151921"/>
<path d="M71.2419 95.999C71.5833 95.7622 71.9111 95.5027 72.2207 95.2114C72.4666 94.9792 72.3209 94.5239 71.9931 94.4556C70.5089 94.1597 69.0246 94.3964 67.7089 95.1431C67.199 95.4299 67.6861 96.2039 68.196 95.9125C68.9882 95.4663 69.8624 95.2387 70.7547 95.2432C70.3449 95.5346 69.9033 95.7941 69.4344 95.9944C68.8972 96.2266 69.1293 96.9778 69.7076 96.864C71.6835 96.4679 73.4727 97.8338 73.7823 99.7277C72.8536 99.6321 71.9248 99.5365 71.0006 99.4409C70.5771 99.3954 70.222 99.8734 70.5817 100.215C70.9869 100.602 71.3602 101.016 71.6835 101.476C71.8474 101.708 71.9976 101.945 72.1388 102.195C72.2025 102.305 72.2617 102.414 72.3163 102.528C72.3345 102.56 72.3436 102.596 72.3573 102.628C72.2389 102.573 72.1205 102.519 72.0022 102.464C71.7062 102.327 71.4149 102.191 71.1189 102.054C70.5316 101.781 69.9397 101.503 69.3524 101.23C69.0337 101.084 68.5238 101.371 68.7014 101.767C69.0656 102.569 69.4526 103.411 69.489 104.303C69.5072 104.786 69.3752 105.123 69.2477 105.56C69.2295 105.546 69.2113 105.528 69.1885 105.51C69.1111 105.328 68.9199 105.146 68.8015 104.991C67.809 103.739 66.3977 102.596 65.0136 101.795C64.5037 101.499 64.0757 102.305 64.5811 102.596C65.5099 103.133 66.5616 103.894 67.3128 104.663C67.6952 105.055 68.0458 105.473 68.369 105.915C68.5967 106.229 68.8198 106.616 69.2568 106.621C70.0945 106.63 70.3495 105.337 70.395 104.704C70.4497 103.948 70.2721 103.229 70.0126 102.532C70.568 102.792 71.1235 103.047 71.6744 103.306C72.1615 103.534 72.9947 104.035 73.3361 103.311C73.6093 102.733 73.104 102.013 72.8217 101.544C72.594 101.162 72.3345 100.798 72.0523 100.452C72.767 100.524 73.4773 100.597 74.1921 100.67C74.4835 100.702 74.7566 100.538 74.7521 100.21C74.7065 98.0568 73.1814 96.3996 71.2419 95.999Z" fill="#151921"/>
<path d="M66.5436 90.9772C63.7436 91.6328 60.8207 91.4143 58.1391 90.3899C57.5928 90.1805 57.356 91.0592 57.8978 91.2686C60.7297 92.3522 63.8392 92.548 66.7895 91.8559C67.354 91.7239 67.1127 90.8452 66.5436 90.9772Z" fill="#151921"/>
<path d="M58.6898 90.6948C58.6443 90.5309 58.5259 90.4353 58.3711 90.3761C58.362 90.3716 58.3529 90.3716 58.3438 90.367C58.2892 90.2987 58.2209 90.2441 58.1298 90.2259C57.2421 90.0711 56.3816 90.2987 55.6804 90.8587C55.4528 91.0408 55.5347 91.446 55.7715 91.5735C56.6775 92.0561 57.8658 91.8877 58.576 91.1364C58.6853 91.0181 58.7354 90.8542 58.6898 90.6948Z" fill="#151921"/>
<path d="M66.4161 91.2413C66.1611 91.1821 65.9426 91.3187 65.8561 91.56C65.8197 91.6647 65.7832 91.7649 65.7423 91.865C65.7332 91.8832 65.7241 91.906 65.7195 91.9242C65.7195 91.9288 65.715 91.9333 65.7104 91.947C65.6876 91.9971 65.6649 92.0471 65.6421 92.0972C65.5465 92.3021 65.4418 92.5024 65.3325 92.6982C65.2232 92.8894 65.1049 93.0715 64.982 93.2491C64.9501 93.2946 64.9182 93.3401 64.8863 93.3811C64.8681 93.4039 64.8545 93.4266 64.8363 93.4449C64.8317 93.4494 64.8226 93.4631 64.8135 93.4767C64.8044 93.4904 64.7862 93.5086 64.7862 93.5131C64.768 93.5359 64.7543 93.5541 64.7361 93.5769C64.6997 93.6224 64.6587 93.6725 64.6177 93.718C64.5312 93.8227 64.4857 93.9593 64.4948 94.0914H65.3234C65.3689 94.0914 65.4145 94.0959 65.46 94.105C66.0063 93.4039 66.4434 92.6345 66.7393 91.7967C66.8122 91.5736 66.6437 91.2914 66.4161 91.2413Z" fill="#151921"/>
<path d="M83.1566 105.646C81.3628 104.121 79.5918 102.564 77.8435 100.984C77.4064 100.588 76.8237 101.285 77.2562 101.681C79.0045 103.261 80.7755 104.818 82.5693 106.343C83.0155 106.725 83.6028 106.029 83.1566 105.646Z" fill="#151921"/>
<path d="M51.0274 102.082C50.8726 102.072 50.7224 102.013 50.5949 101.922C50.4583 101.858 50.3217 101.795 50.1852 101.731C50.1396 101.74 50.0895 101.745 50.044 101.745C50.1077 101.959 50.1852 102.204 50.1624 102.377C50.1169 102.705 49.7663 102.937 49.5478 103.151C49.1198 103.57 48.6918 103.989 48.2639 104.408C46.7296 105.906 45.1953 107.408 43.6655 108.906C44.1481 108.801 44.6444 108.747 45.1406 108.738L49.5523 104.422C49.9712 104.012 50.4629 103.62 50.8271 103.161C51.1048 102.81 51.0957 102.469 51.0274 102.082Z" fill="#151921"/>
<path d="M77.2199 100.798C76.5461 101.412 75.7858 101.904 74.9572 102.282C74.8252 102.341 74.7205 102.532 74.7296 102.673C74.8252 103.702 75.03 104.713 75.3624 105.692C75.5491 106.243 76.4278 106.006 76.2411 105.451C75.9634 104.636 75.7767 103.793 75.6765 102.938C76.4733 102.541 77.2063 102.041 77.8664 101.44C78.299 101.044 77.6525 100.402 77.2199 100.798Z" fill="#151921"/>
<path d="M53.8821 78.416C50.6086 81.817 45.8418 83.5653 41.1706 83.2193C42.623 82.7822 43.9843 82.0629 45.1862 81.084C45.6415 80.7152 44.995 80.0733 44.5443 80.4421C42.8051 81.858 40.6471 82.6775 38.4071 82.7822C37.9108 82.805 37.7697 83.5471 38.2841 83.6745C44.0389 85.1406 50.4037 83.3376 54.5286 79.058C54.9338 78.6346 54.2918 77.9926 53.8821 78.416Z" fill="#151921"/>
<path d="M83.3298 108.26L90.8465 85.4456L119.393 85.3591L112.299 108.433L83.3298 108.26Z" fill="#343A46"/>
<path d="M105.903 91.6966C103.467 93.9366 101.036 96.1721 98.6 98.412C98.1675 98.8081 98.814 99.4501 99.242 99.054C101.678 96.814 104.109 94.5786 106.545 92.3386C106.982 91.9425 106.335 91.3005 105.903 91.6966Z" fill="#3D4352"/>
<path d="M103.503 97.1552C101.304 99.0492 99.2055 101.062 97.2205 103.179C96.8198 103.607 97.4618 104.253 97.8624 103.821C99.8475 101.703 101.946 99.6911 104.145 97.7972C104.591 97.4147 103.945 96.7728 103.503 97.1552Z" fill="#3D4352"/>
<path d="M103.476 100.506C103.28 100.324 103.03 100.342 102.834 100.506C102.178 101.044 101.577 101.645 101.04 102.3C100.963 102.396 100.908 102.491 100.908 102.623C100.908 102.737 100.958 102.869 101.04 102.947C101.209 103.101 101.523 103.142 101.682 102.947C102.219 102.291 102.82 101.69 103.476 101.153C103.663 100.998 103.644 100.661 103.476 100.506Z" fill="#3D4352"/>
<path d="M118.45 85.7869H91.0196C90.1409 85.7869 90.1409 87.1527 91.0196 87.1527H118.45C119.329 87.1527 119.334 85.7869 118.45 85.7869Z" fill="#3D4352"/>
<path d="M117.959 86.0876C115.65 93.4905 113.205 100.852 110.629 108.169C110.337 108.997 111.653 109.357 111.944 108.533C114.521 101.217 116.966 93.8547 119.274 86.4518C119.538 85.6096 118.223 85.2499 117.959 86.0876Z" fill="#3D4352"/>
<path d="M83.439 109.029C83.3935 109.029 83.348 109.024 83.3024 109.006C83.0611 108.929 82.9291 108.674 83.0065 108.437L90.25 85.45C90.3092 85.2588 90.4868 85.1313 90.6825 85.1313H119.502C119.752 85.1313 119.957 85.3362 119.957 85.5866C119.957 85.837 119.752 86.0419 119.502 86.0419H91.0149L83.8715 108.71C83.8124 108.906 83.6348 109.029 83.439 109.029Z" fill="#151921"/>
<path d="M112.258 109.029C112.213 109.029 112.167 109.025 112.122 109.006C111.88 108.929 111.748 108.674 111.826 108.437L119.069 85.4501C119.147 85.2088 119.397 85.0768 119.638 85.1542C119.88 85.2316 120.012 85.4866 119.934 85.7233L112.691 108.71C112.632 108.906 112.454 109.029 112.258 109.029Z" fill="#151921"/>
<path d="M122.602 108.273H24.512C23.9247 108.273 23.9247 109.184 24.512 109.184H122.602C123.19 109.184 123.19 108.273 122.602 108.273Z" fill="#171A1F"/>
<path d="M84.7958 57.2363C82.2052 56.385 80.6709 56.1437 78.085 56.9996C77.2518 57.2728 77.2563 57.8373 78.1259 57.6825C80.5617 57.2545 82.0641 57.7736 84.4407 58.5566C85.2784 58.8344 85.629 57.5141 84.7958 57.2363Z" fill="#E7BCFA"/>
<path d="M86.2481 57.6915C83.735 55.9797 80.4979 55.5426 77.6297 56.5852C77.0788 56.7855 77.3747 57.646 77.9301 57.4457C80.1519 56.6398 82.6833 56.7901 84.7821 57.8645C84.5454 57.9146 84.3041 57.9647 84.0628 57.9965C83.4846 58.0831 83.5529 58.9891 84.1356 58.9026C84.8003 58.807 85.4605 58.6567 86.1024 58.4609C86.3984 58.3744 86.5349 57.8873 86.2481 57.6915Z" fill="#151921"/>
</svg>
