<svg width="350" height="99" viewBox="0 0 350 99" fill="none" xmlns="http://www.w3.org/2000/svg">
<g clip-path="url(#clip0_29_29060)">
<rect x="0.893555" width="348.212" height="98.5" rx="8" fill="#58CC02" fill-opacity="0.12"/>
<path d="M105 15C106.167 14.5 108.7 12.7 109.5 9.5C110.3 6.3 109.167 2.5 108.5 1" stroke="#FFC201" stroke-width="5"/>
<path d="M96.5 23.5L95 14.5" stroke="#FB8D00" stroke-width="5"/>
<path d="M48.5 19C49.8333 17.6667 52 14.3 50 11.5M36 21.5C36.1667 23.3333 37.8 27.5 43 29.5C45.8 30.3 48.8333 28.8333 50 28M105.5 62.5C105.5 62.1 108.5 59 110 57.5M114 48.5L111.5 42" stroke="#F44133" stroke-width="5"/>
<path d="M51 36L57.5 40" stroke="#FFC201" stroke-width="5"/>
<path d="M123 84L131 85" stroke="#F490B3" stroke-width="5"/>
<path d="M79.8931 56.7271C64.6356 46.373 52.2223 52.3026 48.095 60.3161L26.8888 122.084L36.394 130L88.0098 88.5173C95.2303 81.1611 95.8078 67.5272 79.8931 56.7271Z" fill="#3B27C1"/>
<path d="M78.2411 59.9323C68.0452 51.1155 56.369 56.3629 53.6709 60.6928C49.9285 67.6564 56.5069 76.8999 62.5411 81.3281C69.6726 86.5616 83.4255 88.0281 86.8389 82.6111C92.0384 74.3599 84.9323 65.7184 78.2411 59.9323Z" fill="#1F117A"/>
<path d="M69.3291 79.0526C70.3441 80.6153 74.2942 82.9202 81.9746 79.6381C91.575 75.5354 93.5063 74.8143 99.9732 78.613C106.44 82.4116 112.899 81.6826 113.548 74.0617C114.198 66.4408 114.462 59.8697 122.797 57.9227C129.464 56.3651 132.456 55.8261 133.118 55.7514" stroke="#BAFF36" stroke-width="5"/>
<path d="M60.3649 70.0129C63.5464 68.4797 69.1545 63.184 66.1353 54.2664C62.3613 43.1193 61.3037 38.2069 63.8361 33.8957C66.3686 29.5845 73.5047 29.2822 75.9286 34.0404C77.9239 38.3438 77.9878 43.3683 70.1504 45.2592C62.313 47.1501 52.1361 37.2289 61.1119 23.1333C63.9328 19.5946 68.6502 18.5926 70.6562 18.5339" stroke="#E1DDFF" stroke-width="5"/>
<path d="M73.682 73.0264C73.1586 68.3892 74.7611 58.5139 85.3584 56.1102C98.605 53.1055 86.3364 46.9426 90.4076 38.4323C94.4788 29.922 114.392 50.3174 113.976 33.2564C113.643 19.6076 106.198 16.3554 102.517 16.4354" stroke="#FC6760" stroke-width="5"/>
<path d="M137.494 68V55.4H139.906L145.27 64.292H143.992L149.266 55.4H151.66L151.696 68H148.96L148.942 59.594H149.446L145.234 66.668H143.92L139.618 59.594H140.23V68H137.494ZM160.427 68V66.11L160.247 65.696V62.312C160.247 61.712 160.061 61.244 159.689 60.908C159.329 60.572 158.771 60.404 158.015 60.404C157.499 60.404 156.989 60.488 156.485 60.656C155.993 60.812 155.573 61.028 155.225 61.304L154.217 59.342C154.745 58.97 155.381 58.682 156.125 58.478C156.869 58.274 157.625 58.172 158.393 58.172C159.869 58.172 161.015 58.52 161.831 59.216C162.647 59.912 163.055 60.998 163.055 62.474V68H160.427ZM157.475 68.144C156.719 68.144 156.071 68.018 155.531 67.766C154.991 67.502 154.577 67.148 154.289 66.704C154.001 66.26 153.857 65.762 153.857 65.21C153.857 64.634 153.995 64.13 154.271 63.698C154.559 63.266 155.009 62.93 155.621 62.69C156.233 62.438 157.031 62.312 158.015 62.312H160.589V63.95H158.321C157.661 63.95 157.205 64.058 156.953 64.274C156.713 64.49 156.593 64.76 156.593 65.084C156.593 65.444 156.731 65.732 157.007 65.948C157.295 66.152 157.685 66.254 158.177 66.254C158.645 66.254 159.065 66.146 159.437 65.93C159.809 65.702 160.079 65.372 160.247 64.94L160.679 66.236C160.475 66.86 160.103 67.334 159.563 67.658C159.023 67.982 158.327 68.144 157.475 68.144ZM169.557 68.144C168.417 68.144 167.529 67.856 166.893 67.28C166.257 66.692 165.939 65.822 165.939 64.67V56.174H168.747V64.634C168.747 65.042 168.855 65.36 169.071 65.588C169.287 65.804 169.581 65.912 169.953 65.912C170.397 65.912 170.775 65.792 171.087 65.552L171.843 67.532C171.555 67.736 171.207 67.892 170.799 68C170.403 68.096 169.989 68.144 169.557 68.144ZM164.445 60.692V58.532H171.159V60.692H164.445ZM177.8 68.144C176.756 68.144 175.826 67.934 175.01 67.514C174.194 67.082 173.552 66.488 173.084 65.732C172.628 64.976 172.4 64.118 172.4 63.158C172.4 62.186 172.628 61.328 173.084 60.584C173.552 59.828 174.194 59.24 175.01 58.82C175.826 58.388 176.756 58.172 177.8 58.172C178.82 58.172 179.708 58.388 180.464 58.82C181.22 59.24 181.778 59.846 182.138 60.638L179.96 61.808C179.708 61.352 179.39 61.016 179.006 60.8C178.634 60.584 178.226 60.476 177.782 60.476C177.302 60.476 176.87 60.584 176.486 60.8C176.102 61.016 175.796 61.322 175.568 61.718C175.352 62.114 175.244 62.594 175.244 63.158C175.244 63.722 175.352 64.202 175.568 64.598C175.796 64.994 176.102 65.3 176.486 65.516C176.87 65.732 177.302 65.84 177.782 65.84C178.226 65.84 178.634 65.738 179.006 65.534C179.39 65.318 179.708 64.976 179.96 64.508L182.138 65.696C181.778 66.476 181.22 67.082 180.464 67.514C179.708 67.934 178.82 68.144 177.8 68.144ZM189.588 58.172C190.356 58.172 191.04 58.328 191.64 58.64C192.252 58.94 192.732 59.408 193.08 60.044C193.428 60.668 193.602 61.472 193.602 62.456V68H190.794V62.888C190.794 62.108 190.62 61.532 190.272 61.16C189.936 60.788 189.456 60.602 188.832 60.602C188.388 60.602 187.986 60.698 187.626 60.89C187.278 61.07 187.002 61.352 186.798 61.736C186.606 62.12 186.51 62.612 186.51 63.212V68H183.702V54.644H186.51V60.998L185.88 60.188C186.228 59.54 186.726 59.042 187.374 58.694C188.022 58.346 188.76 58.172 189.588 58.172ZM201.024 68.144C199.92 68.144 198.948 67.928 198.108 67.496C197.28 67.064 196.638 66.476 196.182 65.732C195.726 64.976 195.498 64.118 195.498 63.158C195.498 62.186 195.72 61.328 196.164 60.584C196.62 59.828 197.238 59.24 198.018 58.82C198.798 58.388 199.68 58.172 200.664 58.172C201.612 58.172 202.464 58.376 203.22 58.784C203.988 59.18 204.594 59.756 205.038 60.512C205.482 61.256 205.704 62.15 205.704 63.194C205.704 63.302 205.698 63.428 205.686 63.572C205.674 63.704 205.662 63.83 205.65 63.95H197.784V62.312H204.174L203.094 62.798C203.094 62.294 202.992 61.856 202.788 61.484C202.584 61.112 202.302 60.824 201.942 60.62C201.582 60.404 201.162 60.296 200.682 60.296C200.202 60.296 199.776 60.404 199.404 60.62C199.044 60.824 198.762 61.118 198.558 61.502C198.354 61.874 198.252 62.318 198.252 62.834V63.266C198.252 63.794 198.366 64.262 198.594 64.67C198.834 65.066 199.164 65.372 199.584 65.588C200.016 65.792 200.52 65.894 201.096 65.894C201.612 65.894 202.062 65.816 202.446 65.66C202.842 65.504 203.202 65.27 203.526 64.958L205.02 66.578C204.576 67.082 204.018 67.472 203.346 67.748C202.674 68.012 201.9 68.144 201.024 68.144ZM211.731 68.144C210.819 68.144 209.997 67.94 209.265 67.532C208.533 67.112 207.951 66.53 207.519 65.786C207.099 65.042 206.889 64.166 206.889 63.158C206.889 62.138 207.099 61.256 207.519 60.512C207.951 59.768 208.533 59.192 209.265 58.784C209.997 58.376 210.819 58.172 211.731 58.172C212.547 58.172 213.261 58.352 213.873 58.712C214.485 59.072 214.959 59.618 215.295 60.35C215.631 61.082 215.799 62.018 215.799 63.158C215.799 64.286 215.637 65.222 215.313 65.966C214.989 66.698 214.521 67.244 213.909 67.604C213.309 67.964 212.583 68.144 211.731 68.144ZM212.217 65.84C212.673 65.84 213.087 65.732 213.459 65.516C213.831 65.3 214.125 64.994 214.341 64.598C214.569 64.19 214.683 63.71 214.683 63.158C214.683 62.594 214.569 62.114 214.341 61.718C214.125 61.322 213.831 61.016 213.459 60.8C213.087 60.584 212.673 60.476 212.217 60.476C211.749 60.476 211.329 60.584 210.957 60.8C210.585 61.016 210.285 61.322 210.057 61.718C209.841 62.114 209.733 62.594 209.733 63.158C209.733 63.71 209.841 64.19 210.057 64.598C210.285 64.994 210.585 65.3 210.957 65.516C211.329 65.732 211.749 65.84 212.217 65.84ZM214.755 68V66.02L214.809 63.14L214.629 60.278V54.644H217.437V68H214.755ZM220.234 63.626L219.676 55.4H223.024L222.466 63.626H220.234ZM221.35 68.144C220.846 68.144 220.432 67.982 220.108 67.658C219.784 67.334 219.622 66.95 219.622 66.506C219.622 66.05 219.784 65.672 220.108 65.372C220.432 65.06 220.846 64.904 221.35 64.904C221.866 64.904 222.28 65.06 222.592 65.372C222.916 65.672 223.078 66.05 223.078 66.506C223.078 66.95 222.916 67.334 222.592 67.658C222.28 67.982 221.866 68.144 221.35 68.144Z" fill="#337700"/>
</g>
<defs>
<clipPath id="clip0_29_29060">
<rect x="0.893555" width="348.212" height="98.5" rx="8" fill="white"/>
</clipPath>
</defs>
</svg>
