<svg width="9" height="13" viewBox="0 0 9 13" fill="none" xmlns="http://www.w3.org/2000/svg">
<path d="M1.31774 13.0012H7.63117C8.51522 13.0012 8.94889 12.5675 8.94889 11.6084V6.75446C8.94889 5.90378 8.5986 5.46176 7.89805 5.37836V3.72702C7.89805 1.16663 6.18 -0.000976562 4.47861 -0.000976562C2.76891 -0.000976562 1.05919 1.16663 1.05919 3.72702V5.40338C0.400332 5.52848 0 5.96216 0 6.75446V11.6084C0 12.5675 0.442025 13.0012 1.31774 13.0012ZM2.43531 3.5769C2.43531 2.08403 3.38608 1.31675 4.47861 1.31675C5.56283 1.31675 6.52193 2.08403 6.52193 3.5769V5.36167L2.43531 5.37002V3.5769Z" fill="#9E9E9E"/>
</svg>
