<svg width="24" height="25" viewBox="0 0 24 25" fill="none" xmlns="http://www.w3.org/2000/svg">
<path opacity="0.4" d="M19 8.91699C20.6569 8.91699 22 7.57385 22 5.91699C22 4.26014 20.6569 2.91699 19 2.91699C17.3431 2.91699 16 4.26014 16 5.91699C16 7.57385 17.3431 8.91699 19 8.91699Z" stroke="#337700" stroke-width="1.5" stroke-linecap="round" stroke-linejoin="round"/>
<path d="M14.02 3.11699C13.36 2.98699 12.69 2.91699 12 2.91699C6.48 2.91699 2 7.39699 2 12.917C2 18.437 6.48 22.917 12 22.917C17.52 22.917 22 18.437 22 12.917C22 12.237 21.93 11.567 21.8 10.927" stroke="#337700" stroke-width="1.5" stroke-linecap="round" stroke-linejoin="round"/>
</svg>
