<svg width="16" height="16" viewBox="0 0 16 16" fill="none" xmlns="http://www.w3.org/2000/svg">
<path opacity="0.4" d="M9.62695 12.6999L10.6403 13.7132L12.667 11.6865" stroke="#337700" stroke-width="1.5" stroke-linecap="round" stroke-linejoin="round"/>
<path opacity="0.4" d="M8.10673 7.24634C8.04006 7.23967 7.96006 7.23967 7.88673 7.24634C6.30006 7.19301 5.04006 5.89301 5.04006 4.29301C5.0334 2.65967 6.36006 1.33301 7.9934 1.33301C9.62673 1.33301 10.9534 2.65967 10.9534 4.29301C10.9534 5.89301 9.68673 7.19301 8.10673 7.24634Z" stroke="#337700" stroke-width="1.5" stroke-linecap="round" stroke-linejoin="round"/>
<path d="M7.99336 14.5404C6.78003 14.5404 5.57336 14.2338 4.65336 13.6204C3.04003 12.5404 3.04003 10.7804 4.65336 9.70711C6.48669 8.48044 9.49336 8.48044 11.3267 9.70711" stroke="#337700" stroke-width="1.5" stroke-linecap="round" stroke-linejoin="round"/>
</svg>
