<svg width="17" height="16" viewBox="0 0 17 16" fill="none" xmlns="http://www.w3.org/2000/svg">
<path opacity="0.4" d="M10.127 12.6999L11.1403 13.7132L13.167 11.6865" stroke="#E8303A" stroke-width="1.5" stroke-linecap="round" stroke-linejoin="round"/>
<path opacity="0.4" d="M8.60673 7.24634C8.54006 7.23967 8.46006 7.23967 8.38673 7.24634C6.80006 7.19301 5.54006 5.89301 5.54006 4.29301C5.5334 2.65967 6.86006 1.33301 8.4934 1.33301C10.1267 1.33301 11.4534 2.65967 11.4534 4.29301C11.4534 5.89301 10.1867 7.19301 8.60673 7.24634Z" stroke="#E8303A" stroke-width="1.5" stroke-linecap="round" stroke-linejoin="round"/>
<path d="M8.49336 14.5404C7.28003 14.5404 6.07336 14.2338 5.15336 13.6204C3.54003 12.5404 3.54003 10.7804 5.15336 9.70711C6.98669 8.48044 9.99336 8.48044 11.8267 9.70711" stroke="#E8303A" stroke-width="1.5" stroke-linecap="round" stroke-linejoin="round"/>
</svg>
