<svg width="99" height="20" viewBox="0 0 99 20" fill="none" xmlns="http://www.w3.org/2000/svg">
<path d="M8.49467 12.3969C8.91045 12.3969 9.26225 12.056 9.26225 11.6513V3.34416L9.1983 2.06613L9.64605 2.55604L10.8188 3.82343C10.9574 3.97254 11.1493 4.04709 11.3305 4.04709C11.7356 4.04709 12.0341 3.77017 12.0341 3.38676C12.0341 3.17377 11.9488 3.02467 11.7996 2.88621L9.04905 0.255589C8.85715 0.0638861 8.69722 0 8.49467 0C8.30277 0 8.14286 0.0638861 7.94029 0.255589L5.18977 2.88621C5.05117 3.02467 4.96589 3.17377 4.96589 3.38676C4.96589 3.77017 5.25372 4.04709 5.65885 4.04709C5.84009 4.04709 6.04264 3.97254 6.18124 3.82343L7.35395 2.55604L7.80171 2.06613L7.73774 3.34416V11.6513C7.73774 12.056 8.08955 12.3969 8.49467 12.3969ZM3.71855 19H13.2814C15.1045 19 16 18.1054 16 16.3161V8.12611C16 6.33688 15.1045 5.44225 13.2814 5.44225H10.9893V6.98654H13.2601C14.0171 6.98654 14.4648 7.4019 14.4648 8.20066V16.2416C14.4648 17.051 14.0171 17.4557 13.2601 17.4557H3.73988C2.97228 17.4557 2.53519 17.051 2.53519 16.2416V8.20066C2.53519 7.4019 2.97228 6.98654 3.73988 6.98654H6.01065V5.44225H3.71855C1.90618 5.44225 1 6.33688 1 8.12611V16.3161C1 18.1054 1.90618 19 3.71855 19Z" fill="#767676"/>
<path d="M49.0166 17.6401C49.4887 17.6401 49.8749 17.2646 49.8749 16.7925V11.3745H55.1642C55.6255 11.3745 56.0225 10.9775 56.0225 10.5055C56.0225 10.0334 55.6255 9.63643 55.1642 9.63643H49.8749V4.20768C49.8749 3.73562 49.4887 3.36011 49.0166 3.36011C48.5446 3.36011 48.1476 3.73562 48.1476 4.20768V9.63643H42.869C42.397 9.63643 42 10.0334 42 10.5055C42 10.9775 42.397 11.3745 42.869 11.3745H48.1476V16.7925C48.1476 17.2646 48.5446 17.6401 49.0166 17.6401Z" fill="#767676"/>
<path d="M83.6777 15.2899H84.9793V16.5915C84.9793 18.3408 85.854 19.205 87.6345 19.205H95.8189C97.589 19.205 98.4741 18.3408 98.4741 16.5915V8.32379C98.4741 6.57446 97.589 5.71022 95.8189 5.71022H94.5173V4.40863C94.5173 2.65929 93.6322 1.79504 91.8621 1.79504H83.6777C81.8971 1.79504 81.0225 2.65929 81.0225 4.40863V12.6763C81.0225 14.4256 81.8971 15.2899 83.6777 15.2899ZM83.6985 13.7905C82.9488 13.7905 82.5219 13.3844 82.5219 12.593V4.49193C82.5219 3.70058 82.9488 3.29448 83.6985 3.29448H91.8412C92.591 3.29448 93.0179 3.70058 93.0179 4.49193V5.71022H87.6345C85.854 5.71022 84.9793 6.57446 84.9793 8.32379V13.7905H83.6985ZM87.6553 17.7056C86.9056 17.7056 86.4787 17.2995 86.4787 16.5082V8.4071C86.4787 7.61573 86.9056 7.20963 87.6553 7.20963H95.798C96.5478 7.20963 96.9747 7.61573 96.9747 8.4071V16.5082C96.9747 17.2995 96.5478 17.7056 95.798 17.7056H87.6553Z" fill="#767676"/>
</svg>
