<svg width="99" height="20" viewBox="0 0 99 20" fill="none" xmlns="http://www.w3.org/2000/svg">
<path d="M8.49467 12.3969C8.91045 12.3969 9.26225 12.056 9.26225 11.6513V3.34416L9.1983 2.06613L9.64605 2.55604L10.8188 3.82343C10.9574 3.97254 11.1493 4.04709 11.3305 4.04709C11.7356 4.04709 12.0341 3.77017 12.0341 3.38676C12.0341 3.17377 11.9488 3.02467 11.7996 2.88621L9.04905 0.255589C8.85715 0.0638861 8.69722 0 8.49467 0C8.30277 0 8.14286 0.0638861 7.94029 0.255589L5.18977 2.88621C5.05117 3.02467 4.96589 3.17377 4.96589 3.38676C4.96589 3.77017 5.25372 4.04709 5.65885 4.04709C5.84009 4.04709 6.04264 3.97254 6.18124 3.82343L7.35395 2.55604L7.80171 2.06613L7.73774 3.34416V11.6513C7.73774 12.056 8.08955 12.3969 8.49467 12.3969ZM3.71855 19H13.2814C15.1045 19 16 18.1054 16 16.3161V8.12611C16 6.33688 15.1045 5.44225 13.2814 5.44225H10.9893V6.98654H13.2601C14.0171 6.98654 14.4648 7.4019 14.4648 8.20066V16.2416C14.4648 17.051 14.0171 17.4557 13.2601 17.4557H3.73988C2.97228 17.4557 2.53519 17.051 2.53519 16.2416V8.20066C2.53519 7.4019 2.97228 6.98654 3.73988 6.98654H6.01065V5.44225H3.71855C1.90618 5.44225 1 6.33688 1 8.12611V16.3161C1 18.1054 1.90618 19 3.71855 19Z" fill="#767676"/>
<path d="M49.0166 17.6404C49.4887 17.6404 49.8749 17.2648 49.8749 16.7928V11.3747H55.1642C55.6255 11.3747 56.0225 10.9778 56.0225 10.5057C56.0225 10.0337 55.6255 9.63668 55.1642 9.63668H49.8749V4.20792C49.8749 3.73586 49.4887 3.36035 49.0166 3.36035C48.5446 3.36035 48.1476 3.73586 48.1476 4.20792V9.63668H42.869C42.397 9.63668 42 10.0337 42 10.5057C42 10.9778 42.397 11.3747 42.869 11.3747H48.1476V16.7928C48.1476 17.2648 48.5446 17.6404 49.0166 17.6404Z" fill="#767676"/>
<path d="M83.6777 15.2898H84.9793V16.5913C84.9793 18.3407 85.854 19.2049 87.6345 19.2049H95.8189C97.589 19.2049 98.4741 18.3407 98.4741 16.5913V8.32366C98.4741 6.57434 97.589 5.71009 95.8189 5.71009H94.5173V4.40851C94.5173 2.65917 93.6322 1.79492 91.8621 1.79492H83.6777C81.8971 1.79492 81.0225 2.65917 81.0225 4.40851V12.6762C81.0225 14.4255 81.8971 15.2898 83.6777 15.2898ZM83.6985 13.7903C82.9488 13.7903 82.5219 13.3842 82.5219 12.5929V4.49181C82.5219 3.70045 82.9488 3.29436 83.6985 3.29436H91.8412C92.591 3.29436 93.0179 3.70045 93.0179 4.49181V5.71009H87.6345C85.854 5.71009 84.9793 6.57434 84.9793 8.32366V13.7903H83.6985ZM87.6553 17.7055C86.9056 17.7055 86.4787 17.2994 86.4787 16.508V8.40698C86.4787 7.6156 86.9056 7.20951 87.6553 7.20951H95.798C96.5478 7.20951 96.9747 7.6156 96.9747 8.40698V16.508C96.9747 17.2994 96.5478 17.7055 95.798 17.7055H87.6553Z" fill="#767676"/>
</svg>
