<svg width="24" height="25" viewBox="0 0 24 25" fill="none" xmlns="http://www.w3.org/2000/svg">
<path opacity="0.34" d="M12 15.417C13.6569 15.417 15 14.0738 15 12.417C15 10.7601 13.6569 9.41699 12 9.41699C10.3431 9.41699 9 10.7601 9 12.417C9 14.0738 10.3431 15.417 12 15.417Z" stroke="#337700" stroke-width="1.5" stroke-miterlimit="10" stroke-linecap="round" stroke-linejoin="round"/>
<path d="M2 13.2974V11.5374C2 10.4974 2.85 9.63742 3.9 9.63742C5.71 9.63742 6.45 8.35742 5.54 6.78742C5.02 5.88742 5.33 4.71742 6.24 4.19742L7.97 3.20742C8.76 2.73742 9.78 3.01742 10.25 3.80742L10.36 3.99742C11.26 5.56742 12.74 5.56742 13.65 3.99742L13.76 3.80742C14.23 3.01742 15.25 2.73742 16.04 3.20742L17.77 4.19742C18.68 4.71742 18.99 5.88742 18.47 6.78742C17.56 8.35742 18.3 9.63742 20.11 9.63742C21.15 9.63742 22.01 10.4874 22.01 11.5374V13.2974C22.01 14.3374 21.16 15.1974 20.11 15.1974C18.3 15.1974 17.56 16.4774 18.47 18.0474C18.99 18.9574 18.68 20.1174 17.77 20.6374L16.04 21.6274C15.25 22.0974 14.23 21.8174 13.76 21.0274L13.65 20.8374C12.75 19.2674 11.27 19.2674 10.36 20.8374L10.25 21.0274C9.78 21.8174 8.76 22.0974 7.97 21.6274L6.24 20.6374C5.33 20.1174 5.02 18.9474 5.54 18.0474C6.45 16.4774 5.71 15.1974 3.9 15.1974C2.85 15.1974 2 14.3374 2 13.2974Z" stroke="#337700" stroke-width="1.5" stroke-miterlimit="10" stroke-linecap="round" stroke-linejoin="round"/>
</svg>
