<svg width="24" height="25" viewBox="0 0 24 25" fill="none" xmlns="http://www.w3.org/2000/svg">
<path d="M15.39 5.62718L16.7999 8.44717C16.9899 8.83717 17.4999 9.20716 17.9299 9.28716L20.48 9.70716C22.11 9.97716 22.49 11.1572 21.32 12.3372L19.3299 14.3272C18.9999 14.6572 18.81 15.3072 18.92 15.7772L19.4899 18.2372C19.9399 20.1772 18.9 20.9372 17.19 19.9172L14.7999 18.4972C14.3699 18.2372 13.65 18.2372 13.22 18.4972L10.8299 19.9172C9.11994 20.9272 8.07995 20.1772 8.52995 18.2372L9.09996 15.7772C9.20996 15.3172 9.01995 14.6672 8.68995 14.3272L6.69996 12.3372C5.52996 11.1672 5.90996 9.98716 7.53996 9.70716L10.0899 9.28716C10.5199 9.21716 11.03 8.83717 11.22 8.44717L12.63 5.62718C13.38 4.09718 14.62 4.09718 15.39 5.62718Z" stroke="#337700" stroke-width="1.5" stroke-linecap="round" stroke-linejoin="round"/>
<path opacity="0.4" d="M8 5.41718H2" stroke="#337700" stroke-width="1.5" stroke-linecap="round" stroke-linejoin="round"/>
<path opacity="0.4" d="M5 19.4172H2" stroke="#337700" stroke-width="1.5" stroke-linecap="round" stroke-linejoin="round"/>
<path opacity="0.4" d="M3 12.4172H2" stroke="#337700" stroke-width="1.5" stroke-linecap="round" stroke-linejoin="round"/>
</svg>
