<svg width="25" height="25" viewBox="0 0 25 25" fill="none" xmlns="http://www.w3.org/2000/svg">
<path d="M16.92 8.64396C19.36 11.084 19.36 15.0439 16.92 17.4839C14.48 19.9239 10.52 19.9239 8.08 17.4839C5.64 15.0439 5.64 11.084 8.08 8.64396C10.52 6.20396 14.48 6.20396 16.92 8.64396Z" stroke="#58CC02" stroke-width="1.5" stroke-linecap="round" stroke-linejoin="round"/>
<path opacity="0.4" d="M8.74999 22.3342C6.74999 21.5342 4.99999 20.0842 3.83999 18.0742C2.69999 16.1042 2.31999 13.9142 2.58999 11.8242" stroke="#58CC02" stroke-width="1.5" stroke-linecap="round" stroke-linejoin="round"/>
<path opacity="0.4" d="M6.34961 5.17419C8.04961 3.84419 10.1796 3.0542 12.4996 3.0542C14.7696 3.0542 16.8596 3.82419 18.5396 5.10419" stroke="#58CC02" stroke-width="1.5" stroke-linecap="round" stroke-linejoin="round"/>
<path opacity="0.4" d="M16.25 22.3342C18.25 21.5342 20 20.0842 21.16 18.0742C22.3 16.1042 22.68 13.9142 22.41 11.8242" stroke="#58CC02" stroke-width="1.5" stroke-linecap="round" stroke-linejoin="round"/>
</svg>
