<svg width="24" height="25" viewBox="0 0 24 25" fill="none" xmlns="http://www.w3.org/2000/svg">
<path d="M18 19.2767H17.24C16.44 19.2767 15.68 19.5867 15.12 20.1467L13.41 21.8368C12.63 22.6068 11.36 22.6068 10.58 21.8368L8.87 20.1467C8.31 19.5867 7.54 19.2767 6.75 19.2767H6C4.34 19.2767 3 17.9468 3 16.3068V5.39673C3 3.75673 4.34 2.42676 6 2.42676H18C19.66 2.42676 21 3.75673 21 5.39673V16.3068C21 17.9368 19.66 19.2767 18 19.2767Z" stroke="#337700" stroke-width="1.5" stroke-miterlimit="10" stroke-linecap="round" stroke-linejoin="round"/>
<path opacity="0.4" d="M7 9.57678C7 8.64678 7.76 7.88672 8.69 7.88672C9.62 7.88672 10.38 8.64678 10.38 9.57678C10.38 11.4568 7.71 11.6568 7.12 13.4468C7 13.8168 7.31 14.1868 7.7 14.1868H10.38" stroke="#337700" stroke-width="1.5" stroke-linecap="round" stroke-linejoin="round"/>
<path opacity="0.4" d="M16.0398 14.1769V8.4669C16.0398 8.2069 15.8698 7.97684 15.6198 7.90684C15.3698 7.83684 15.0998 7.93684 14.9598 8.15684C14.2398 9.31684 13.4598 10.6369 12.7798 11.7969C12.6698 11.9869 12.6698 12.2369 12.7798 12.4269C12.8898 12.6169 13.0998 12.7368 13.3298 12.7368H16.9998" stroke="#337700" stroke-width="1.5" stroke-linecap="round" stroke-linejoin="round"/>
</svg>
