<svg width="388" height="99" viewBox="0 0 388 99" fill="none" xmlns="http://www.w3.org/2000/svg">
<g clip-path="url(#clip0_29_32752)">
<rect width="388" height="98.5" rx="8" fill="#58CC02" fill-opacity="0.12"/>
<path d="M104 15C105.167 14.5 107.7 12.7 108.5 9.5C109.3 6.3 108.167 2.5 107.5 1" stroke="#FFC201" stroke-width="5"/>
<path d="M95.5 23.5L94 14.5" stroke="#FB8D00" stroke-width="5"/>
<path d="M47.5 19C48.8333 17.6667 51 14.3 49 11.5M35 21.5C35.1667 23.3333 36.8 27.5 42 29.5C44.8 30.3 47.8333 28.8333 49 28M104.5 62.5C104.5 62.1 107.5 59 109 57.5M113 48.5L110.5 42" stroke="#F44133" stroke-width="5"/>
<path d="M50 36L56.5 40" stroke="#FFC201" stroke-width="5"/>
<path d="M122 84L130 85" stroke="#F490B3" stroke-width="5"/>
<path d="M78.9991 56.7271C63.7416 46.373 51.3283 52.3026 47.201 60.3161L25.9948 122.084L35.5 130L87.1157 88.5173C94.3363 81.1611 94.9138 67.5272 78.9991 56.7271Z" fill="#3B27C1"/>
<path d="M77.3471 59.9325C67.1511 51.1158 55.4749 56.3631 52.7768 60.693C49.0344 67.6567 55.6129 76.9002 61.6471 81.3284C68.7785 86.5619 82.5314 88.0283 85.9449 82.6113C91.1443 74.3602 84.0383 65.7186 77.3471 59.9325Z" fill="#1F117A"/>
<path d="M68.4351 79.0524C69.4501 80.6151 73.4002 82.9199 81.0805 79.6378C90.681 75.5352 92.6123 74.814 99.0791 78.6127C105.546 82.4114 112.005 81.6824 112.654 74.0615C113.304 66.4406 113.568 59.8694 121.903 57.9224C128.57 56.3648 131.562 55.8259 132.224 55.7511" stroke="#BAFF36" stroke-width="5"/>
<path d="M59.3649 70.0129C62.5464 68.4797 68.1545 63.184 65.1353 54.2664C61.3613 43.1193 60.3037 38.2069 62.8361 33.8957C65.3686 29.5845 72.5047 29.2822 74.9286 34.0404C76.9239 38.3438 76.9878 43.3683 69.1504 45.2592C61.313 47.1501 51.1361 37.2289 60.1119 23.1333C62.9328 19.5946 67.6502 18.5926 69.6562 18.5339" stroke="#E1DDFF" stroke-width="5"/>
<path d="M72.788 73.0264C72.2646 68.3892 73.8671 58.5139 84.4644 56.1102C97.711 53.1055 85.4424 46.9426 89.5136 38.4323C93.5848 29.922 113.498 50.3174 113.082 33.2564C112.749 19.6076 105.304 16.3554 101.623 16.4354" stroke="#FC6760" stroke-width="5"/>
<path d="M142.63 68.216C141.658 68.216 140.752 68.06 139.912 67.748C139.084 67.424 138.364 66.968 137.752 66.38C137.14 65.792 136.66 65.102 136.312 64.31C135.976 63.518 135.808 62.648 135.808 61.7C135.808 60.752 135.976 59.882 136.312 59.09C136.66 58.298 137.14 57.608 137.752 57.02C138.376 56.432 139.102 55.982 139.93 55.67C140.758 55.346 141.664 55.184 142.648 55.184C143.74 55.184 144.724 55.376 145.6 55.76C146.488 56.132 147.232 56.684 147.832 57.416L145.96 59.144C145.528 58.652 145.048 58.286 144.52 58.046C143.992 57.794 143.416 57.668 142.792 57.668C142.204 57.668 141.664 57.764 141.172 57.956C140.68 58.148 140.254 58.424 139.894 58.784C139.534 59.144 139.252 59.57 139.048 60.062C138.856 60.554 138.76 61.1 138.76 61.7C138.76 62.3 138.856 62.846 139.048 63.338C139.252 63.83 139.534 64.256 139.894 64.616C140.254 64.976 140.68 65.252 141.172 65.444C141.664 65.636 142.204 65.732 142.792 65.732C143.416 65.732 143.992 65.612 144.52 65.372C145.048 65.12 145.528 64.742 145.96 64.238L147.832 65.966C147.232 66.698 146.488 67.256 145.6 67.64C144.724 68.024 143.734 68.216 142.63 68.216ZM153.878 68.144C152.846 68.144 151.928 67.928 151.124 67.496C150.332 67.064 149.702 66.476 149.234 65.732C148.778 64.976 148.55 64.118 148.55 63.158C148.55 62.186 148.778 61.328 149.234 60.584C149.702 59.828 150.332 59.24 151.124 58.82C151.928 58.388 152.846 58.172 153.878 58.172C154.898 58.172 155.81 58.388 156.614 58.82C157.418 59.24 158.048 59.822 158.504 60.566C158.96 61.31 159.188 62.174 159.188 63.158C159.188 64.118 158.96 64.976 158.504 65.732C158.048 66.476 157.418 67.064 156.614 67.496C155.81 67.928 154.898 68.144 153.878 68.144ZM153.878 65.84C154.346 65.84 154.766 65.732 155.138 65.516C155.51 65.3 155.804 64.994 156.02 64.598C156.236 64.19 156.344 63.71 156.344 63.158C156.344 62.594 156.236 62.114 156.02 61.718C155.804 61.322 155.51 61.016 155.138 60.8C154.766 60.584 154.346 60.476 153.878 60.476C153.41 60.476 152.99 60.584 152.618 60.8C152.246 61.016 151.946 61.322 151.718 61.718C151.502 62.114 151.394 62.594 151.394 63.158C151.394 63.71 151.502 64.19 151.718 64.598C151.946 64.994 152.246 65.3 152.618 65.516C152.99 65.732 153.41 65.84 153.878 65.84ZM166.951 58.172C167.719 58.172 168.403 58.328 169.003 58.64C169.615 58.94 170.095 59.408 170.443 60.044C170.791 60.668 170.965 61.472 170.965 62.456V68H168.157V62.888C168.157 62.108 167.983 61.532 167.635 61.16C167.299 60.788 166.819 60.602 166.195 60.602C165.751 60.602 165.349 60.698 164.989 60.89C164.641 61.07 164.365 61.352 164.161 61.736C163.969 62.12 163.873 62.612 163.873 63.212V68H161.065V58.316H163.747V60.998L163.243 60.188C163.591 59.54 164.089 59.042 164.737 58.694C165.385 58.346 166.123 58.172 166.951 58.172ZM178.134 71.636C177.222 71.636 176.34 71.522 175.488 71.294C174.648 71.078 173.946 70.748 173.382 70.304L174.498 68.288C174.906 68.624 175.422 68.888 176.046 69.08C176.682 69.284 177.306 69.386 177.918 69.386C178.914 69.386 179.634 69.164 180.078 68.72C180.534 68.276 180.762 67.616 180.762 66.74V65.282L180.942 62.852L180.906 60.404V58.316H183.57V66.38C183.57 68.18 183.102 69.506 182.166 70.358C181.23 71.21 179.886 71.636 178.134 71.636ZM177.702 67.532C176.802 67.532 175.986 67.34 175.254 66.956C174.534 66.56 173.952 66.014 173.508 65.318C173.076 64.61 172.86 63.788 172.86 62.852C172.86 61.904 173.076 61.082 173.508 60.386C173.952 59.678 174.534 59.132 175.254 58.748C175.986 58.364 176.802 58.172 177.702 58.172C178.518 58.172 179.238 58.34 179.862 58.676C180.486 59 180.972 59.51 181.32 60.206C181.668 60.89 181.842 61.772 181.842 62.852C181.842 63.92 181.668 64.802 181.32 65.498C180.972 66.182 180.486 66.692 179.862 67.028C179.238 67.364 178.518 67.532 177.702 67.532ZM178.26 65.228C178.752 65.228 179.19 65.132 179.574 64.94C179.958 64.736 180.258 64.454 180.474 64.094C180.69 63.734 180.798 63.32 180.798 62.852C180.798 62.372 180.69 61.958 180.474 61.61C180.258 61.25 179.958 60.974 179.574 60.782C179.19 60.578 178.752 60.476 178.26 60.476C177.768 60.476 177.33 60.578 176.946 60.782C176.562 60.974 176.256 61.25 176.028 61.61C175.812 61.958 175.704 62.372 175.704 62.852C175.704 63.32 175.812 63.734 176.028 64.094C176.256 64.454 176.562 64.736 176.946 64.94C177.33 65.132 177.768 65.228 178.26 65.228ZM186.184 68V58.316H188.866V61.052L188.488 60.26C188.776 59.576 189.238 59.06 189.874 58.712C190.51 58.352 191.284 58.172 192.196 58.172V60.764C192.076 60.752 191.968 60.746 191.872 60.746C191.776 60.734 191.674 60.728 191.566 60.728C190.798 60.728 190.174 60.95 189.694 61.394C189.226 61.826 188.992 62.504 188.992 63.428V68H186.184ZM199.173 68V66.11L198.993 65.696V62.312C198.993 61.712 198.807 61.244 198.435 60.908C198.075 60.572 197.517 60.404 196.761 60.404C196.245 60.404 195.735 60.488 195.231 60.656C194.739 60.812 194.319 61.028 193.971 61.304L192.963 59.342C193.491 58.97 194.127 58.682 194.871 58.478C195.615 58.274 196.371 58.172 197.139 58.172C198.615 58.172 199.761 58.52 200.577 59.216C201.393 59.912 201.801 60.998 201.801 62.474V68H199.173ZM196.221 68.144C195.465 68.144 194.817 68.018 194.277 67.766C193.737 67.502 193.323 67.148 193.035 66.704C192.747 66.26 192.603 65.762 192.603 65.21C192.603 64.634 192.741 64.13 193.017 63.698C193.305 63.266 193.755 62.93 194.367 62.69C194.979 62.438 195.777 62.312 196.761 62.312H199.335V63.95H197.067C196.407 63.95 195.951 64.058 195.699 64.274C195.459 64.49 195.339 64.76 195.339 65.084C195.339 65.444 195.477 65.732 195.753 65.948C196.041 66.152 196.431 66.254 196.923 66.254C197.391 66.254 197.811 66.146 198.183 65.93C198.555 65.702 198.825 65.372 198.993 64.94L199.425 66.236C199.221 66.86 198.849 67.334 198.309 67.658C197.769 67.982 197.073 68.144 196.221 68.144ZM208.302 68.144C207.162 68.144 206.274 67.856 205.638 67.28C205.002 66.692 204.684 65.822 204.684 64.67V56.174H207.492V64.634C207.492 65.042 207.6 65.36 207.816 65.588C208.032 65.804 208.326 65.912 208.698 65.912C209.142 65.912 209.52 65.792 209.832 65.552L210.588 67.532C210.3 67.736 209.952 67.892 209.544 68C209.148 68.096 208.734 68.144 208.302 68.144ZM203.19 60.692V58.532H209.904V60.692H203.19ZM216.25 68.144C215.446 68.144 214.726 67.988 214.09 67.676C213.466 67.364 212.98 66.89 212.632 66.254C212.284 65.606 212.11 64.784 212.11 63.788V58.316H214.918V63.374C214.918 64.178 215.086 64.772 215.422 65.156C215.77 65.528 216.256 65.714 216.88 65.714C217.312 65.714 217.696 65.624 218.032 65.444C218.368 65.252 218.632 64.964 218.824 64.58C219.016 64.184 219.112 63.692 219.112 63.104V58.316H221.92V68H219.256V65.336L219.742 66.11C219.418 66.782 218.938 67.292 218.302 67.64C217.678 67.976 216.994 68.144 216.25 68.144ZM224.522 68V54.644H227.33V68H224.522ZM235.876 68V66.11L235.696 65.696V62.312C235.696 61.712 235.51 61.244 235.138 60.908C234.778 60.572 234.22 60.404 233.464 60.404C232.948 60.404 232.438 60.488 231.934 60.656C231.442 60.812 231.022 61.028 230.674 61.304L229.666 59.342C230.194 58.97 230.83 58.682 231.574 58.478C232.318 58.274 233.074 58.172 233.842 58.172C235.318 58.172 236.464 58.52 237.28 59.216C238.096 59.912 238.504 60.998 238.504 62.474V68H235.876ZM232.924 68.144C232.168 68.144 231.52 68.018 230.98 67.766C230.44 67.502 230.026 67.148 229.738 66.704C229.45 66.26 229.306 65.762 229.306 65.21C229.306 64.634 229.444 64.13 229.72 63.698C230.008 63.266 230.458 62.93 231.07 62.69C231.682 62.438 232.48 62.312 233.464 62.312H236.038V63.95H233.77C233.11 63.95 232.654 64.058 232.402 64.274C232.162 64.49 232.042 64.76 232.042 65.084C232.042 65.444 232.18 65.732 232.456 65.948C232.744 66.152 233.134 66.254 233.626 66.254C234.094 66.254 234.514 66.146 234.886 65.93C235.258 65.702 235.528 65.372 235.696 64.94L236.128 66.236C235.924 66.86 235.552 67.334 235.012 67.658C234.472 67.982 233.776 68.144 232.924 68.144ZM245.005 68.144C243.865 68.144 242.977 67.856 242.341 67.28C241.705 66.692 241.387 65.822 241.387 64.67V56.174H244.195V64.634C244.195 65.042 244.303 65.36 244.519 65.588C244.735 65.804 245.029 65.912 245.401 65.912C245.845 65.912 246.223 65.792 246.535 65.552L247.291 67.532C247.003 67.736 246.655 67.892 246.247 68C245.851 68.096 245.437 68.144 245.005 68.144ZM239.893 60.692V58.532H246.607V60.692H239.893ZM248.867 68V58.316H251.675V68H248.867ZM250.271 56.966C249.755 56.966 249.335 56.816 249.011 56.516C248.687 56.216 248.525 55.844 248.525 55.4C248.525 54.956 248.687 54.584 249.011 54.284C249.335 53.984 249.755 53.834 250.271 53.834C250.787 53.834 251.207 53.978 251.531 54.266C251.855 54.542 252.017 54.902 252.017 55.346C252.017 55.814 251.855 56.204 251.531 56.516C251.219 56.816 250.799 56.966 250.271 56.966ZM258.889 68.144C257.857 68.144 256.939 67.928 256.135 67.496C255.343 67.064 254.713 66.476 254.245 65.732C253.789 64.976 253.561 64.118 253.561 63.158C253.561 62.186 253.789 61.328 254.245 60.584C254.713 59.828 255.343 59.24 256.135 58.82C256.939 58.388 257.857 58.172 258.889 58.172C259.909 58.172 260.821 58.388 261.625 58.82C262.429 59.24 263.059 59.822 263.515 60.566C263.971 61.31 264.199 62.174 264.199 63.158C264.199 64.118 263.971 64.976 263.515 65.732C263.059 66.476 262.429 67.064 261.625 67.496C260.821 67.928 259.909 68.144 258.889 68.144ZM258.889 65.84C259.357 65.84 259.777 65.732 260.149 65.516C260.521 65.3 260.815 64.994 261.031 64.598C261.247 64.19 261.355 63.71 261.355 63.158C261.355 62.594 261.247 62.114 261.031 61.718C260.815 61.322 260.521 61.016 260.149 60.8C259.777 60.584 259.357 60.476 258.889 60.476C258.421 60.476 258.001 60.584 257.629 60.8C257.257 61.016 256.957 61.322 256.729 61.718C256.513 62.114 256.405 62.594 256.405 63.158C256.405 63.71 256.513 64.19 256.729 64.598C256.957 64.994 257.257 65.3 257.629 65.516C258.001 65.732 258.421 65.84 258.889 65.84ZM271.962 58.172C272.73 58.172 273.414 58.328 274.014 58.64C274.626 58.94 275.106 59.408 275.454 60.044C275.802 60.668 275.976 61.472 275.976 62.456V68H273.168V62.888C273.168 62.108 272.994 61.532 272.646 61.16C272.31 60.788 271.83 60.602 271.206 60.602C270.762 60.602 270.36 60.698 270 60.89C269.652 61.07 269.376 61.352 269.172 61.736C268.98 62.12 268.884 62.612 268.884 63.212V68H266.076V58.316H268.758V60.998L268.254 60.188C268.602 59.54 269.1 59.042 269.748 58.694C270.396 58.346 271.134 58.172 271.962 58.172ZM281.78 68.144C280.952 68.144 280.154 68.048 279.386 67.856C278.63 67.652 278.03 67.4 277.586 67.1L278.522 65.084C278.966 65.36 279.488 65.588 280.088 65.768C280.7 65.936 281.3 66.02 281.888 66.02C282.536 66.02 282.992 65.942 283.256 65.786C283.532 65.63 283.67 65.414 283.67 65.138C283.67 64.91 283.562 64.742 283.346 64.634C283.142 64.514 282.866 64.424 282.518 64.364C282.17 64.304 281.786 64.244 281.366 64.184C280.958 64.124 280.544 64.046 280.124 63.95C279.704 63.842 279.32 63.686 278.972 63.482C278.624 63.278 278.342 63.002 278.126 62.654C277.922 62.306 277.82 61.856 277.82 61.304C277.82 60.692 277.994 60.152 278.342 59.684C278.702 59.216 279.218 58.85 279.89 58.586C280.562 58.31 281.366 58.172 282.302 58.172C282.962 58.172 283.634 58.244 284.318 58.388C285.002 58.532 285.572 58.742 286.028 59.018L285.092 61.016C284.624 60.74 284.15 60.554 283.67 60.458C283.202 60.35 282.746 60.296 282.302 60.296C281.678 60.296 281.222 60.38 280.934 60.548C280.646 60.716 280.502 60.932 280.502 61.196C280.502 61.436 280.604 61.616 280.808 61.736C281.024 61.856 281.306 61.952 281.654 62.024C282.002 62.096 282.38 62.162 282.788 62.222C283.208 62.27 283.628 62.348 284.048 62.456C284.468 62.564 284.846 62.72 285.182 62.924C285.53 63.116 285.812 63.386 286.028 63.734C286.244 64.07 286.352 64.514 286.352 65.066C286.352 65.666 286.172 66.2 285.812 66.668C285.452 67.124 284.93 67.484 284.246 67.748C283.574 68.012 282.752 68.144 281.78 68.144ZM288.282 63.626L287.724 55.4H291.072L290.514 63.626H288.282ZM289.398 68.144C288.894 68.144 288.48 67.982 288.156 67.658C287.832 67.334 287.67 66.95 287.67 66.506C287.67 66.05 287.832 65.672 288.156 65.372C288.48 65.06 288.894 64.904 289.398 64.904C289.914 64.904 290.328 65.06 290.64 65.372C290.964 65.672 291.126 66.05 291.126 66.506C291.126 66.95 290.964 67.334 290.64 67.658C290.328 67.982 289.914 68.144 289.398 68.144Z" fill="#337700"/>
</g>
<defs>
<clipPath id="clip0_29_32752">
<rect width="388" height="98.5" rx="8" fill="white"/>
</clipPath>
</defs>
</svg>
