<svg width="25" height="25" viewBox="0 0 25 25" fill="none" xmlns="http://www.w3.org/2000/svg">
<g clip-path="url(#clip0_42_11218)">
<path d="M21.7337 4.02734H3.06706C2.35981 4.02734 1.68154 4.3083 1.18144 4.80839C0.681342 5.30849 0.400391 5.98677 0.400391 6.69401L0.400391 18.694C0.400391 19.4013 0.681342 20.0795 1.18144 20.5796C1.68154 21.0797 2.35981 21.3607 3.06706 21.3607H21.7337C22.441 21.3607 23.1192 21.0797 23.6193 20.5796C24.1194 20.0795 24.4004 19.4013 24.4004 18.694V6.69401C24.4004 5.98677 24.1194 5.30849 23.6193 4.80839C23.1192 4.3083 22.441 4.02734 21.7337 4.02734Z" fill="#EEEEEE"/>
<path d="M14.4004 4.02734H10.4004V10.694H0.400391V14.694H10.4004V21.3607H14.4004V14.694H24.4004V10.694H14.4004V4.02734Z" fill="#CE1124"/>
</g>
<defs>
<clipPath id="clip0_42_11218">
<rect width="24" height="24" fill="white" transform="translate(0.400391 0.694092)"/>
</clipPath>
</defs>
</svg>
