<svg width="12" height="11" viewBox="0 0 12 11" fill="none" xmlns="http://www.w3.org/2000/svg">
<path d="M6.00045 9.11692L3.2829 10.754C3.16285 10.8304 3.03734 10.8631 2.90638 10.8522C2.77541 10.8413 2.66082 10.7977 2.56259 10.7213C2.46437 10.6449 2.38797 10.5493 2.3334 10.4344C2.27883 10.3196 2.26792 10.1915 2.30066 10.0501L3.02097 6.95598L0.614473 4.8769C0.505334 4.77867 0.437232 4.6667 0.410166 4.54097C0.3831 4.41524 0.391176 4.29257 0.434394 4.17296C0.47805 4.0529 0.543533 3.95468 0.630843 3.87828C0.718154 3.80189 0.838206 3.75277 0.991 3.73095L4.16692 3.45264L5.39473 0.53865C5.4493 0.407684 5.53399 0.309459 5.6488 0.243976C5.76362 0.178494 5.88083 0.145752 6.00045 0.145752C6.1205 0.145752 6.23771 0.178494 6.35209 0.243976C6.46647 0.309459 6.55116 0.407684 6.60617 0.53865L7.83397 3.45264L11.0099 3.73095C11.1627 3.75277 11.2827 3.80189 11.3701 3.87828C11.4574 3.95468 11.5228 4.0529 11.5665 4.17296C11.6102 4.29301 11.6185 4.4159 11.5914 4.54163C11.5643 4.66735 11.496 4.77911 11.3864 4.8769L8.97992 6.95598L9.70024 10.0501C9.73298 10.1919 9.72206 10.3203 9.66749 10.4351C9.61293 10.5499 9.53653 10.6453 9.4383 10.7213C9.34008 10.7977 9.22548 10.8413 9.09452 10.8522C8.96355 10.8631 8.83804 10.8304 8.71799 10.754L6.00045 9.11692Z" fill="#F0BD22"/>
</svg>
