<svg width="191" height="192" viewBox="0 0 191 192" fill="none" xmlns="http://www.w3.org/2000/svg">
<g filter="url(#filter0_f_42_9887)">
<path d="M101.961 26.4386C87.0123 31.7045 71.2346 42.6286 56.3397 58.0311C41.4449 73.4335 31.0554 89.5682 26.2931 104.685C21.5309 119.801 23.141 132.48 30.6235 139.716L54.2213 162.536C61.7037 169.772 74.5156 170.916 89.3778 165.691C104.24 160.465 120.104 149.501 134.999 134.098C149.894 118.696 160.283 102.561 165.046 87.4444C169.808 72.3278 168.198 59.6491 160.715 52.4132L137.117 29.5931C129.635 22.3572 116.823 21.2128 101.961 26.4386ZM107.519 115.135L123.251 130.348C113.913 139.394 104.93 145.929 96.7487 150.385L81.361 135.505C90.864 129.785 99.6491 122.95 107.529 115.144L107.519 115.135ZM115.126 107.269C122.663 99.1321 129.2 90.123 134.598 80.4336L149.991 95.319C145.811 103.645 139.581 112.842 130.853 122.478L115.126 107.269ZM61.828 154.67L52.7478 145.889C57.1958 145.401 61.5703 144.388 65.7801 142.871C67.5302 142.251 69.3125 141.53 71.07 140.775L86.0202 155.232C74.64 159.287 65.9035 158.611 61.828 154.67ZM154.481 84.4389L139.53 69.9814C140.24 68.1849 140.887 66.3942 141.448 64.6243C142.823 60.3661 143.689 55.9601 144.028 51.4982L153.109 60.2792C157.184 64.2204 158.152 72.9293 154.481 84.4389Z" fill="#F9C23C"/>
</g>
<defs>
<filter id="filter0_f_42_9887" x="0.597656" y="0.203857" width="190.144" height="191.722" filterUnits="userSpaceOnUse" color-interpolation-filters="sRGB">
<feFlood flood-opacity="0" result="BackgroundImageFix"/>
<feBlend mode="normal" in="SourceGraphic" in2="BackgroundImageFix" result="shape"/>
<feGaussianBlur stdDeviation="11.5" result="effect1_foregroundBlur_42_9887"/>
</filter>
</defs>
</svg>
