<svg width="12" height="11" viewBox="0 0 12 11" fill="none" xmlns="http://www.w3.org/2000/svg">
<path d="M5.78756 9.11692L3.07001 10.754C2.94996 10.8304 2.82445 10.8631 2.69349 10.8522C2.56252 10.8413 2.44793 10.7977 2.3497 10.7213C2.25148 10.6449 2.17508 10.5493 2.12051 10.4344C2.06594 10.3196 2.05503 10.1915 2.08777 10.0501L2.80808 6.95598L0.401582 4.8769C0.292444 4.77867 0.224342 4.6667 0.197275 4.54097C0.170209 4.41524 0.178285 4.29257 0.221504 4.17296C0.265159 4.0529 0.330642 3.95468 0.417953 3.87828C0.505263 3.80189 0.625316 3.75277 0.778109 3.73095L3.95403 3.45264L5.18184 0.53865C5.23641 0.407684 5.3211 0.309459 5.43591 0.243976C5.55073 0.178494 5.66794 0.145752 5.78756 0.145752C5.90761 0.145752 6.02482 0.178494 6.1392 0.243976C6.25358 0.309459 6.33827 0.407684 6.39327 0.53865L7.62108 3.45264L10.797 3.73095C10.9498 3.75277 11.0699 3.80189 11.1572 3.87828C11.2445 3.95468 11.31 4.0529 11.3536 4.17296C11.3973 4.29301 11.4056 4.4159 11.3785 4.54163C11.3514 4.66735 11.2831 4.77911 11.1735 4.8769L8.76703 6.95598L9.48735 10.0501C9.52009 10.1919 9.50917 10.3203 9.4546 10.4351C9.40003 10.5499 9.32364 10.6453 9.22541 10.7213C9.12719 10.7977 9.01259 10.8413 8.88163 10.8522C8.75066 10.8631 8.62515 10.8304 8.5051 10.754L5.78756 9.11692Z" fill="#F0BD22"/>
</svg>
