<svg width="17" height="16" viewBox="0 0 17 16" fill="none" xmlns="http://www.w3.org/2000/svg">
<path d="M13.4987 6.85977C13.7574 7.13129 13.8824 7.26211 13.9197 7.57491C13.9355 7.72255 13.9195 7.87186 13.8729 8.01283C13.8262 8.15379 13.7499 8.28314 13.6491 8.39218C13.5484 8.50122 13.4254 8.58744 13.2885 8.64504C13.1517 8.70263 13.0041 8.73028 12.8557 8.72612L12.8807 8.98194C12.9097 9.26742 12.9371 9.54417 12.9371 9.81337C12.9387 9.90086 12.9062 9.98556 12.8466 10.0496C12.7869 10.1136 12.7047 10.1519 12.6173 10.1564L11.6405 10.1913C11.608 10.211 11.5811 10.2387 11.5625 10.2718C11.5439 10.3049 11.5341 10.3423 11.5341 10.3802C11.5341 10.4182 11.5439 10.4556 11.5625 10.4887C11.5811 10.5218 11.608 10.5495 11.6405 10.5692L12.6115 11.1913C12.6907 11.241 12.7524 11.3143 12.7878 11.4009C12.8233 11.4874 12.8307 11.5829 12.8092 11.6739C12.4894 12.86 11.6405 13.674 9.72764 13.9124C9.35903 13.9554 8.98808 13.9705 8.61714 13.9589C8.46984 13.9545 8.32498 13.9972 8.20367 14.0809C8.08236 14.1645 7.99093 14.2847 7.94269 14.424L7.52407 15.5868H1.70991L2.9774 11.5809C3.1038 11.1778 3.0662 10.7412 2.87274 10.3657C2.18086 9.04008 1.07617 6.7493 0.901741 5.33646C0.756877 4.19538 1.07119 3.04349 1.77555 2.13415C2.47992 1.2248 3.51664 0.632471 4.65769 0.487443L7.4543 0.138593C8.59321 0.000354916 9.74055 0.318358 10.6458 1.02316C11.551 1.72797 12.1407 2.76232 12.2859 3.90036L12.5068 5.64461C12.8023 6.07712 13.1341 6.48364 13.4987 6.85977ZM16.8384 11.2088V10.0808C16.844 10.0422 16.8399 10.0027 16.8262 9.96612C16.8126 9.92952 16.79 9.89696 16.7604 9.87144C16.7308 9.84593 16.6953 9.8283 16.6571 9.82018C16.6189 9.81206 16.5792 9.81371 16.5418 9.82499L14.6581 10.4064C14.6115 10.4217 14.571 10.4513 14.5423 10.491C14.5136 10.5306 14.4981 10.5784 14.4981 10.6273C14.4981 10.6763 14.5136 10.7241 14.5423 10.7637C14.571 10.8034 14.6115 10.833 14.6581 10.8483L16.5418 11.4297C16.5763 11.4397 16.6125 11.4415 16.6477 11.4351C16.683 11.4288 16.7163 11.4143 16.745 11.3929C16.7737 11.3715 16.7971 11.3437 16.8133 11.3118C16.8295 11.2798 16.8381 11.2446 16.8384 11.2088ZM15.2395 7.66212L16.036 8.45866C16.061 8.48423 16.0798 8.51521 16.091 8.54921C16.1021 8.5832 16.1053 8.6193 16.1002 8.65472C16.0951 8.69013 16.082 8.7239 16.0618 8.75342C16.0416 8.78294 16.0149 8.80742 15.9837 8.82496L14.2394 9.75522C14.1961 9.77691 14.1471 9.78452 14.0992 9.77699C14.0514 9.76946 14.007 9.74716 13.9725 9.71322C13.9379 9.67928 13.9148 9.63539 13.9063 9.58767C13.8979 9.53996 13.9046 9.4908 13.9255 9.44707L14.8557 7.70282C14.8737 7.66924 14.8995 7.64056 14.9311 7.61929C14.9627 7.59802 14.999 7.58479 15.0368 7.58078C15.0747 7.57677 15.1129 7.58208 15.1483 7.59626C15.1836 7.61044 15.2149 7.63305 15.2395 7.66212ZM16.036 12.8425L15.2395 13.6391C15.215 13.6683 15.1837 13.691 15.1483 13.7053C15.113 13.7195 15.0747 13.7249 15.0368 13.7209C14.9989 13.7169 14.9625 13.7036 14.931 13.6822C14.8994 13.6609 14.8736 13.6321 14.8557 13.5984L13.9255 11.8541C13.9046 11.8104 13.8979 11.7613 13.9063 11.7135C13.9148 11.6658 13.9379 11.6219 13.9725 11.588C14.007 11.554 14.0514 11.5318 14.0992 11.5242C14.1471 11.5167 14.1961 11.5243 14.2394 11.546L15.9837 12.4763C16.015 12.4937 16.0418 12.5181 16.062 12.5477C16.0823 12.5772 16.0955 12.611 16.1006 12.6464C16.1056 12.6819 16.1024 12.718 16.0912 12.752C16.08 12.7861 16.0611 12.817 16.036 12.8425Z" fill="white"/>
</svg>
