<svg width="14" height="18" viewBox="0 0 14 18" fill="none" xmlns="http://www.w3.org/2000/svg">
<path d="M7.00001 17.5C7.1165 17.5 7.32829 17.4574 7.56126 17.3298C12.3162 14.7128 14 13.5213 14 10.3723V3.96809C14 3.09575 13.587 2.8298 12.9304 2.54255C12.0726 2.17021 8.56732 0.925528 7.70952 0.627675C7.48713 0.553206 7.24357 0.5 7.00001 0.5C6.75643 0.5 6.50226 0.57447 6.29048 0.627675C5.43268 0.840427 1.92738 2.18086 1.06958 2.54255C0.413012 2.81914 0 3.09575 0 3.96809V10.3723C0 13.5213 1.6838 14.7021 6.43874 17.3298C6.67171 17.4574 6.8835 17.5 7.00001 17.5ZM7.28593 2.09574C8.63087 2.63831 10.8865 3.43618 12.2738 3.90426C12.4539 3.96809 12.4856 4.06382 12.4856 4.25531V9.99999C12.4856 12.5851 11.3525 13.266 7.52951 15.5638C7.26476 15.7234 7.13767 15.7553 7.01059 15.7553V2.04256C7.08473 2.04256 7.18002 2.05319 7.28593 2.09574Z" fill="#737373"/>
</svg>
