<svg width="247" height="250" viewBox="0 0 247 250" fill="none" xmlns="http://www.w3.org/2000/svg">
<path d="M134.163 5.86654C108.575 14.8804 81.5679 33.5794 56.072 59.9442C30.576 86.309 12.7921 113.927 4.64039 139.803C-3.51129 165.678 -0.755121 187.381 12.0528 199.766L52.4457 238.828C65.2536 251.214 87.184 253.173 112.624 244.228C138.064 235.283 165.219 216.515 190.715 190.15C216.211 163.785 233.995 136.167 242.147 110.292C250.298 84.4163 247.542 62.7139 234.734 50.328L194.341 11.2662C181.533 -1.11964 159.603 -3.07861 134.163 5.86654ZM143.677 157.69L170.606 183.732C154.622 199.216 139.245 210.402 125.241 218.029L98.9014 192.558C115.168 182.768 130.206 171.068 143.694 157.707L143.677 157.69ZM156.698 144.226C169.599 130.298 180.789 114.877 190.029 98.2913L216.377 123.771C209.223 138.023 198.558 153.766 183.618 170.259L156.698 144.226ZM65.4663 225.364L49.9235 210.333C57.5373 209.498 65.0253 207.763 72.2312 205.166C75.2269 204.106 78.2777 202.871 81.2861 201.579L106.877 226.326C87.397 233.267 72.4425 232.11 65.4663 225.364ZM224.062 105.147L198.472 80.4C199.687 77.3247 200.794 74.2596 201.754 71.23C204.108 63.9412 205.59 56.3992 206.171 48.7617L221.714 63.7923C228.69 70.5386 230.347 85.4459 224.062 105.147Z" fill="#F9C23C"/>
</svg>
