<svg width="17" height="16" viewBox="0 0 17 16" fill="none" xmlns="http://www.w3.org/2000/svg">
<path opacity="0.4" d="M10.127 12.6999L11.1403 13.7132L13.167 11.6865" stroke="#E8303A" stroke-width="1.5" stroke-linecap="round" stroke-linejoin="round"/>
<path opacity="0.4" d="M8.60673 7.24683C8.54006 7.24016 8.46006 7.24016 8.38673 7.24683C6.80006 7.1935 5.54006 5.8935 5.54006 4.2935C5.5334 2.66016 6.86006 1.3335 8.4934 1.3335C10.1267 1.3335 11.4534 2.66016 11.4534 4.2935C11.4534 5.8935 10.1867 7.1935 8.60673 7.24683Z" stroke="#E8303A" stroke-width="1.5" stroke-linecap="round" stroke-linejoin="round"/>
<path d="M8.49336 14.54C7.28003 14.54 6.07336 14.2333 5.15336 13.62C3.54003 12.54 3.54003 10.78 5.15336 9.70662C6.98669 8.47995 9.99336 8.47995 11.8267 9.70662" stroke="#E8303A" stroke-width="1.5" stroke-linecap="round" stroke-linejoin="round"/>
</svg>
