<svg width="17" height="16" viewBox="0 0 17 16" fill="none" xmlns="http://www.w3.org/2000/svg">
<path opacity="0.4" d="M10.127 12.7L11.1403 13.7133L13.167 11.6866" stroke="#E8303A" stroke-width="1.5" stroke-linecap="round" stroke-linejoin="round"/>
<path opacity="0.4" d="M8.60673 7.24665C8.54006 7.23998 8.46006 7.23998 8.38673 7.24665C6.80006 7.19331 5.54006 5.89331 5.54006 4.29331C5.5334 2.65998 6.86006 1.33331 8.4934 1.33331C10.1267 1.33331 11.4534 2.65998 11.4534 4.29331C11.4534 5.89331 10.1867 7.19331 8.60673 7.24665Z" stroke="#E8303A" stroke-width="1.5" stroke-linecap="round" stroke-linejoin="round"/>
<path d="M8.49336 14.54C7.28003 14.54 6.07336 14.2333 5.15336 13.62C3.54003 12.54 3.54003 10.78 5.15336 9.70668C6.98669 8.48002 9.99336 8.48002 11.8267 9.70668" stroke="#E8303A" stroke-width="1.5" stroke-linecap="round" stroke-linejoin="round"/>
</svg>
