<svg width="24" height="25" viewBox="0 0 24 25" fill="none" xmlns="http://www.w3.org/2000/svg">
<path d="M15.39 5.71L16.7999 8.52999C16.9899 8.91999 17.4999 9.28999 17.9299 9.36999L20.48 9.78999C22.11 10.06 22.49 11.24 21.32 12.42L19.3299 14.41C18.9999 14.74 18.81 15.39 18.92 15.86L19.4899 18.32C19.9399 20.26 18.9 21.02 17.19 20L14.7999 18.58C14.3699 18.32 13.65 18.32 13.22 18.58L10.8299 20C9.11994 21.01 8.07995 20.26 8.52995 18.32L9.09996 15.86C9.20996 15.4 9.01995 14.75 8.68995 14.41L6.69996 12.42C5.52996 11.25 5.90996 10.07 7.53996 9.78999L10.0899 9.36999C10.5199 9.29999 11.03 8.91999 11.22 8.52999L12.63 5.71C13.38 4.18 14.62 4.18 15.39 5.71Z" stroke="#337700" stroke-width="1.5" stroke-linecap="round" stroke-linejoin="round"/>
<path opacity="0.4" d="M8 5.5H2" stroke="#337700" stroke-width="1.5" stroke-linecap="round" stroke-linejoin="round"/>
<path opacity="0.4" d="M5 19.5H2" stroke="#337700" stroke-width="1.5" stroke-linecap="round" stroke-linejoin="round"/>
<path opacity="0.4" d="M3 12.5H2" stroke="#337700" stroke-width="1.5" stroke-linecap="round" stroke-linejoin="round"/>
</svg>
