<svg width="17" height="17" viewBox="0 0 17 17" fill="none" xmlns="http://www.w3.org/2000/svg">
<path d="M11.1663 9.10004V11.9C11.1663 14.2334 10.233 15.1667 7.89967 15.1667H5.09967C2.76634 15.1667 1.83301 14.2334 1.83301 11.9V9.10004C1.83301 6.76671 2.76634 5.83337 5.09967 5.83337H7.89967C10.233 5.83337 11.1663 6.76671 11.1663 9.10004Z" stroke="#2D2D2D" stroke-width="1.5" stroke-linecap="round" stroke-linejoin="round"/>
<path opacity="0.4" d="M15.1663 5.10004V7.90004C15.1663 10.2334 14.233 11.1667 11.8997 11.1667H11.1663V9.10004C11.1663 6.76671 10.233 5.83337 7.89967 5.83337H5.83301V5.10004C5.83301 2.76671 6.76634 1.83337 9.09967 1.83337H11.8997C14.233 1.83337 15.1663 2.76671 15.1663 5.10004Z" stroke="#2D2D2D" stroke-width="1.5" stroke-linecap="round" stroke-linejoin="round"/>
</svg>
