<svg width="16" height="17" viewBox="0 0 16 17" fill="none" xmlns="http://www.w3.org/2000/svg">
<path d="M14.6663 8.19417V11.5275C14.6663 13.5275 13.333 14.8608 11.333 14.8608H4.66634C2.66634 14.8608 1.33301 13.5275 1.33301 11.5275V8.19417C1.33301 6.38084 2.42634 5.11417 4.12634 4.90084C4.29967 4.87417 4.47967 4.86084 4.66634 4.86084H11.333C11.5063 4.86084 11.673 4.8675 11.833 4.89417C13.553 5.09417 14.6663 6.36751 14.6663 8.19417Z" stroke="white" stroke-width="1.5" stroke-linecap="round" stroke-linejoin="round"/>
<path opacity="0.4" d="M11.8336 4.89401C11.6736 4.86734 11.507 4.86068 11.3336 4.86068H4.66695C4.48029 4.86068 4.30029 4.87402 4.12695 4.90068C4.22029 4.71402 4.35362 4.54068 4.51362 4.38068L6.68029 2.20734C7.59362 1.30068 9.07362 1.30068 9.98695 2.20734L11.1536 3.38736C11.5803 3.80736 11.807 4.34068 11.8336 4.89401Z" stroke="white" stroke-width="1.5" stroke-linecap="round" stroke-linejoin="round"/>
<path opacity="0.4" d="M14.6663 8.52734H12.6663C11.933 8.52734 11.333 9.12734 11.333 9.86068C11.333 10.594 11.933 11.194 12.6663 11.194H14.6663" stroke="white" stroke-width="1.5" stroke-linecap="round" stroke-linejoin="round"/>
</svg>
