<svg width="17" height="17" viewBox="0 0 17 17" fill="none" xmlns="http://www.w3.org/2000/svg">
<path d="M11.1663 9.10016V11.9002C11.1663 14.2335 10.233 15.1668 7.89967 15.1668H5.09967C2.76634 15.1668 1.83301 14.2335 1.83301 11.9002V9.10016C1.83301 6.76683 2.76634 5.8335 5.09967 5.8335H7.89967C10.233 5.8335 11.1663 6.76683 11.1663 9.10016Z" stroke="#2D2D2D" stroke-width="1.5" stroke-linecap="round" stroke-linejoin="round"/>
<path opacity="0.4" d="M15.1663 5.10016V7.90016C15.1663 10.2335 14.233 11.1668 11.8997 11.1668H11.1663V9.10016C11.1663 6.76683 10.233 5.8335 7.89967 5.8335H5.83301V5.10016C5.83301 2.76683 6.76634 1.8335 9.09967 1.8335H11.8997C14.233 1.8335 15.1663 2.76683 15.1663 5.10016Z" stroke="#2D2D2D" stroke-width="1.5" stroke-linecap="round" stroke-linejoin="round"/>
</svg>
