<svg width="16" height="16" viewBox="0 0 16 16" fill="none" xmlns="http://www.w3.org/2000/svg">
<path opacity="0.4" d="M9.62695 12.6999L10.6403 13.7132L12.667 11.6865" stroke="#337700" stroke-width="1.5" stroke-linecap="round" stroke-linejoin="round"/>
<path opacity="0.4" d="M8.10673 7.24683C8.04006 7.24016 7.96006 7.24016 7.88673 7.24683C6.30006 7.1935 5.04006 5.8935 5.04006 4.2935C5.0334 2.66016 6.36006 1.3335 7.9934 1.3335C9.62673 1.3335 10.9534 2.66016 10.9534 4.2935C10.9534 5.8935 9.68673 7.1935 8.10673 7.24683Z" stroke="#337700" stroke-width="1.5" stroke-linecap="round" stroke-linejoin="round"/>
<path d="M7.99336 14.54C6.78003 14.54 5.57336 14.2333 4.65336 13.62C3.04003 12.54 3.04003 10.78 4.65336 9.70662C6.48669 8.47995 9.49336 8.47995 11.3267 9.70662" stroke="#337700" stroke-width="1.5" stroke-linecap="round" stroke-linejoin="round"/>
</svg>
