<svg width="16" height="17" viewBox="0 0 16 17" fill="none" xmlns="http://www.w3.org/2000/svg">
<path d="M14.6663 8.84701V12.1803C14.6663 14.1803 13.333 15.5137 11.333 15.5137H4.66634C2.66634 15.5137 1.33301 14.1803 1.33301 12.1803V8.84701C1.33301 7.03367 2.42634 5.767 4.12634 5.55367C4.29967 5.527 4.47967 5.51367 4.66634 5.51367H11.333C11.5063 5.51367 11.673 5.52033 11.833 5.547C13.553 5.747 14.6663 7.02034 14.6663 8.84701Z" stroke="white" stroke-width="1.5" stroke-linecap="round" stroke-linejoin="round"/>
<path opacity="0.4" d="M11.8336 5.54684C11.6736 5.52017 11.507 5.51352 11.3336 5.51352H4.66695C4.48029 5.51352 4.30029 5.52685 4.12695 5.55351C4.22029 5.36685 4.35362 5.19352 4.51362 5.03352L6.68029 2.86018C7.59362 1.95351 9.07362 1.95351 9.98695 2.86018L11.1536 4.04019C11.5803 4.46019 11.807 4.99351 11.8336 5.54684Z" stroke="white" stroke-width="1.5" stroke-linecap="round" stroke-linejoin="round"/>
<path opacity="0.4" d="M14.6663 9.18018H12.6663C11.933 9.18018 11.333 9.78018 11.333 10.5135C11.333 11.2468 11.933 11.8468 12.6663 11.8468H14.6663" stroke="white" stroke-width="1.5" stroke-linecap="round" stroke-linejoin="round"/>
</svg>
